/* XPM */
static char *result[] = {
/* columns rows colors chars-per-pixel */
"40 57 88 1 ",
"  c black",
". c #050302",
"X c #060403",
"o c #0B0704",
"O c #0B0705",
"+ c #0E0905",
"@ c #0D0907",
"# c #0F0A06",
"$ c #21110D",
"% c #21140C",
"& c #29190F",
"* c #251510",
"= c #2F1D10",
"- c #2E1C11",
"; c #2E1E12",
": c #2D1D17",
"> c #342013",
", c #362114",
"< c #382214",
"1 c #38281E",
"2 c #3E382E",
"3 c #402717",
"4 c #412717",
"5 c #422918",
"6 c #422919",
"7 c #432B1A",
"8 c #442A19",
"9 c #492E1B",
"0 c #482D1C",
"q c #4B301D",
"w c #4A311E",
"e c #4E331E",
"r c #4F331F",
"t c #513520",
"y c #523621",
"u c #533721",
"i c #533623",
"p c #573A23",
"a c #583926",
"s c #5A493C",
"d c #5D4B3E",
"f c #684631",
"g c #634934",
"h c #69523E",
"j c #77523B",
"k c #17355F",
"l c #35476A",
"z c #5D555A",
"x c #625042",
"c c #6E5742",
"v c #795D47",
"b c #45506A",
"n c #746B6A",
"m c #835B43",
"M c #986C50",
"N c #996C51",
"B c #9A6D51",
"V c #9C6F52",
"C c #A47558",
"Z c #AC7B5D",
"A c #AD7F61",
"S c #998166",
"D c #B08466",
"F c #B08668",
"G c #B1886B",
"H c #1D428A",
"J c #224F9A",
"K c #3F6BAD",
"L c #2B65B5",
"P c #777A84",
"I c #787E97",
"U c #797F98",
"Y c #4A76B5",
"T c #81848E",
"R c #81848F",
"E c #82848E",
"W c #82848F",
"Q c #82858F",
"! c #828390",
"~ c #818490",
"^ c #828490",
"/ c #828590",
"( c #BCA386",
") c #868CA1",
"_ c #878CA1",
"` c #A4A8B5",
"' c #C0AC8F",
"] c None",
/* pixels */
"]]]]           ]]]      ]]]]]]]]]]]]]]]]",
"]]]]           ]]]      ]]]]]]]]]]]]]]]]",
"]]]]   wwwww7,,O  www        ]]]]]]]]]]]",
"]]]]   pppppe33o  ppp        ]]]]]]]]]]]",
"]]]]   pppppe33o  ppp        ]]]]]]]]]]]",
"]]]]      ppppp833ppp334pppppX  ]]]]]]]]",
"]]]]      ppppp833ppp334pppppX  ]]]]]]]]",
"]]]]      ppppp833ppp334pppppX  ]]]]]]]]",
"]   333ppppppppppppppppppppppppp   ]]]]]",
"]   333ppppppppppppppppppppppppp   ]]]]]",
"]   333ppppppppppppppppppppppppp   ]]]]]",
" -33ppppppppppppppppppppppppppppppp   ]]",
" -33ppppppppppppppppppppppppppppppp   ]]",
" -33ppppppeetppppppppeeeeeypppppppp   ]]",
" -33pppppp339pppppppp33333qpppppppp   ]]",
" -33pppppp339pppppppp33333qpppppppp   ]]",
" -33888888339pppppppp335MMBVVq88ppp>>=  ",
" -33333333339pppppppp336ZZZZZ033ppp33<  ",
" -33333333339pppppppp336ZZZZZ033ppp33<  ",
" -33ppp333339ppppp333ZZZZZZZZZZZ33333<  ",
" -33ppp333339ppppp333ZZZZZZZZZZZ33333<  ",
" -33ppp333339ppppp333ZZZZZZZZZZZ33333<  ",
" -33ppppppZZm33uppZZZ$$*''''':$$   33<  ",
" -33ppppppZZm33uppZZZ$$*''''':$$   33<  ",
" -33ppppppZZm33uppZZZ$$*''''':$$   33<  ",
" -33333pppZZZZZi33'''$$*''''':$$      ]]",
" -33333pppZZZZZi33'''$$*''''':$$      ]]",
" %&&333rrrZZZZZvcc'''ssd'''''xss      ]]",
"]   333333ZZZZZ(''''''''''''''''   ]]]]]",
"]   333333ZZZZZ(''''''''''''''''   ]]]]]",
"]]]]+++333aajZZDFF'''''''''''GFF   ]]]]]",
"]]]]   33333fZZZZZ'''''''''''AZZ   ]]]]]",
"]]]]   33333fZZZZZ'''''''''''AZZ   ]]]]]",
"]]]]]]]   33333NZZZZZZZZZZZZZ@  ]]]]]]]]",
"]]]]]]]   33333NZZZZZZZZZZZZZ@  ]]]]]]]]",
"]]]]]]]   33333NZZZZZZZZZZZZZ@  ]]]]]]]]",
"]]]]]]]   33333uppIIIIIIIIz33.  ]]]]]]]]",
"]]]]]]]   33333uppIIIIIIIIz33.  ]]]]]]]]",
"]]]]]]]   33333uppIIIIIIIIz33.  ]]]]]]]]",
"]]]]]]]   339pppppIIIIIU``n33.  ]]]]]]]]",
"]]]]]]]   339pppppIIIIIU``n33.  ]]]]]]]]",
"]]]]]]]222hhgpppppIII))_``n33111]]]]]]]]",
"]]]]   '''''SpppppIII`````n33CZZ   ]]]]]",
"]]]]   '''''SpppppIII`````n33CZZ   ]]]]]",
"]]]]   '''''SpppppKKKYYYYYb33CZZ   ]]]]]",
"]]]]   '''''SpppppLLLLLLLLl33CZZ   ]]]]]",
"]]]]   '''''SpppppLLLLLLLLl33CZZ   ]]]]]",
"]]]]~RR   HHJLLLLLHHHLLLLLk     RR^]]]]]",
"]]]]TRR   HHJLLLLLHHHLLLLLk     RRR]]]]]",
"]]]]RRR   HHJLLLLLHHHLLLLLk     RR^]]]]]",
"]WWWRRR   339pp#     334pp;  PRRRRRW~W]]",
"]!RRRRR   339pp#     334pp;  PRRRRRRR/]]",
"]QRRRRR   339pp#     334pp;  PRRRRRRRR]]",
"]QRRRRRRRRRRRRRRRRRRRRRRRRRRRRRRRRRRRE]]",
"]~RRRRRRRRRRRRRRRRRRRRRRRRRRRRRRRRRRR~]]",
"]]~WRRRRRRRRRRRRRRRRRRRRRRRRRRRRRRT~T]]]",
"]]]]RRRRRRRRRRRRRRRRRRRRRRRRRRRRRRR]]]]]"
};
