/* XPM */
static char *c2ef1f4afb244bfeb80bbd0a1d366144ATYr8zvS361UvQha[] = {
/* columns rows colors chars-per-pixel */
"60 74 192 2 ",
"   c None",
".  c #3C220E",
"X  c #3E2310",
"o  c #372A1F",
"O  c #2A2927",
"+  c #2E2D2B",
"@  c #383735",
"#  c #383D3B",
"$  c #3A3B36",
"%  c #3A352D",
"&  c #422611",
"*  c #4D2D12",
"=  c #4D2D1C",
"-  c #452914",
";  c #542E1B",
":  c #553115",
">  c #593417",
",  c #53301D",
"<  c #5E351A",
"1  c #5D3819",
"2  c #63341E",
"3  c #643A1C",
"4  c #6A3C1E",
"5  c #473529",
"6  c #5A3826",
"7  c #433D34",
"8  c #483D33",
"9  c #452C21",
"0  c #663620",
"q  c #683721",
"w  c #6D3922",
"e  c #653C25",
"r  c #733B25",
"t  c #793F25",
"y  c #7A3E29",
"u  c #773D28",
"i  c #3D413F",
"p  c #6C411F",
"a  c #71451F",
"s  c #474036",
"d  c #494137",
"f  c #4C4439",
"g  c #40423F",
"h  c #524739",
"j  c #5E4130",
"k  c #6E4221",
"l  c #734424",
"z  c #7A4425",
"x  c #7C4B24",
"c  c #754229",
"v  c #7D432A",
"b  c #744823",
"n  c #7E5027",
"m  c #3F4341",
"M  c #414542",
"N  c #444946",
"B  c #4A4A47",
"V  c #464A48",
"C  c #4A4E4A",
"Z  c #5B4C43",
"A  c #4D524D",
"S  c #4F5550",
"D  c #515752",
"F  c #555A55",
"G  c #595C55",
"H  c #575D59",
"J  c #595E59",
"K  c #58564A",
"L  c #635549",
"P  c #5C615B",
"I  c #61655E",
"U  c #6C6559",
"Y  c #636661",
"T  c #666962",
"R  c #6A6D65",
"E  c #696D69",
"W  c #6D7167",
"Q  c #6E736A",
"!  c #72756C",
"~  c #75796E",
"^  c #797B6F",
"/  c #737573",
"(  c #767B72",
")  c #7B7E73",
"_  c #7B7A79",
"`  c #83442C",
"'  c #88452E",
"]  c #834C2C",
"[  c #8C4B2E",
"{  c #854F26",
"}  c #86512B",
"|  c #8C5529",
" . c #8D592B",
".. c #885527",
"X. c #92552D",
"o. c #925A2A",
"O. c #8E4A30",
"+. c #8A4932",
"@. c #944D31",
"#. c #9B4D3A",
"$. c #875130",
"%. c #945332",
"&. c #9B5433",
"*. c #9D5C33",
"=. c #995838",
"-. c #A05635",
";. c #A35A36",
":. c #A35C39",
">. c #AB5D3A",
",. c #A45639",
"<. c #9F652F",
"1. c #94602E",
"2. c #996431",
"3. c #A0672F",
"4. c #A26532",
"5. c #A96237",
"6. c #A5623A",
"7. c #AC633B",
"8. c #AE6A3C",
"9. c #AA6E36",
"0. c #B2643C",
"q. c #B46B3E",
"w. c #BA6C3F",
"e. c #AC7439",
"r. c #A67136",
"t. c #B17337",
"y. c #BA723E",
"u. c #B3783A",
"i. c #BA7D3D",
"p. c #B1733A",
"a. c #C0763F",
"s. c #B05A43",
"d. c #A95540",
"f. c #AF6141",
"g. c #B36541",
"h. c #B66B41",
"j. c #BB6D41",
"k. c #BD7242",
"l. c #C06E44",
"z. c #C37544",
"x. c #C57A45",
"c. c #CA7D46",
"v. c #CD7E48",
"b. c #C87649",
"n. c #D07E49",
"m. c #D57F51",
"M. c #7D8076",
"N. c #7D8279",
"B. c #818377",
"V. c #808379",
"C. c #82857A",
"Z. c #83867D",
"A. c #82857B",
"S. c #85887D",
"D. c #84887E",
"F. c #AD927E",
"G. c #CD8147",
"H. c #CE8149",
"J. c #C58143",
"K. c #D3844B",
"L. c #D6894C",
"P. c #D98C4E",
"I. c #DC924E",
"U. c #DD994E",
"Y. c #DA8452",
"T. c #DD8B52",
"R. c #DF9251",
"E. c #E19C4F",
"W. c #E28E56",
"Q. c #E48F58",
"!. c #E29255",
"~. c #E39A53",
"^. c #E69459",
"/. c #E99B59",
"(. c #E89D57",
"). c #E4A451",
"_. c #838581",
"`. c #868A81",
"'. c #898D84",
"]. c #898989",
"[. c #8B9086",
"{. c #8E938A",
"}. c #91968D",
"|. c #93998F",
" X c #959B92",
".X c #989B96",
"XX c #9AA197",
"oX c #9BA298",
"OX c #A0A0A0",
"+X c #ABABAB",
"@X c gray81",
"#X c #E6E6E6",
/* pixels */
"                                                                                                                        ",
"                                                                                                                        ",
"                                                                                                                        ",
"                                                                                                                        ",
"                                                      P H P H H P                                                       ",
"                                                W oXXX X|.|.XXXX XoX_.(                                                 ",
"                                                ( '.N.D.N.A.N.) ( ( ( Q                                                 ",
"                                                Q ( M.N.) M.Z.~ T E Q G                                                 ",
"                                                H M.N.N.) ) V.~ T R ~ E                                                 ",
"                                                P M./ Q r.) V.( R T R                                                   ",
"                                                  N.N.N._./ M.! ! ! ~ m                                                 ",
"                                            C D m ( E _./ / N.W ( Q T A H N                                             ",
"                          F I             E [.N.S P ! ( R R ) M.) ) P T '.{.( H         ~ D                             ",
"                        F '.) P     R |.M.M.E Q S m Y M.! ( Q ( ( ( C _ ! Q T N.|.G   T S.}.{.                          ",
"                      T '.) N.( P m `.M.M.E T E P i M.N.( _.N._.) B.N N.! Q Q E N.W T D.'.A.S.F                         ",
"                    T N.~ ~ Q ( M.S M.M.M.N.M.M.E i M.M.N.N.N._ ~ E C Z.( ( ! ! ! A `.[.S.S.M.M.F                       ",
"                  V D.~ ~ M.N.M.N.M.D M.M.Q Q W D # D J P P P P P S N N.( ( ~ ^ G ~ B.[.`.S.S.S.D.T                     ",
"                    T M.E W ( ( Q N.P W M.M.Q % 6 c r :.=.k f.:.%.c c 9 ! ( ! ~ m S.M.A.M.N.S.S.Q M                     ",
"                      F ! ( ( ~ ( M.( B Z j ] ] =.:.=.f.:.z j.f.f.6.7.=.%.e Z A E S.A.B.B.M.M.P                         ",
"                    i P N ( ! ( N.! P o , g.:.*.6.6.6.h.g.n b.j.h.h.g.8.g.h.c 9 P D.~ M.A.D.P I i                       ",
"                    P `.T ~ Q ! ( ~ 7 c k 7.7.2.f.h.h.h.k.$.m.x.z.k.z.h.h.h.%.$.= H Q Q Z.P g M.P                       ",
"                  A `.N.) C P Q D 5 l 6.k h.h.g.k.k.k.H.H.$.T.K.H.H.H.x.v.k.=.h.*.6 A J A Q A.M.M.P                     ",
"                  I M.( ! Y # i = v *.6.c z.x.k.v.H.H.H.H. .R.Y.Y.H.K.H.Y.x.6.k.q.=., # ~ A.N.[.A.! .X                  ",
"                N D.( ! M.Z./ 7 c 6.6.h.b H.x.x.H.H.K.K.K.4.^.U.L.K.Y.K.T.H.8.J.k.q.+.= Q ) N.B.N.M.A                   ",
"                N ! ~ ( M.! s c 6.g.p.z.n K.K.H.K.K.P.P.K.<./.R.P.L.L.K.T.L.h.K.x.k.h.f.d M.M.) ~ ) C G                 ",
"              Q P M W ~ ^ P - <.5.q.k.x.x L.K.H.P.L.P.P.K.<.^.R.P.H.L.K.L.T.k.L.H.x.k.h.} P ~ ^ Q G F P                 ",
"              '.D.) G W Q 5 l 6.h.k.k.H.o.T.L.H.P.L.R.P.R.<.^.T.L.H.L.K.L.I.k.U.K.x.k.k.8.9 P P G T ! J                 ",
"              ~ Q ( ~ N.F } *.0.J.G.G.H. .R.L.K.I.L.L.P.L.<.!.P.K.H.L.L.L.P.r.L.K.G.G.k.q.} 5 ! ) Q ! ! J               ",
"            +X! ) ! ! W U o.2.h.H.H.H.H. .U.K.L.R.L.L.L.K.2.R.K.H.G.L.K.K.P.e.U.H.G.G.k.y.h.6 Q ! Q M.! (               ",
"            _.) Q Q Q ! L 9.e.J.H.H.K.H. .~.L.I.R.L.K.L.K.<.R.K.L.H.L.H.L.P.e.P.H.H.J.x.k.h.%.W Q ~ W M.(               ",
"            N ! M.! ! P 1 g.h.k.H.H.L.L.o.~.K.L.L.K.H.H.K.4.R.Y.K.H.H.L.I.I.u.I.K.H.J.x.k.8.k.K ! M.^ ! T               ",
"            m m i i i N x k.k.G.H.Y.P.L.o.(.L.L.L.K.H.L.K.2.^.K.L.H.L.K.I.I.e.I.L.K.L.G.x.k.J.d i i i i V               ",
"      i T _.}.|. X X{.i { H.K.K.L.I.T.L.o.).K.I.K.L.K.K.Y.<.T.L.P.P.L.R.R.R.u.R.T.K.K.L.H.x.p.f `.{.`.`.}.{.V.! #       ",
"      i M.( M.T T ! ( i | v.v.v.L.P.P.T.o./.K.H.L.L.L.L.K.9.!.T.I.R.K.R.R.P.k.^.L.K.H.L.K.G.k.h Q M.M.N.S.~ Q ! m       ",
"      i N.M.M.Q R R ! i o.G.H.K.T.L.P.K.o./.K.L.H.L.K.K.L.e.I.L.P.U.K.T.P.P.J.R.P.K.G.P.K.L.k.h {.~ ( N.S.) ! Q m       ",
"      m N.( M._.D.^ ! i o.v.G.K.I.K.T.P.o./.K.K.L.H.K.K.K.<.R.L.P.R.L.L.L.P.k.R.L.K.J.K.K.L.P.h |.W ( N.B.^ B.Q #       ",
"      i M.N.M.( r._.E m o.c.H.K.I.L.K.K.o.(.K.K.K.J.L.K.P.<.I.L.T.R.L.K.L.L.J.T.K.K.J.K.H.P.E.h XXQ ) ) N.) ) ! M       ",
"      i Q M.M.M._._ E m o.c.G.H.T.K.K.L. ./.K.H.H.H.L.K.K.<.I.K.L.T.T.L.L.H.J.Q.K.K.K.K.H.K.E.h oXN.) ) _ ( ! R #       ",
"      i Q T T E E / E m | x.c.v.Y.K.K.K.o./.H.H.H.H.K.H.L.<.I.K.L.P.T.K.L.H.k.T.G.G.v.K.H.K.).h {.( E R ! T T P M       ",
"      i P H H H H H H m o.G.v.v.P.K.K.K. ./.H.x.H.G.K.G.Y.x W.K.Y.L.P.K.L.H.J.T.G.G.v.K.v.P.).d J P P P P D D A i       ",
"      i i g i i m m m m ..G.K.K.L.K.K.n.o.E.n.c.G.G.K.G.K.o.W.H.H.H.P.H.K.K.i.P.c.G.G.K.G.K.).f i i i i i g i M i       ",
"            M '.|.[.( m ..G.K.v.L.v.K.G.x ~.H.c.c.v.G.v.H. .W.n.H.H.P.H.K.n.t.Y.c.c.v.v.v.H.~.f D.D.D./ I               ",
"            M D.[.D.( m  .G.H.K.K.K.G.K.x I.K.G.H.G.K.H.K.| T.v.v.H.K.H.L.G.9.L.z.c.c.v.v.v.).f oXN.! ! J               ",
"            M M.'.M.M.m  .G.H.K.K.K.G.P.o.I.G.v.H.v.K.H.K. .T.K.v.H.K.H.G.H.i.L.a.z.c.c.c.c.U.d XX! ( ) I               ",
"            M Q _ N.N.m o.G.n.K.L.K.n.K.o.!.G.G.K.v.H.G.K.4.Y.c.x.H.H.G.v.H.i.Y.a.q.5.5.5.y.U.h }.Q E ! I               ",
"            M W N._.Q m o.c.c.K.G.H.H.K.o.!.G.c.H.H.H.H.K.4.m.c.v.H.x.v.v.P.t.m.x.F.@X#X#X;.U.h `.Q I R I               ",
"            m ! r._ W i o.a.c.G.G.G.H.H.| I.H.c.n.G.K.K.n.<.Y.c.H.H.G.v.K.I.e.H.a.L E ]./ *.E.h S.R P I J               ",
"            M T R I I g o.G.G.c.H.n.G.G.a !.v.K.H.v.v.v.c.{ W.v.x.K.H.K.c.P.r.H.y.5 + +XB { I.d ! Q I T J               ",
"            m J P J N i o.v.K.v.G.n.G.K.x I.H.K.H.c.L.L.K.o.W.H.v.L.K.H.K.K.e.P.g.}./ OX#XB k.s J J J P F               ",
"      i S G H H H F S m | v.v.v.v.v.G.K.x ~.K.Y.H.n.K.H.K.3.W.G.G.H.K.K.L.K.e.L.> OX+ P I #X%.s D H H H F S P D N       ",
"      # B.^ ~ ) V.M.! i o.v.c.c.c.c.v.n.o.!.G.L.K.H.n.K.K.{ I.n.c.G.K.v.K.L.p.K.& Q N C @ OX3 8 .XR Q R W N.N.Q i       ",
"      # M.^ ^ M.) ) Q i | v.J.v.z.c.c.n.p !.G.K.K.H.H.H.n.a I.K.G.G.n.v.K.Y.e.K.& J / / @ OX1 8 {.T T ~ M.N.N.Q i       ",
"      # ) ) M.A.^ ~ Q # o.c.a.H.n.n.z.c.4 T.n.n.G.n.n.K.a.a T.n.c.G.G.v.n.n.9.n.; / 6._.A.G : 8 |.R T ! S.S.M.E m       ",
"      i N.( S.A.! W ! g | n.n.c.l.l.z.z.3 T.n.n.n.c.b.K.n.{ K.n.a.c.c.v.c.c.2.v.[ o O + + 2 @.7 XX) ! ) _.r.M.E i       ",
"      i D.( A.M.^ Q ! i o.z.b.z.l.a.a.a.* P.b.b.c.c.c.n.c.{ L.c.a.c.c.c.c.b.1.z.x = O o : x J.5 XX) A.B.N./ E M.V       ",
"      i M.( M.A.^ Q T i X.z.b.w.a.0.0.0.: P.l.l.z.n.a.b.a.x m.a.w.y.c.w.z.z.o.a.6.k.b.k.i.a.U.s {.) ) ^ _._ E E M       ",
"      i ) ) M.Q U T P i | z.z.j.0.w.0.5.* K.a.l.a.c.w.z.l.4 n.a.8.q.a.0.a.a.X.l.*.w.a.y.;.;.L.i Q M.N.~ ( ) ~ I i       ",
"      M I T T J P P P i | l.l.0.0.0.>.>.2 n.w.a.a.z.w.a.w.a b.0.5.5.w.0.0.0.X.w.&.5.5.&.;.*.L.7 N P P P P P N V i       ",
"            M R _ Q T i v >.>.,.>.>.-.-.: n.0.>.w.a.0.w.0.4 a.>.5.5.0.>.5.>.} 0.{ &.&.} { X.G.8 P Q ( / H               ",
"            M W Q M.) i u -.-.-.-.-.-.&.* a.0.>.0.>.>.0.>.a a.>.&.;.>.;.>.>.` 0.` &.[ ` [ ` a.s `.( Q ~ I               ",
"            m R / ) ) i u &.-.&.-.@.-.@.* b.-.,.>.,.>.0.;.4 a.;.;.;.-.,.>.;.{ >.` ` z t ` ` a.8 oX( ! Q P               ",
"            M ( ( ! ) i w O.@.O.@.O.@.' * 0.&.&.-.#.,.>.-.4 >.@.@.&.@.@.@.@.z ,.t ` t z a ` 8.d oXQ ) ~ I               ",
"            M ) ~ ! ) i 4 ` ` ` O.` ` ` * >.' @.@.' -.@.#.w 0.' [ ' ` [ ` @.4 @.4 r ` t t t ;.$ `.Q ! ! R               ",
"            M ) ! ! ) 7 2 v ` ` ' ` y t & ,.' ' ' @.&.@.@.2 ,.` ` v ` ` ` ' 4 @.4 r t t t r &.$ D.Q ~ ( !               ",
"            M ~ R R Y i 0 u r u v u r r X #.v ` ` ' O.' ' 4 ,.y y r y v u ` 2 ` w w u u r q @.7 ~ Q M.A.Q               ",
"            m R Y Y Y i 2 r w r y u q w . #.u y y v +.v ` 2 #.r u r r y w y ; ` w w w w w q [ 8 Q ~ ) D.Q               ",
"            i D D D V M 2 r w w r r 0 r . +.r r u r v r y 0 +.w r w w r q u ; y 0 0 2 q 2 2 r @ D D D D S               ",
"                                                                                                                        ",
"                                                                                                                        ",
"                                                                                                                        ",
"                                                                                                                        ",
"                                                                                                                        ",
"                                                                                                                        ",
"                                                                                                                        "
};
