/* XPM */
static char *result[] = {
/* columns rows colors chars-per-pixel */
"48 75 94 2 ",
"   c black",
".  c #060402",
"X  c #070403",
"o  c #090604",
"O  c #160E09",
"+  c #1D120B",
"@  c gray9",
"#  c #17181A",
"$  c #181818",
"%  c #21110D",
"&  c #2E1D11",
"*  c #301D11",
"=  c #342013",
"-  c #372214",
";  c #392214",
":  c #382315",
">  c #392315",
",  c #3F2616",
"<  c #3F2617",
"1  c #3E2717",
"2  c #3F2717",
"3  c #3F2618",
"4  c #202123",
"5  c #202124",
"6  c #313337",
"7  c #402717",
"8  c #422918",
"9  c #402B1A",
"0  c #412B1A",
"q  c #402B1B",
"w  c #442A19",
"e  c #452C1A",
"r  c #462C1A",
"t  c #472D1B",
"y  c #4C311F",
"u  c #4D321E",
"i  c #4E341F",
"p  c #4F341F",
"a  c #50341F",
"s  c #503520",
"d  c #513520",
"f  c #513521",
"g  c #543723",
"h  c #543822",
"j  c #553822",
"k  c #563923",
"l  c #563A23",
"z  c #573A23",
"x  c #563924",
"c  c #5B3C28",
"v  c #65442F",
"b  c #6C4A31",
"n  c #724E37",
"m  c #393C4D",
"M  c #183671",
"N  c #374159",
"B  c #7F5840",
"V  c #7E6B59",
"C  c #7B7B7B",
"Z  c gray49",
"A  c #7E7E7E",
"S  c #8B6248",
"D  c #9E7054",
"F  c #AC7B5D",
"G  c #8F806B",
"H  c #90806B",
"J  c #90816B",
"K  c #B59274",
"L  c #1D428A",
"P  c #2F5A99",
"I  c #275DA6",
"U  c #3667AE",
"Y  c #2B65B5",
"T  c #73778C",
"R  c #787E97",
"E  c #7F828C",
"W  c #80828C",
"Q  c #80828D",
"!  c #80838D",
"~  c #80828E",
"^  c #80838E",
"/  c #81838E",
"(  c #80838F",
")  c #81848F",
"_  c #848698",
"`  c #878CA1",
"'  c #A5A4AE",
"]  c #A4A8B5",
"[  c #C0AC8F",
"{  c #D9D9DB",
"}  c #E6E6E6",
"|  c gray92",
" . c #ECECEC",
".. c None",
/* pixels */
"................................................................................................",
"................................................................................................",
"................................................................................................",
"................................................................................................",
"..............                          ......            ......................................",
"..............                          ......            ......................................",
"..............                          ......            ......................................",
"..............      X o o o o o o . . . ......o o o       C ....................................",
"..............      0 z z z z z z 7 7 7       z z z                     ........................",
"..............      0 z z z z z z 7 7 7       z z z                     ........................",
"..............      q z z z z z z 7 7 7       z z z                     ........................",
"..............            O z z z z z z 7 7 7 z z z 7 7 7 u z z z z z z       ..................",
"..............            O z z z z z z 7 7 7 z z z 7 7 7 u z z z z z z       ..................",
"..............            O z z z z z z 7 7 7 z z z 7 7 7 u z z z z z z       ..................",
"........      7 7 7 d z z z z z z z z z z z z z z z z z z z z z z z z z z z z       ............",
"........      2 7 7 d z z z z z z z z z z z z z z z z z z z z z z z z z z z z       ............",
"........      1 2 2 d z z z z z z z z z z z z z z z z z z z z z z z z z z z z       ............",
"..@ $ $ ; > : h j g l z z z z z z z z z z z z z z z z z z z z z z z z z z z z i i i $ $ $ ......",
"..      3 1 2 z x z l z z z z z z z z z z z z z z z z z z z z z z z z z z z z z z z       ......",
"..      3 1 2 x z l x z z z z z z z z z z z z z z z z z z z z z z z z z z z z z z z       ......",
"..      1 7 2 x l l z z z z z z z z z z z z z z z z z z z z z z z z z z z z z z z z       ......",
"..      1 3 7 z x l z z z d 7 7 7 z z z z z z z z z 7 7 7 7 7 7 8 z z z z z z z z z       ......",
"..      7 < 2 l l l l z z d 7 7 7 z z z z z z z z z 7 7 7 7 7 7 8 z z z z z z z z z       ......",
"..      7 < 3 x x l z z z d 7 7 7 z z z z z z z z z 7 7 7 7 7 7 8 z z z z z z z z z       ......",
"..      < 3 7 2 7 7 7 7 7 7 7 7 7 z z z z z z z z z 7 7 7 B F F F F F F 7 7 7 z z z 7 7 7       ",
"..      , 3 2 2 7 2 2 7 7 7 7 7 7 z z z z z z z z z 7 7 7 B F F F F F F 7 7 7 z z z 7 7 7       ",
"..      2 7 1 2 1 7 7 7 7 7 7 7 7 z z z z z z z z z 7 7 7 B F F F F F F 7 7 7 z z z 7 7 7       ",
"..      1 1 2 p p a w 7 7 7 7 7 7 z z z z z z t t t S S S D F F F F F F S S S t t t 7 7 7       ",
"..      3 1 1 x z z r 7 7 7 7 7 7 z z z z z z 7 7 7 F F F F F F F F F F F F F 7 7 7 7 7 7       ",
"..      3 7 2 x z z e 7 7 7 7 7 7 z z z z z z 7 7 7 F F F F F F F F F F F F F 7 7 7 7 7 7       ",
"..      1 2 2 k z z e 7 7 7 7 7 7 z z z z z z 7 7 7 F F F F F F F F F F F F F 7 7 7 7 7 7       ",
"..      , 3 7 z l x z z z b F F F 7 7 7 z z z F F F % % % V [ [ [ [ [ [ % % %       7 7 7       ",
"..      , 2 7 x z z z z z b F F F 7 7 7 z z z F F F % % % V [ [ [ [ [ [ % % %       7 7 7       ",
"..      2 3 2 z z z x z z b F F F 7 7 7 z z z F F F % % % V [ [ [ [ [ [ % % %       7 7 7       ",
"..      2 3 2 2 7 7 s z z b F F F F F F 7 7 7 [ [ [ % % % V [ [ [ [ [ [ % % %             ......",
"..      3 1 7 2 7 1 d z z b F F F F F F 7 7 7 [ [ [ % % % V [ [ [ [ [ [ % % %             ......",
"..      2 1 2 3 7 1 f z z b F F F F F F 7 7 7 [ [ [ % % % V [ [ [ [ [ [ % % %             ......",
"........      2 2 7 7 7 7 c F F F F F F [ [ [ [ [ [ [ [ [ [ [ [ [ [ [ [ [ [ [       ............",
"........      7 7 7 7 7 7 c F F F F F F [ [ [ [ [ [ [ [ [ [ [ [ [ [ [ [ [ [ [       ............",
"........      7 7 7 7 7 7 c F F F F F F [ [ [ [ [ [ [ [ [ [ [ [ [ [ [ [ [ [ [       ............",
"........Z A A + + + - 7 7 y n n n n n n K K K [ [ [ [ [ [ [ [ [ [ [ [ [ K K K       ............",
"..............      * 7 7 7 7 7 7 7 7 7 F F F [ [ [ [ [ [ [ [ [ [ [ [ [ F F F       ............",
"..............      * 7 7 7 7 7 7 7 7 7 F F F [ [ [ [ [ [ [ [ [ [ [ [ [ F F F       ............",
"..............      * 7 7 7 7 7 7 7 7 7 F F F [ [ [ [ [ [ [ [ [ [ [ [ [ F F F       ............",
"..............      * 7 7 r z z z z z z 7 7 7 F F F F F F F F F F F F F       ..................",
"..............      & 7 7 r z z z z z z 7 7 7 F F F F F F F F F F F F F       ..................",
"..............      * 7 7 r z z z z z z 7 7 7 F F F F F F F F F F F F F       ..................",
"..............      0 z z z z z z z z z 7 7 7 R R R R R R R R R T 7 7 7       ..................",
"..............      9 z z z z z z z z z 7 7 7 R R R R R R R R R T 7 7 7       ..................",
"..............      0 z z z z z z z z z 7 7 7 R R R R R R R R R T 7 7 7       ..................",
"..............      0 z z z z z z p p p 7 7 7 R R R ` ` ` ` ` ` _ v v v       ..................",
"..............      0 z z z z z z 7 7 7 7 7 7 R R R ] ] ] ] ] ] ' F F F       ..................",
"..............      0 z z z z z z 7 7 7 7 7 7 R R R ] ] ] ] ] ] ' F F F       ..................",
"..............      0 z z z z z z 7 7 7 7 7 7 R R R ] ] ] ] ] ] ' F F F       ..................",
"..............      J [ [ [ [ [ [ 7 7 7 Y Y Y Y Y Y Y Y Y Y Y Y U F F F       ..................",
"..............      J [ [ [ [ [ [ 7 7 7 Y Y Y Y Y Y Y Y Y Y Y Y U F F F       ..................",
"..............      G [ [ [ [ [ [ 7 7 7 Y Y Y Y Y Y Y Y Y Y Y Y U F F F       ..................",
"..............      J [ [ [ [ [ [ L L L Y Y Y Y Y Y Y Y Y Y Y Y I       ........................",
"..............      J [ [ [ [ [ [ L L L Y Y Y Y Y Y Y Y Y Y Y Y I       ........................",
"..............      H [ [ [ [ [ [ L L L Y Y Y Y Y Y Y Y Y Y Y Y I       .......... . ...........",
"..............) ^ ) 5                   7 7 7 L L L Y Y Y N 7 7 7 7 7 7       ) ) )  ...........",
"..............^ ^ Q 4                   7 7 7 L L L Y Y Y N 7 7 7 7 7 7       ) ) )  ...........",
"..............Q ^ ^ 5                   7 7 7 L L L Y Y Y N 7 7 7 7 7 7       ) ) )  ...........",
"..............^ ) ) 6 # # # # # #       = = = M M M P P P m 7 7 7 7 7 7       ) ) ) { { {  .....",
"........Q Q ! ^ ) ) ^ ) ) ) ) ) )                   7 7 7 7 7 7 7 7 7 7       ) ) ) ) ) )  .....",
"........Q Q ^ ^ ( ) ^ ) ) ) ) ) )                   7 7 7 7 7 7 7 7 7 7       ) ) ) ) ) )  .....",
"........E ^ ^ ^ ) ) ) ) ) ) ) ) )                   7 7 7 7 7 7 7 7 7 7       ) ) ) ) ) )  .....",
"........~ Q ^ / ^ ^ ^ ) ) ) ) ) ) ) ) ) ) ) ) ) ) ) ) ) ) ) ) ) ) ) ) ) ) ) ) ) ) ) ) ) )  .....",
"........Q Q ^ ^ ^ ^ / ) ) ) ) ) ) ) ) ) ) ) ) ) ) ) ) ) ) ) ) ) ) ) ) ) ) ) ) ) ) ) ) ) )  .....",
"........W Q ^ ^ ) ^ ^ ) ) ) ) ) ) ) ) ) ) ) ) ) ) ) ) ) ) ) ) ) ) ) ) ) ) ) ) ) ) ) ) ) )  .....",
"..............Q ) ^ ) ) ) ) ) ) ) ) ) ) ) ) ) ) ) ) ) ) ) ) ) ) ) ) ) ) ) ) ) ) ) ) } } }  .....",
"..............Q ^ ^ ^ ) ) ) ) ) ) ) ) ) ) ) ) ) ) ) ) ) ) ) ) ) ) ) ) ) ) ) ) ) ) )  ...........",
"............../ ^ ^ ) ) ) ) ) ) ) ) ) ) ) ) ) ) ) ) ) ) ) ) ) ) ) ) ) ) ) ) ) ) ) )  ...........",
"..............) ) ^ ) ) ) ) ) ) ) ) ) ) ) ) ) ) ) ) ) ) ) ) ) ) ) ) ) ) ) ) ) ) ) )  ...........",
"..................| |  . . . . . . . . . ............................... . . . . . ............."
};
