/* XPM */
static char *result[] = {
/* columns rows colors chars-per-pixel */
"48 75 63 1 ",
"  c black",
". c #080503",
"X c #0B0704",
"o c #0E0905",
"O c #100A06",
"+ c #1B100A",
"@ c #131313",
"# c #1C1714",
"$ c #1C1D1F",
"% c #21110D",
"& c #25170D",
"* c #24180F",
"= c #3B2415",
"- c #292424",
"; c gray23",
": c #402717",
"> c #412818",
", c #422918",
"< c #412B1A",
"1 c #442A19",
"2 c #452B1A",
"3 c #462C1A",
"4 c #4A2F1C",
"5 c #4D321E",
"6 c #493427",
"7 c #513520",
"8 c #523620",
"9 c #523621",
"0 c #573A23",
"q c #5B3C28",
"w c #4E3B31",
"e c #7B553B",
"r c #706D7A",
"t c #757472",
"y c #896049",
"u c #94694E",
"i c #976B4E",
"p c #AC7B5D",
"a c #957D66",
"s c #9E8469",
"d c #98856E",
"f c #A68164",
"g c #A08B71",
"h c #B49072",
"j c #1D428A",
"k c #30558D",
"l c #2556A3",
"z c #275CAA",
"x c #2B65B5",
"c c #787E97",
"v c #5077AB",
"b c #81848F",
"n c #888888",
"m c #898989",
"M c #8A8C97",
"N c #83889E",
"B c #BBA082",
"V c #BCA184",
"C c #A4A8B5",
"Z c #C0AC8F",
"A c #BFC0C5",
"S c #ECECEC",
"D c None",
/* pixels */
"DDDDDDDDDDDDDDDDDDDDDDDDDDDDDDDDDDDDDDDDDDDDDDDD",
"DDDDDDDDDDDDDDDDDDDDDDDDDDDDDDDDDDDDDDDDDDDDDDDD",
"DDDDDDDDDDDDDDDDDDDDDDDDDDDDDDDDDDDDDDDDDDDDDDDD",
"DDDDDDDDDDDDDDDDDDDDDDDDDDDDDDDDDDDDDDDDDDDDDDDD",
"DDDDDDD            DDD;      DDDDDDDDDDDDDDDDDDD",
"DDDDDDD            DDD;      DDDDDDDDDDDDDDDDDDD",
"DDDDDDD            DDD;      DDDDDDDDDDDDDDDDDDD",
"DDDDDDD   000000:::   <00<         DDDDDDDDDDDDD",
"DDDDDDD   000000:::   <00<         DDDDDDDDDDDDD",
"DDDDDDD   000000:::   <00<         DDDDDDDDDDDDD",
"DDDDDDD      000000:::7007:::000000   DDDDDDDDDD",
"DDDDDDD      000000:::7007:::000000   DDDDDDDDDD",
"DDDDDDD      000000:::7007:::000000   DDDDDDDDDD",
"DDDDDDtXXXOOO0000001119009111000000OOODDDDDDDDDD",
"DDD@  +:::0000000000000000000000000000   DDDDDDD",
"DDD@  +:::0000000000000000000000000000   DDDDDDD",
"DDD@  +:::0000000000000000000000000000   DDDDDDD",
"   =::40000000000000000000000000000000000*  @DDD",
"   =::40000000000000000000000000000000000*  @DDD",
"   =::40000000000000000000000000000000000*  @DDD",
"   =::4000000>>>0000000008>>>>>>000000000*  @DDD",
"   =::4000000:::0000000007::::::000000000*  @DDD",
"   =::4000000:::0000000007::::::000000000*  @DDD",
"   =::4000000:::0000000007::::::000000000*  @DDD",
"   =::::::::::::0000000007:::pppppp:::0004::=   ",
"   =::::::::::::0000000007:::pppppp:::0004::=   ",
"   =::::::::::::0000000007:::pppppp:::0004::=   ",
"   =::4000::::::0000003::qpppppppppppp::::::=   ",
"   =::4000::::::0000003::qpppppppppppp::::::=   ",
"   =::4000::::::0000003::qpppppppppppp::::::=   ",
"   =::4000000ppp:::000ippy%%%ZZZZZZ%%%   &::=   ",
"   =::4000000ppp:::000ippy%%%ZZZZZZ%%%   &::=   ",
"   =::4000000ppp:::000ippy%%%ZZZZZZ%%%   &::=   ",
"   =::,222000pppuuu222sVVa%%%ZZZZZZ%%%   .oo#DDD",
"   =::::::000pppppp:::gZZd%%%ZZZZZZ%%%      @DDD",
"   =::::::000pppppp:::gZZd%%%ZZZZZZ%%%      @DDD",
"   =::::::000pppppp:::gZZd%%%ZZZZZZ%%%      @DDD",
"DDD@  +::::::ppppppZZZZZZZZZZZZZZZZZZZ   mDDDDDD",
"DDD@  +::::::ppppppZZZZZZZZZZZZZZZZZZZ   mDDDDDD",
"DDD@  +::::::ppppppZZZZZZZZZZZZZZZZZZZ   mDDDDDD",
"DDDDDDm   :::::::::pppBZZZZZZZZZZZZppp   DDDDDDD",
"DDDDDDm   :::::::::pppBZZZZZZZZZZZZppp   DDDDDDD",
"DDDDDDD   :::::::::pppBZZZZZZZZZZZZppp   DDDDDDD",
"DDDDDDDDnn+++:::555eeefhhhhhhhhhhhh666DDDDDDDDDD",
"DDDDDDDDDD   :::000000ipppppppppppp   DDDDDDDDDD",
"DDDDDDDDDD   :::000000ipppppppppppp   DDDDDDDDDD",
"DDDDDDDDDD   :::000000ipppppppppppp   DDDDDDDDDD",
"DDDDDDDDDD   000000000rccccccccc   DDDDDDDDDDDDD",
"DDDDDDDDDD   000000000rccccccccc   DDDDDDDDDDDDD",
"DDDDDDDDDD   000000000rccccccccc   DDDDDDDDDDDDD",
"DDDDDDDDDD   000000000rccNCCCCCC   DDDDDDDDDDDDD",
"DDDDDDDDDD   000000000rccNCCCCCC   DDDDDDDDDDDDD",
"DDDDDDDDDD   000000000rccNCCCCCC   DDDDDDDDDDDDD",
"DDDDDDDDDDDDD   ZZZZZZvxxxxxxxxx   DDDDDDDDDDDDD",
"DDDDDDDDDDDDD   ZZZZZZvxxxxxxxxx   DDDDDDDDDDDDD",
"DDDDDDDDDDDDD   ZZZZZZvxxxxxxxxx   DDDDDDDDDDDDD",
"DDDDDDDDDDDDD   ZZZZZZvxxxxxxlll   DDDDDDDDDDDDD",
"DDDDDDDDDDDDD   ZZZZZZvxxxxxxjjj   DDDDDDDDDDDDD",
"DDDDDDDDDDDDD   ZZZZZZvxxxxxxjjj   DDDDDDDDDDDDD",
"DDDDDDDDSSSSD   ZZZZZZvxxxxxxjjj   DDDDDDDDDDDDD",
"DDDDDDAbbbbbb      :::kxxzjjjjjj   bbbbbbASDDDDD",
"DDDDDSAbbbbbb      :::kxxzjjjjjj   bbbbbbASDDDDD",
"DDDDSSAbbbbbb      :::kxxzjjjjjj   bbbbbbASSSDDD",
"DDSMbbbbbbbbb            O::::::   bbbbbbbbbMSDD",
"DDSMbbbbbbbbb            O::::::   bbbbbbbbbMSDD",
"DDSMbbbbbbbbb            O::::::   bbbbbbbbbMSDD",
"DDSMbbbbbbbbb$$$$$$$$$$$$-wwwwww$$$bbbbbbbbbMSDD",
"DDSMbbbbbbbbbbbbbbbbbbbbbbbbbbbbbbbbbbbbbbbbMSDD",
"DDSMbbbbbbbbbbbbbbbbbbbbbbbbbbbbbbbbbbbbbbbbMSDD",
"DDSMbbbbbbbbbbbbbbbbbbbbbbbbbbbbbbbbbbbbbbbbMSDD",
"DDSSSSAbbbbbbbbbbbbbbbbbbbbbbbbbbbbbbbbbbASSSSDD",
"DDDDDDDbbbbbbbbbbbbbbbbbbbbbbbbbbbbbbbbbbADDDDDD",
"DDDDDDDDbbbbbbbbbbbbbbbbbbbbbbbbbbbbbbbbbDDDDDDD",
"DDDDDDDDDDDDDDDDDDDDDSSSSSSSSSSSSSSSSSDDDDDDDDDD",
"DDDDDDDDDDDDDDDDDDDDDDDDDDDDDDDDDDDDDDDDDDDDDDDD"
};
