/* XPM */
static char *result[] = {
/* columns rows colors chars-per-pixel */
"48 75 63 1 ",
"  c black",
". c #040202",
"X c #080503",
"o c #0B0704",
"O c #0A0807",
"+ c #0F0905",
"@ c #090909",
"# c #110B06",
"$ c #140E08",
"% c #170E08",
"& c #150F0C",
"* c #180F09",
"= c #101012",
"- c #181512",
"; c #1D1D1D",
": c #21110D",
"> c #21160D",
", c #28190F",
"< c #2D1B10",
"1 c #0B1934",
"2 c #2F3035",
"3 c #402717",
"4 c #452B1A",
"5 c #432C1B",
"6 c #492E1B",
"7 c #4A321E",
"8 c #4C331F",
"9 c #4E331E",
"0 c #50341F",
"q c #4D3120",
"w c #543821",
"e c #573A23",
"r c #514034",
"t c #5D4B3E",
"y c #684631",
"u c #664F3B",
"i c #734F36",
"p c #765238",
"a c #775239",
"s c #102644",
"d c #122A57",
"f c #16336A",
"g c #2A3860",
"h c gray28",
"j c #585858",
"k c #7B6856",
"l c #AC7B5D",
"z c #1D428A",
"x c #2658A5",
"c c #2B65B5",
"v c #787E97",
"b c #8B7D82",
"n c #868484",
"m c #81848F",
"M c #8A8D97",
"N c #8E919B",
"B c #959595",
"V c #A0A0A0",
"C c #A4A8B5",
"Z c #C0AC8F",
"A c #CCCDD0",
"S c #ECECEC",
"D c None",
/* pixels */
"DDDDDDDDDDDDDDDDDDDDDDDDDDDDDDDDDDDDDDDDDDDDDDDD",
"DDDDDDDDDDDDDDDDDDDDDDDDDDDDDDDDDDDDDDDDDDDDDDDD",
"DDDDDD             DDD      jDDDDDDDDDDDDDDDDDDD",
"DDDDDD             DDD      jDDDDDDDDDDDDDDDDDDD",
"DDDDDD             DDD      jDDDDDDDDDDDDDDDDDDD",
"DDDDDD   eeeeeee333   eee          DDDDDDDDDDDDD",
"DDDDDD   eeeeeee333   eee          DDDDDDDDDDDDD",
"DDDDDD   eeeeeee333   eee          DDDDDDDDDDDDD",
"DDDDDD   5557eee444+++eee+++#$$$$$$DDDDDDDDDDDDD",
"DDDDDD      >eeeeee333eee3336eeeeee   DDDDDDDDDD",
"DDDDDD      >eeeeee333eee3336eeeeee   DDDDDDDDDD",
"DDDDDD      >eeeeee333eee3336eeeeee   DDDDDDDDDD",
"DDD   333eeeeeeeeeeeeeeeeeeeeeeeeeeeeeo  ;DDDDDD",
"DDD   333eeeeeeeeeeeeeeeeeeeeeeeeeeeeeo  ;DDDDDD",
"DDD   333eeeeeeeeeeeeeeeeeeeeeeeeeeeeeo  ;DDDDDD",
"   333eeeeeeeeeeeeeeeeeeeeeeeeeeeeeeeeeee8   DDD",
"   333eeeeeeeeeeeeeeeeeeeeeeeeeeeeeeeeeee8   DDD",
"   333eeeeeeeeeeeeeeeeeeeeeeeeeeeeeeeeeee8   DDD",
"   333eeeeee9333eeeeeeeee3333333eeeeeeeee8   DDD",
"   333eeeeee9333eeeeeeeee3333333eeeeeeeee8   DDD",
"   333eeeeee9333eeeeeeeee3333333eeeeeeeee8   DDD",
"   333eeeeee9333eeeeeeeee3333333eeeeeeeee8   DDD",
"   3333333333333eeeeeeeee333yllllll333weew333   ",
"   3333333333333eeeeeeeee333yllllll333weew333   ",
"   3333333333333eeeeeeeee333yllllll333weew333   ",
"   333eee3333333eeeeee333lllllllllllllq333333   ",
"   333eee3333333eeeeee333lllllllllllllq333333   ",
"   333eee3333333eeeeee333lllllllllllllq333333   ",
"   333eeeeeealll333eeelll:::tZZZZZZ:::.  X333   ",
"   333eeeeeealll333eeelll:::tZZZZZZ:::.  X333   ",
"   333eeeeeealll333eeelll:::tZZZZZZ:::.  X333   ",
"   333333eeeallllll333ZZZ:::tZZZZZZ:::.      DDD",
"   333333eeeallllll333ZZZ:::tZZZZZZ:::.      DDD",
"   333333eeeallllll333ZZZ:::tZZZZZZ:::.      DDD",
"hhh<<<333000illlllluuuZZZrrrkZZZZZZrrrO  @hhhDDD",
"DDD   333333yllllllZZZZZZZZZZZZZZZZZZZ-  ;DDDDDD",
"DDD   333333yllllllZZZZZZZZZZZZZZZZZZZ-  ;DDDDDD",
"DDD   333333yllllllZZZZZZZZZZZZZZZZZZZ-  ;DDDDDD",
"DDDDDD   3333333333lllZZZZZZZZZZZZZlll&  ;DDDDDD",
"DDDDDD   3333333333lllZZZZZZZZZZZZZlll&  ;DDDDDD",
"DDDDDD   3333333333lllZZZZZZZZZZZZZlll&  ;DDDDDD",
"DDDDDDDDD   *333eeeeeelllllllllllll   DDDDDDDDDD",
"DDDDDDDDD   *333eeeeeelllllllllllll   DDDDDDDDDD",
"DDDDDDDDD   *333eeeeeelllllllllllll   DDDDDDDDDD",
"DDDDDDDDD   *333eeeeeepppbbbbbbbyyy   DDDDDDDDDD",
"DDDDDDDDD   *333eeeeeeeeevvvvvvv333   DDDDDDDDDD",
"DDDDDDDDD   *333eeeeeeeeevvvvvvv333   DDDDDDDDDD",
"DDDDDDDDD   *333eeeeeeeeevvvvvvv333   DDDDDDDDDD",
"DDDDDDDDD   *333eeeZZZZZZCCCCCCC333   DDDDDDDDDD",
"DDDDDDDDD   *333eeeZZZZZZCCCCCCC333   DDDDDDDDDD",
"DDDDDDDDD   *333eeeZZZZZZCCCCCCC333   DDDDDDDDDD",
"DDDDDDDDD   sccc333ZZZZZZccccccczzz   DDDDDDDDDD",
"DDDDDDDDD   sccc333ZZZZZZccccccczzz   DDDDDDDDDD",
"DDDDDDDDD   sccc333ZZZZZZccccccczzz   DDDDDDDDDD",
"DDDDDD   3333333ccccccccccccxzzzzzz   DDDDDDDDDD",
"DDDDDD   3333333ccccccccccccxzzzzzz   DDDDDDDDDD",
"DDDDDD   3333333ccccccccccccxzzzzzz   DDDDDDDDDD",
"DDDDDD   3333333         zzzzzzzzzz   DDDDDDDDDD",
"DDDDDD   3333333         zzzzzzzzzz   DDDDDDDDDD",
"DDDDDD   3333333         zzzzzzzzzz   DDDDDDDDDD",
"DDDDDD   ,,,,,,,222222222dddfzzzggg%%%nBBVDDDDDD",
"DDDDDD          mmmmmmmmm   1zzz333333X  ;DDDDDD",
"DDDDDD          mmmmmmmmm   1zzz333333X  ;DDDDDD",
"DDDDDD          mmmmmmmmm   1zzz333333X  ;SSDDDD",
"DDDmmmmmmmmmmmmmmmmmmmmmm   *333333333X  =mmmSDD",
"DDDmmmmmmmmmmmmmmmmmmmmmm   *333333333X  =mmmSDD",
"DDSmmmmmmmmmmmmmmmmmmmmmm   *333333333X  =mmmSDD",
"DDSmmmmmmmmmmmmmmmmmmmmmmmmmmmmmmmmmmmmmmmmmmSDD",
"DDSmmmmmmmmmmmmmmmmmmmmmmmmmmmmmmmmmmmmmmmmmmSDD",
"DDSmmmmmmmmmmmmmmmmmmmmmmmmmmmmmmmmmmmmmmmmmmSDD",
"DDDDAAmmmmmmmmmmmmmmmmmmmmmmmmmmmmmmmmmmmMAAASDD",
"DDDDDDmmmmmmmmmmmmmmmmmmmmmmmmmmmmmmmmmmmNDDDDDD",
"DDDDDDmmmmmmmmmmmmmmmmmmmmmmmmmmmmmmmmmmmNDDDDDD",
"DDDDDDmmmmmmmmmmmmmmmmmmmmmmmmmmmmmmmmmmmNDDDDDD",
"DDDDDDDDDDSSSSSSSSSSSSSSDDDDDDDDDDDDDDDDDDDDDDDD"
};
