/* XPM */
static char *result[] = {
/* columns rows colors chars-per-pixel */
"48 75 53 1 ",
"  c black",
". c #020101",
"X c #060403",
"o c #180F09",
"O c #181818",
"+ c #20130B",
"@ c #21110D",
"# c #24160D",
"$ c #28180E",
"% c #362416",
"& c #392315",
"* c #402717",
"= c #442A19",
"- c #492E1B",
"; c #4A2F1C",
": c #4D321E",
"> c #4E321E",
", c #4E331E",
"< c #4E341F",
"1 c #553822",
"2 c #563923",
"3 c #573A23",
"4 c #5A3B27",
"5 c #5D4B3E",
"6 c #684631",
"7 c #6F4B35",
"8 c #704D3A",
"9 c #15325A",
"0 c #2E3450",
"q c #2A385F",
"w c #354666",
"e c #585858",
"r c #786B59",
"t c #676767",
"y c #767676",
"u c #8A664F",
"i c #9A6D51",
"p c #AC7B5D",
"a c #AD7D5F",
"s c #807E7B",
"d c #A37C67",
"f c #B59073",
"g c #1D428A",
"h c #224F9A",
"j c #2B65B5",
"k c #787E97",
"l c #81848F",
"z c #88919D",
"x c #A4A8B5",
"c c #A9ABB2",
"v c #C0AC8F",
"b c #ECECEC",
"n c None",
/* pixels */
"nnnnnnnnnnnnnnnnnnnnnnnnnnnnnnnnnnnnnnnnnnnnnnnn",
"nnnnnn             nnn      ennnnnnnnnnnnnnnnnnn",
"nnnnnn             nnn      ennnnnnnnnnnnnnnnnnn",
"nnnnnn             nnn      ennnnnnnnnnnnnnnnnnn",
"nnnnnn   333333-***   333          nnnnnnnnnnnnn",
"nnnnnn   333333-***   333          nnnnnnnnnnnnn",
"nnnnnn   333333-***   333          nnnnnnnnnnnnn",
"nnnnnn      3333333***333***-333333   nnnnnnnnnn",
"nnnnnn      3333333***333***-333333   nnnnnnnnnn",
"nnnnnn      3333333***333***-333333   nnnnnnnnnn",
"nnn   ***33333333333333333333333333333   nnnnnnn",
"nnn   ***33333333333333333333333333333   nnnnnnn",
"nnn   ***33333333333333333333333333333   nnnnnnn",
"OOO&&&11133333333333333333333333333333<<<OOOtnnn",
"   ***33333333333333333333333333333333333   ennn",
"   ***33333333333333333333333333333333333   ennn",
"   ***33333311123333333331111111333333333   ennn",
"   ***333333***,333333333*******333333333   ennn",
"   ***333333***,333333333*******333333333   ennn",
"   ***333333***,333333333*******333333333   ennn",
"   ************,333333333***6pppppp***333***$   ",
"   ************,333333333***6pppppp***333***$   ",
"   ************,333333333***6pppppp***333***$   ",
"   ***333******,333333***ppppppppppppp******$   ",
"   ***333******,333333***ppppppppppppp******$   ",
"   ***333******,333333***ppppppppppppp******$   ",
"   ***333;;;7774:::333777888uffffff888###***$   ",
"   ***333333ppp6***333ppp@@@5vvvvvv@@@   ***$   ",
"   ***333333ppp6***333ppp@@@5vvvvvv@@@   ***$   ",
"   ***333333ppp6***333ppp@@@5vvvvvv@@@   ***$   ",
"   ******333ppppppp***vvv@@@5vvvvvv@@@      ennn",
"   ******333ppppppp***vvv@@@5vvvvvv@@@      ennn",
"   ******333ppppppp***vvv@@@5vvvvvv@@@      ennn",
"nnn   ******pppppppvvvvvvvvvvvvvvvvvvv   nnnnnnn",
"nnn   ******pppppppvvvvvvvvvvvvvvvvvvv   nnnnnnn",
"nnn   ******pppppppvvvvvvvvvvvvvvvvvvv   nnnnnnn",
"nnnnnn   **********pppvvvvvvvvvvvvvppp   nnnnnnn",
"nnnnnn   **********pppvvvvvvvvvvvvvppp   nnnnnnn",
"nnnnnn   **********pppvvvvvvvvvvvvvppp   nnnnnnn",
"nnnnnnnnn...***>222===aaaaaaaaaaaaaXXXnnnnnnnnnn",
"nnnnnnnnn   ***,333***ppppppppppppp   nnnnnnnnnn",
"nnnnnnnnn   ***,333***ppppppppppppp   nnnnnnnnnn",
"nnnnnnnnn   ***,333===iiidddddddiii   nnnnnnnnnn",
"nnnnnnnnn   ***,333333***kkkkkkk***   nnnnnnnnnn",
"nnnnnnnnn   ***,333333***kkkkkkk***   nnnnnnnnnn",
"nnnnnnnnn   ***,333333***kkkkkkk***   nnnnnnnnnn",
"nnnnnnnnnnnn   %333333***xxxxxxx***   nnnnnnnnnn",
"nnnnnnnnnnnn   %333333***xxxxxxx***   nnnnnnnnnn",
"nnnnnnnnnnnn   %333333***xxxxxxx***   nnnnnnnnnn",
"nnnnnnnnnnnn   rvvvvvv***jjjjjjjjjj   nnnnnnnnnn",
"nnnnnnnnnnnn   rvvvvvv***jjjjjjjjjj   nnnnnnnnnn",
"nnnnnnnnnnnn   rvvvvvv***jjjjjjjjjj   nnnnnnnnnn",
"nnnnnnnnnyyy999svvvvvv000jjjjjjjwww+++yyynnnnnnn",
"nnnnnnnnn   jjjzvvvvvvgggjjjjjjj******   nnnnnnn",
"nnnnnnnnn   jjjzvvvvvvgggjjjjjjj******   nnnnnnn",
"nnnnnnnnn   jjjzvvvvvvgggjjjjjjj******   nnnnnnn",
"nnnnnnnnn   jjjjjjjggg      o*********   nnnnnnn",
"nnnnnnnnn   jjjjjjjggg      o*********   nnnnnnn",
"nnnnnnnnn   jjjjjjjggg      o*********   nnnnnnn",
"nnnnnn   jjjjjjhggg   nnn             nnnnnnnnnn",
"nnnnnn   jjjjjjhggg   nnn             nnnnnnnnnn",
"nnnnnn   jjjjjjhggg   nnn             nnnnnnnnnn",
"nnnnnn   ******qggg   lllllllllllllllllllbnnnnnn",
"nnnnnn   ******qggg   lllllllllllllllllllbnnnnnn",
"nnnnnn   ******qggg   lllllllllllllllllllbbbbnnn",
"nnnlll   ******o   lllllllllllllllllllllllllcbnn",
"nnblll   ******o   lllllllllllllllllllllllllcbnn",
"nnblll   ******o   lllllllllllllllllllllllllcbnn",
"nnblll   ******o   lllllllllllllllllllllllllcbnn",
"nnblllllllllllllllllllllllllllllllllllllllllcbnn",
"nnblllllllllllllllllllllllllllllllllllllllllcbnn",
"nnblllllllllllllllllllllllllllllllllllllllllcnnn",
"nnnnnblllllllllllllllllllllllllllllllllllnnnnnnn",
"nnnnnnlllllllllllllllllllllllllllllllllllnnnnnnn",
"nnnnnnlllllllllllllllllllllllllllllllllllnnnnnnn"
};
