/* XPM */
static char *result[] = {
/* columns rows colors chars-per-pixel */
"48 75 66 1 ",
"  c black",
". c #130C07",
"X c #1B100A",
"o c #131313",
"O c #1F1814",
"+ c #20130B",
"@ c #21110D",
"# c #2B1D11",
"$ c #2D2018",
"% c #352115",
"& c #372214",
"* c #3B2415",
"= c #37271F",
"- c #071022",
"; c gray13",
": c #202124",
"> c #322D25",
", c #323232",
"< c gray23",
"1 c #402717",
"2 c #412B1A",
"3 c #462C1A",
"4 c #472D1B",
"5 c #4A2F1C",
"6 c #4B301D",
"7 c #50341F",
"8 c #513520",
"9 c #543721",
"0 c #543821",
"q c #573A23",
"w c #523A28",
"e c #5B3C28",
"r c #5C3D29",
"t c #50483C",
"y c #60402C",
"u c #614A36",
"i c #714E34",
"p c #163167",
"a c #263B6C",
"s c #524D49",
"d c #61636B",
"f c #767676",
"g c #7A7875",
"h c #896049",
"j c #976B4E",
"k c #AC7B5D",
"l c #98856E",
"z c #9E8B73",
"x c #A08B71",
"c c #A48F75",
"v c #1D428A",
"b c #204B95",
"n c #214B95",
"m c #275CAA",
"M c #2B65B5",
"N c #787E97",
"B c #81848F",
"V c #898989",
"C c #8A8C97",
"Z c #BBA082",
"A c #999DAD",
"S c #A4A8B5",
"D c #C0AC8F",
"F c #BFC0C5",
"G c #ECECEC",
"H c None",
/* pixels */
"HHHHHHHHHHHHHHHHHHHHHHHHHHHHHHHHHHHHHHHHHHHHHHHH",
"HHHHHHHHHHHHHHHHHHHHHHHHHHHHHHHHHHHHHHHHHHHHHHHH",
"HHHHHHHHHHHHHHHHHHHHHHHHHHHHHHHHHHHHHHHHHHHHHHHH",
"HHHHHHH            HHH<      HHHHHHHHHHHHHHHHHHH",
"HHHHHHH            HHH<      HHHHHHHHHHHHHHHHHHH",
"HHHHHHH            HHH<      HHHHHHHHHHHHHHHHHHH",
"HHHHHHH   qqqqqq111   2qq2         HHHHHHHHHHHHH",
"HHHHHHH   qqqqqq111   2qq2         HHHHHHHHHHHHH",
"HHHHHHH   qqqqqq111   2qq2         HHHHHHHHHHHHH",
"HHHHHHH      qqqqqq1118qq8111qqqqqq   HHHHHHHHHH",
"HHHHHHH      qqqqqq1118qq8111qqqqqq   HHHHHHHHHH",
"HHHHHHH      qqqqqq1118qq8111qqqqqq   HHHHHHHHHH",
"HHHHffs+++###qqqqqq6660qq0666qqqqqq###fffHHHHHHH",
"HHHo  X111qqqqqqqqqqqqqqqqqqqqqqqqqqqq   HHHHHHH",
"HHHo  X111qqqqqqqqqqqqqqqqqqqqqqqqqqqq   HHHHHHH",
"HHHo  X111qqqqqqqqqqqqqqqqqqqqqqqqqqqq   HHHHHHH",
"   *115qqqqqqqqqqqqqqqqqqqqqqqqqqqqqqqqqq   oHHH",
"   *115qqqqqqqqqqqqqqqqqqqqqqqqqqqqqqqqqq   oHHH",
"   *115qqqqqqqqqqqqqqqqqqqqqqqqqqqqqqqqqq   oHHH",
"   *115qqqqqq111qqqqqqqqq8111111qqqqqqqqq   oHHH",
"   *115qqqqqq111qqqqqqqqq8111111qqqqqqqqq   oHHH",
"   *115qqqqqq111qqqqqqqqq8111111qqqqqqqqq   oHHH",
"   *114777777111qqqqqqqqq8111yyyiii777qqq...OHHH",
"   *111111111111qqqqqqqqq8111kkkkkk111qqq111*   ",
"   *111111111111qqqqqqqqq8111kkkkkk111qqq111*   ",
"   *111111111111qqqqqqqqq8111kkkkkk111qqq111*   ",
"   *115qqq111111qqqqqq311ekkkkkkkkkkkk111111*   ",
"   *115qqq111111qqqqqq311ekkkkkkkkkkkk111111*   ",
"   *115qqq111111qqqqqq311ekkkkkkkkkkkk111111*   ",
"   *115qqqqqqkkk111qqqjkkh@@@DDDDDD@@@   111*   ",
"   *115qqqqqqkkk111qqqjkkh@@@DDDDDD@@@   111*   ",
"   *115qqqqqqkkk111qqqjkkh@@@DDDDDD@@@   111*   ",
"   *111111qqqkkkkkk111xDDl@@@DDDDDD@@@      oHHH",
"   *111111qqqkkkkkk111xDDl@@@DDDDDD@@@      oHHH",
"   *111111qqqkkkkkk111xDDl@@@DDDDDD@@@      oHHH",
";;;%&&*111999kkkkkkwwwcDDz===DDDDDD===   ;;;,HHH",
"HHHo  X111111kkkkkkDDDDDDDDDDDDDDDDDDD   HHHHHHH",
"HHHo  X111111kkkkkkDDDDDDDDDDDDDDDDDDD   HHHHHHH",
"HHHo  X111111kkkkkkDDDDDDDDDDDDDDDDDDD   HHHHHHH",
"HHHo  X111111111kkkkkkZDDDDDDDDDDDDkkk   HHHHHHH",
"HHHo  X111111111kkkkkkZDDDDDDDDDDDDkkk   HHHHHHH",
"HHHo  X111111111kkkkkkZDDDDDDDDDDDDkkk   HHHHHHH",
"HHHo  X111qqqqqqqqqkkkkkkkkkkkkkkkk   GHHHHHHHHH",
"HHHo  X111qqqqqqqqqkkkkkkkkkkkkkkkk   HHHHHHHHHH",
"HHHo  X111qqqqqqqqqkkkkkkkkkkkkkkkk   HHHHHHHHHH",
"HHHo  X111qqqqqqqqqkkkkkkkkkkkkkkkk   HHHHHHHHHH",
"HHHo  X111111qqqqqqNNNNNNNNNN111      GHHHHHHHHH",
"HHHo  X111111qqqqqqNNNNNNNNNN111      HHHHHHHHHH",
"HHHo  X111111qqqqqqNNNNNNNNNN111      HHHHHHHHHH",
"HHHo  tDDDDDD111qqqNNNASSSSSS111kkkkkk   HHHHHHH",
"HHHo  tDDDDDD111qqqNNNASSSSSS111kkkkkk   HHHHHHH",
"HHHo  tDDDDDD111qqqNNNASSSSSS111kkkkkk   HHHHHHH",
"HHHo  tDDDDDD111MMMMMMMMMMMMMvvvkkkkkk   HHHHHHH",
"HHHo  tDDDDDD111MMMMMMMMMMMMMvvvkkkkkk   HHHHHHH",
"HHHo  tDDDDDD111MMMMMMMMMMMMMvvvkkkkkk   HHHHHHH",
"HHHHHHg>>>uuuaaannnMMMMMMMMMMmmmrrr$$$HHHHHHHHHH",
"HHHHHHV   111vvvvvvMMMMMMMMMMMMM111   HHHHHHHHHH",
"HHHHHHV   111vvvvvvMMMMMMMMMMMMM111   HHHHHHHHHH",
"HHHHHHV   111vvvvvvMMMMMMMMMMMMM111   HHHHHHHHHH",
"HHHHHHV   111111      pvvbMMMMMMMMM   HHHHHHHHHH",
"HHHHHHV   111111      pvvbMMMMMMMMM   HHHHHHHHHH",
"HHHHHGV   111111      pvvbMMMMMMMMM   HHHHHHHHHH",
"HHHHHGV         BBBBBB:  -vvvMMM111111   HHHHHHH",
"HHHHHGV         BBBBBB:  -vvvMMM111111   HHHHHHH",
"HHHGGGV         BBBBBB:  -vvvMMM111111   HGGGHHH",
"HHGCBBBBBBBBBBBBBBBBBBBBBd   111111111   BBBCGHH",
"HHGCBBBBBBBBBBBBBBBBBBBBBd   111111111   BBBCGHH",
"HHGCBBBBBBBBBBBBBBBBBBBBBd   111111111   BBBCGHH",
"HHGCBBBBBBBBBBBBBBBBBBBBBd   111111111   BBBCGHH",
"HHGCBBBBBBBBBBBBBBBBBBBBBBBBBBBBBBBBBBBBBBBBCHHH",
"HHGCBBBBBBBBBBBBBBBBBBBBBBBBBBBBBBBBBBBBBBBBCHHH",
"HHGCBBBBBBBBBBBBBBBBBBBBBBBBBBBBBBBBBBBBBBBBCHHH",
"HHGGGGFBBBBBBBBBBBBBBBBBBBBBBBBBBBBBBBBBBHHHHHHH",
"HHHHHGFBBBBBBBBBBBBBBBBBBBBBBBBBBBBBBBBBBHHHHHHH",
"HHHHHGFBBBBBBBBBBBBBBBBBBBBBBBBBBBBBBBBBBHHHHHHH"
};
