/* XPM */
static char *result[] = {
/* columns rows colors chars-per-pixel */
"48 75 55 1 ",
"  c black",
". c #050302",
"X c #160E09",
"o c #20130B",
"O c #21110D",
"+ c #25170D",
"@ c #2B1D11",
"# c #301D11",
"$ c #372214",
"% c #3E2616",
"& c #071022",
"* c #0B1A2F",
"= c #121723",
"- c gray13",
"; c #302B24",
": c #272B39",
"> c #3B363D",
", c gray23",
"< c #402717",
"1 c #422818",
"2 c #422918",
"3 c #412B1A",
"4 c #462C1A",
"5 c #472D1B",
"6 c #4B301D",
"7 c #4D321E",
"8 c #50341F",
"9 c #513520",
"0 c #543821",
"q c #573A23",
"w c #573926",
"e c #5B3C28",
"r c #60402C",
"t c #6C4A31",
"y c #3B3740",
"u c #7F5840",
"i c #7E6B59",
"p c #767676",
"a c #8C6249",
"s c #9D6F53",
"d c #AC7B5D",
"f c #1D428A",
"g c #2D60A8",
"h c #2B65B5",
"j c #485E8B",
"k c #6E748B",
"l c #787E97",
"z c #81848F",
"x c #BDA588",
"c c #A5A4AE",
"v c #A4A8B5",
"b c #C0AC8F",
"n c #E3E3E4",
"m c #ECECEC",
"M c None",
/* pixels */
"MMMMMMM             MMM      MMMMMMMMMMMMMMMMMMM",
"MMMMMMM             MMM      MMMMMMMMMMMMMMMMMMM",
"MMMMMMM             MMM      MMMMMMMMMMMMMMMMMMM",
"MMMMMMM   3qqqqqq<<<   qqq          MMMMMMMMMMMM",
"MMMMMMM   3qqqqqq<<<   qqq          MMMMMMMMMMMM",
"MMMMMMM   3qqqqqq<<<   qqq          MMMMMMMMMMMM",
"MMMMMMM      Xqqqqqq<<<qqq<<<7qqqqqq   MMMMMMMMM",
"MMMMMMM      Xqqqqqq<<<qqq<<<7qqqqqq   MMMMMMMMM",
"MMMMMMM      Xqqqqqq<<<qqq<<<7qqqqqq   MMMMMMMMM",
"MMMM   <<<9qqqqqqqqqqqqqqqqqqqqqqqqqqqq   MMMMMM",
"MMMM   <<<9qqqqqqqqqqqqqqqqqqqqqqqqqqqq   MMMMMM",
"MMMM   <<<9qqqqqqqqqqqqqqqqqqqqqqqqqqqq   MMMMMM",
"MMMpooo6660qqqqqqqqqqqqqqqqqqqqqqqqqqqq@@@MMMMMM",
"M   <<<qqqqqqqqqqqqqqqqqqqqqqqqqqqqqqqqqqq   MMM",
"M   <<<qqqqqqqqqqqqqqqqqqqqqqqqqqqqqqqqqqq   MMM",
"M   <<<qqqqqqqqqqqqqqqqqqqqqqqqqqqqqqqqqqq   MMM",
"M   <<<qqqqqq9<<<qqqqqqqqq<<<<<<2qqqqqqqqq   MMM",
"M   <<<qqqqqq9<<<qqqqqqqqq<<<<<<2qqqqqqqqq   MMM",
"M   <<<qqqqqq9<<<qqqqqqqqq<<<<<<2qqqqqqqqq   MMM",
"M   <<<<<<<<<<<<<qqqqqqqqq<<<udddddd<<<qqq<<<.  ",
"M   <<<<<<<<<<<<<qqqqqqqqq<<<udddddd<<<qqq<<<.  ",
"M   <<<<<<<<<<<<<qqqqqqqqq<<<udddddd<<<qqq<<<.  ",
"M   <<<5551<<<<<<qqqqqq888rrraddddddrrr888<<<.  ",
"M   <<<qqq4<<<<<<qqqqqq<<<ddddddddddddd<<<<<<.  ",
"M   <<<qqq4<<<<<<qqqqqq<<<ddddddddddddd<<<<<<.  ",
"M   <<<qqq4<<<<<<qqqqqq<<<ddddddddddddd<<<<<<.  ",
"M   <<<qqqqqqtddd<<<qqqdddOOOibbbbbbOOO   <<<.  ",
"M   <<<qqqqqqtddd<<<qqqdddOOOibbbbbbOOO   <<<.  ",
"M   <<<qqqqqqtddd<<<qqqdddOOOibbbbbbOOO   <<<.  ",
"M   <<<<<<9qqtdddddd<<<bbbOOOibbbbbbOOO      MMM",
"M   <<<<<<9qqtdddddd<<<bbbOOOibbbbbbOOO      MMM",
"M   <<<<<<9qqtdddddd<<<bbbOOOibbbbbbOOO      MMM",
"MMMM   <<<<<<eddddddbbbbbbbbbbbbbbbbbbb   MMMMMM",
"MMMM   <<<<<<eddddddbbbbbbbbbbbbbbbbbbb   MMMMMM",
"MMMM   <<<<<<eddddddbbbbbbbbbbbbbbbbbbb   MMMMMM",
"MMMM---$$$%<<wssssssxxxbbbbbbbbbbbbbxxx   MMMMMM",
"MMMMMMM   #<<<<<<<<<dddbbbbbbbbbbbbbddd   MMMMMM",
"MMMMMMM   #<<<<<<<<<dddbbbbbbbbbbbbbddd   MMMMMM",
"MMMMMMM   #<<<<<<<<<dddbbbbbbbbbbbbbddd   MMMMMM",
"MMMMMMM   #<<4qqqqqqqqqddddddddddddd   MMMMMMMMM",
"MMMMMMM   #<<4qqqqqqqqqddddddddddddd   MMMMMMMMM",
"MMMMMMM   #<<4qqqqqqqqqddddddddddddd   MMMMMMMMM",
"MMMMMMM   3qqqqqqqqqqqqlllllllllk      MMMMMMMMM",
"MMMMMMM   3qqqqqqqqqqqqlllllllllk      MMMMMMMMM",
"MMMMMMM   3qqqqqqqqqqqqlllllllllk      MMMMMMMMM",
"MMMMMMM   3qqqqqqqqqqqqlllllllllk      MMMMMMMMM",
"MMMMMMM   3qqqqqqqqq<<<lllvvvvvvcddd   MMMMMMMMM",
"MMMMMMM   3qqqqqqqqq<<<lllvvvvvvcddd   MMMMMMMMM",
"MMMMMMM   3qqqqqqqqq<<<lllvvvvvvcddd   MMMMMMMMM",
"MMMMMMMMMM,  ;bbbbbb<<<hhhhhhhhhhhhh   MMMMMMMMM",
"MMMMMMMMMM,  ;bbbbbb<<<hhhhhhhhhhhhh   MMMMMMMMM",
"MMMMMMMMMM,  ;bbbbbb<<<hhhhhhhhhhhhh   MMMMMMMMM",
"MMMMMMMMMM,  ;bbbbbbfffhhhhhhhhhg<<<<<<   MMMMMM",
"MMMMMMMMMM,  ;bbbbbbfffhhhhhhhhhg<<<<<<   MMMMMM",
"MMMMMMMMMM,  ;bbbbbbfffhhhhhhhhhg<<<<<<   MMMMMM",
"MMMMMMMMMM,  =jjjjjjfff******:yy><<<<<<   MMMMMM",
"MMMMMMMMMM,  &fffffffff      +<<<<<<<<<   MMMMMM",
"MMMMMMMMMM,  &fffffffff      +<<<<<<<<<   MMMMMM",
"MMMMMMMMMM,  &fffffffff      +<<<<<<<<<   MMMMMM",
"MMMMMMMMMM,  &ffffff   MMM             MMMMMMMMM",
"MMMMMMMMMM,  &ffffff   MMM             MMMMMMMMM",
"MMMMMMMMMM,  &ffffff   MMM             MMMMMMMMM",
"MMMMMMM   #<<<<<<fff   zzzzzzzzzzzzzzzzzzzmMMMMM",
"MMMMMMM   #<<<<<<fff   zzzzzzzzzzzzzzzzzzzmMMMMM",
"MMMMMMM   #<<<<<<fff   zzzzzzzzzzzzzzzzzzzmmmMMM",
"MMMMzzz   #<<<<<<   zzzzzzzzzzzzzzzzzzzzzzzzznMM",
"MMMMzzz   #<<<<<<   zzzzzzzzzzzzzzzzzzzzzzzzznMM",
"MMMMzzz   #<<<<<<   zzzzzzzzzzzzzzzzzzzzzzzzznMM",
"MMMMzzz   #<<<<<<   zzzzzzzzzzzzzzzzzzzzzzzzznMM",
"MMMMzzzzzzzzzzzzzzzzzzzzzzzzzzzzzzzzzzzzzzzzznMM",
"MMMMzzzzzzzzzzzzzzzzzzzzzzzzzzzzzzzzzzzzzzzzznMM",
"MMMMMzzzzzzzzzzzzzzzzzzzzzzzzzzzzzzzzzzzzzzzznMM",
"MMMMMMMzzzzzzzzzzzzzzzzzzzzzzzzzzzzzzzzzzzmmmmMM",
"MMMMMMMzzzzzzzzzzzzzzzzzzzzzzzzzzzzzzzzzzzMMMMMM",
"MMMMMMMzzzzzzzzzzzzzzzzzzzzzzzzzzzzzzzzzzzMMMMMM"
};
