/* XPM */
static char *b93ef494d21f49079102b3068c60025bgtC2e7qWA9llgpz0[] = {
/* columns rows colors chars-per-pixel */
"60 60 15 1 ",
"  c None",
". c black",
"X c #691717",
"o c #1C471E",
"O c #2E7D32",
"+ c #4E1358",
"@ c #C62828",
"# c #CC2B2B",
"$ c #D32F2F",
"% c #B72B6F",
"& c #338537",
"* c #388E3C",
"= c #E99479",
"- c #9C27B0",
"; c #FFF9C4",
/* pixels */
"                                                            ",
"                                                            ",
"                                                            ",
"                                                            ",
"                                                            ",
"                                                            ",
"                              ........                      ",
"                              ........                      ",
"                              ........                      ",
"                   ...........*******o...                   ",
"                   ...........*******o...                   ",
"                   ...........*******o...                   ",
"                   ...........*******o...                   ",
"               ....*******....OOOOOOO&***....               ",
"               ....*******....OOOOOOO&***....               ",
"               ....*******....OOOOOOO&***....               ",
"               ....*******....OOOOOOO&***....               ",
"           ....OOOO...+---********---+...OOOO....           ",
"           ....OOOO...+---********---+...OOOO....           ",
"           ....OOOO...+---********---+...OOOO....           ",
"           ....OOOO...+---********---+...OOOO....           ",
"               ....---%$$$--------$$$%---....               ",
"               ....---%$$$--------$$$%---....               ",
"               ....---%$$$--------$$$%---....               ",
"           ....@@@@;;;=$$$$$$$$$$$$$$$$$$@@@@....           ",
"           ....@@@@;;;=$$$$$$$$$$$$$$$$$$@@@@....           ",
"           ....@@@@;;;=$$$$$$$$$$$$$$$$$$@@@@....           ",
"           ....@@@@;;;=$$$$$$$$$$$$$$$$$$@@@@....           ",
"           ....$$$$$$$=;;;$$$$$$$$$$$=;;;$$$$....           ",
"           ....$$$$$$$=;;;$$$$$$$$$$$=;;;$$$$....           ",
"           ....$$$$$$$=;;;$$$$$$$$$$$=;;;$$$$....           ",
"           ....$$$$$$$=;;;$$$$$$$$$$$=;;;$$$$....           ",
"           ....$$$$$$$#@@@$$$$;;;;$$$#@@@$$$$....           ",
"           ....$$$$$$$#@@@$$$$;;;;$$$#@@@$$$$....           ",
"           ....$$$$$$$#@@@$$$$;;;;$$$#@@@$$$$....           ",
"           ....$$$$$$$#@@@$$$$;;;;$$$#@@@$$$$....           ",
"           ....$$$$@@@#$$$$$$$@@@@$$$#@@@$$$$....           ",
"           ....$$$$@@@#$$$$$$$@@@@$$$#@@@$$$$....           ",
"           ....$$$$@@@#$$$$$$$@@@@$$$#@@@$$$$....           ",
"               ....$$$#@@@@@@@@@@@@@@#$$$....               ",
"               ....$$$#@@@@@@@@@@@@@@#$$$....               ",
"               ....$$$#@@@@@@@@@@@@@@#$$$....               ",
"               ....$$$#@@@@@@@@@@@@@@#$$$....               ",
"                   ...X$$$@@@@@@@@$$$X...                   ",
"                   ...X$$$@@@@@@@@$$$X...                   ",
"                   ...X$$$@@@@@@@@$$$X...                   ",
"                   ...X$$$@@@@@@@@$$$X...                   ",
"                      ....$$$$$$$$....                      ",
"                      ....$$$$$$$$....                      ",
"                      ....$$$$$$$$....                      ",
"                      ....$$$$$$$$....                      ",
"                          ........                          ",
"                          ........                          ",
"                          ........                          ",
"                                                            ",
"                                                            ",
"                                                            ",
"                                                            ",
"                                                            ",
"                                                            "
};
