/* XPM */
static char *result[] = {
/* columns rows colors chars-per-pixel */
"75 75 196 2 ",
"   c #000000",
".  c #070409",
"X  c #0C040B",
"o  c #0E090C",
"O  c #070E09",
"+  c #16050D",
"@  c #100B0E",
"#  c #0A130D",
"$  c #0E0712",
"%  c #130C11",
"&  c #150C1A",
"*  c #170A19",
"=  c #0F1D13",
"-  c #161817",
";  c #20051C",
":  c #340C1F",
">  c #182311",
",  c #16291A",
"<  c #1D1125",
"1  c #191D22",
"2  c #2A0724",
"3  c #290B27",
"4  c #36092F",
"5  c #3B0B2B",
"6  c #251420",
"7  c #2F1826",
"8  c #25142F",
"9  c #2C172B",
"0  c #321929",
"q  c #381D2E",
"w  c #340F35",
"e  c #3C0A34",
"r  c #3D0D39",
"t  c #2A1632",
"y  c #2C1A34",
"u  c #2C1C39",
"i  c #271732",
"p  c #301134",
"a  c #351C35",
"s  c #391338",
"d  c #1A2024",
"f  c #1B3322",
"g  c #1F3A27",
"h  c #233D2B",
"j  c #2F233D",
"k  c #282C37",
"l  c #31253F",
"z  c #3B233D",
"x  c #3D2037",
"c  c #283437",
"v  c #32282C",
"b  c #4B112C",
"n  c #52102A",
"m  c #440B3B",
"M  c #4B0D3C",
"N  c #470E32",
"B  c #500F3D",
"V  c #4A1637",
"C  c #54103D",
"Z  c #5B123E",
"A  c #591435",
"S  c #61153B",
"D  c #791732",
"F  c #44243B",
"G  c #4A263C",
"H  c #4B293F",
"J  c #412135",
"K  c #26462D",
"L  c #354F28",
"P  c #294E34",
"I  c #2E563A",
"U  c #2E583B",
"Y  c #305D3E",
"T  c #395A33",
"R  c #395228",
"E  c #3B633B",
"W  c #4D7035",
"Q  c #4A6D37",
"!  c #371D41",
"~  c #322841",
"^  c #39264A",
"/  c #3D2B4E",
"(  c #342142",
")  c #343F49",
"_  c #3F3347",
"`  c #3F2A51",
"'  c #5D1F47",
"]  c #651540",
"[  c #6D1941",
"{  c #6A1741",
"}  c #701942",
"|  c #472D44",
" . c #4A2C4A",
".. c #492A45",
"X. c #552B4E",
"o. c #4E354A",
"O. c #483A49",
"+. c #5A3F4F",
"@. c #503043",
"#. c #4A2E51",
"$. c #472F59",
"%. c #46325A",
"&. c #4A345F",
"*. c #483553",
"=. c #523D55",
"-. c #782549",
";. c #7C334D",
":. c #4C3760",
">. c #3D505F",
",. c #2F4140",
"<. c #336141",
"1. c #396B48",
"2. c #386A47",
"3. c #3D754E",
"4. c #414F5B",
"5. c #464252",
"6. c #584F5B",
"7. c #554B5F",
"8. c #555255",
"9. c #624B58",
"0. c #62435C",
"q. c #66515D",
"w. c #437D54",
"e. c #407650",
"r. c #5D645F",
"t. c #62605F",
"y. c #5A4968",
"u. c #554765",
"i. c #4B5167",
"p. c #5F5661",
"a. c #59576B",
"s. c #645C65",
"d. c #6D5E66",
"f. c #64576E",
"g. c #695779",
"h. c #536778",
"j. c #586D7E",
"k. c #6B676A",
"l. c #71646B",
"z. c #6F6673",
"x. c #746B74",
"c. c #7B7A7B",
"v. c #AB081C",
"b. c #87082C",
"n. c #AA1834",
"m. c #9C213C",
"M. c #DA061C",
"N. c #CB051D",
"B. c #FF000F",
"V. c #E80215",
"C. c #CD0C24",
"Z. c #A62E49",
"A. c #827F7F",
"S. c #82727B",
"D. c #458157",
"F. c #468459",
"G. c #4C855C",
"H. c #4A8C5E",
"J. c #498556",
"K. c #548D54",
"L. c #56995F",
"P. c #5B9B5E",
"I. c #55975F",
"U. c #679A4F",
"Y. c #65A25B",
"T. c #6BA659",
"R. c #6EA858",
"E. c #6DA657",
"W. c #73AB57",
"Q. c #7AAF55",
"!. c #71AA58",
"~. c #7AB055",
"^. c #4C8E60",
"/. c #518C63",
"(. c #4D9262",
"). c #529462",
"_. c #559860",
"`. c #5D7283",
"'. c #606F81",
"]. c #627789",
"[. c #847B87",
"{. c #986880",
"}. c #858382",
"|. c #8E8C8B",
" X c #898787",
".X c #92859C",
"XX c #988D96",
"oX c #94828F",
"OX c #A6979F",
"+X c #A7A5A4",
"@X c #B6B5B4",
"#X c #BAB3BD",
"$X c #C5BFC7",
"%X c #D1CFCE",
"&X c #E1DFDE",
"*X c #E4E2E1",
/* pixels */
"(.(.(.(.(.(.(.(.^.(.(.(.(.(.(.(.(.(.(.(.(.(.(.(.(.(.(.(.(.(.(.(.(.(.(.(.(.(.(.(.(.(.(.(.(.(.^.(.(.(.(.(.^.(.(.(.(.(.(.(.(.(.(.(.(.(.(.(.(.(.(.(.(.(.(.",
"(.(.(.(.(.(.(.(.(.(.(.(.(.(.(.(.(.(.(.(.(.(.(.(.(.(.(.(.(.(.(.(.(.(.^.).(.(.(.(.(.(.(.(.(.(.(.(.(.(.(.(.H.^.(.(.(.(.(.(.(.(.(.(.(.(.(.(.(.(.(.(.(.(.(.",
"(.(.(.(.(.(.(.(.(.(.(.(.(.(.(.(.(.(.(.(.(.(.(.(.(.(.(.(.(.(.(.(.(.(.(.(.(.(.(.(.(.(.(.(.(.(.(.(.(.(.(.^.w.w.^.(.(.(.(.(.(.(.(.(.(.(.(.(.(.(.(.(.(.(.(.",
"(.(.(.(.(.(.(.(.(.(.(.(.(.(.(.(.(.(.(.(.(.(.(.(.(.(.(.).(.(.(.(.(.(.(.(.(.(.(.(.(.(.(.(.(.(.(.(.(.(.(.^.3.w.H.^.(.(.(.(.(.(.(.(.(.(.(.(.(.(.(.(.(.(.(.",
"(.(.(.(.(.(.(.(.(.(.(.(.(.(.(.(.(.(.(.H.1.I U U I U U U U U I I U U U U U U U F.).(.(.(.(.(.(.(.(.^.G.H.3.D.H.H.^.(.(.(.(.(.(.(.(.(.(.(.(.(.(.(.(.(.(.",
"(.(.(.(.(.(.(.(.(.(.(.(.(.(.(.(.(.(.(.3.g                                     1.(.(.(.(.^.(.(.(.H.w.w.w.G.H.w.w.H.(.(.(.(.(.(.(.(.(.(.(.(.(.(.(.(.(.(.",
"(.(.(.(.(.(.(.(.(.(.(.(.(.(.(.(.(.(.(.3.f                                     1.(.(.(.(.(.(.(.(.H.w.w.w.^.H.w.w.H.^.(.(.(.(.(.(.(.(.(.(.(.(.(.(.(.(.(.",
"(.(.(.(.(.(.(.(.(.(.(.(.(.(.(.).(.(.(.3.f                                     1.(.(.(.(.(.(.(.(.(.(.^.^.3.3.^.(.(.(.(.(.(.(.(.(.(.(.(.(.(.(.(.(.(.(.(.",
"(.(.(.(.(.(.(.(.(.(.(.(.(.(.(.(., # # - 3 e e e A S S Z S S S Z S S A N e e e & # # h (.(.(.(.(.(.(.(.^.3.w.H.(.(.(.(.(.(.(.(.(.(.(.(.(.(.(.(.(.(.(.(.",
"(.(.(.(.(.(.(.(.(.(.(.(.(.(.(.(.=     X 2 m m m ] } } } D } } } } } ] C m m m $     f (.(.(.(.(.(.(.(.(.F.F.^.(.(.(.(.(.(.(.(.(.(.(.(.(.(.(.(.(.(.(.(.",
"(.(.(.(.(.(.(.(.(.(.(.(.(.(.(.(.=     + 2 m m m ] } } } } } } } } } ] Z m m m +     f ^.(.(.(.(.(.(.(.(.(.^.(.(.(.(.(.(.(.(.(.(.(.(.(.(.(.(.(.(.(.(.(.",
"(.(.(.(.(.(.(.(.(.(.(.(.3.P P P 6 ; ; 2 N Z Z C { } } } } } } } } } ] ] Z Z Z 5 : : v P P P F.(.(.(.(.(.(.(.(.(.(.(.(.(.(.(.(.(.(.(.(.(.(.(.(.(.(.(.(.",
"(.(.(.(.(.(.(.(.(.(.(.(.<.      4 m m M ] } } } } } } } } } } } } } } } } } } } } } b       3.^.(.(.(.(.(.(.(.(.(.(.(.(.(.(.(.(.(.(.(.(.(.(.(.(.(.(.(.",
"(.(.(.(.(.(.(.(.(.(.(.(.<.      4 m m M ] } } } } } } } } } } } } } } } } } } } } } b       3.).(.(.(.(.(.(.(.(.(.(.(.(.(.(.(.(.(.(.(.(.(.(.(.(.(.(.(.",
"(.(.(.(.(.(.(.(.(.(.(.(.<.      4 m m m ] { } } [ [ } [ } } } } } } } } } } } } } } b       e.^.H.^.(.(.(.(.(.(.(.(.(.(.(.(.(.(.(.(.(.(.(.(.(.(.(.(.(.",
"(.(.(.(.(.(.(.(.(.(.(.(.<.      N Z Z ] ] [ [ [ ] C ] ] } } } } } } } } } } } } } } A * ; ; h P P Y 3.(.(.(.(.(.(.(.(.(.(.(.(.(.(.(.(.(.(.(.(.(.(.(.(.",
"(.(.(.(.(.(.(.(.(.(.(.(.<.      A { [ [ [ } } } B M M ] ] } } } } } } } } } } } } { ] e r e % O O , <.(.(.(.(.(.(.(.(.(.(.(.(.(.(.(.(.(.(.(.(.(.(.(.(.",
"(.(.(.(.(.(.(.(.(.(.(.(.<.      A } } } } } } } M ! m B } } } } } } } } } } } } } { ] m m m X     = <.(.(.(.(.(.(.(.(.(.(.(.(.(.(.(.(.(.(.(.(.(.(.(.(.",
"(.(.(.(.(.(.(.).(.(.^.(.<.      A } } } { ] } } ] e m C } } } } } } } } } } } } } } ] m m m X     = E L.(.(.(.(.(.(.(.(.(.(.(.(.(.(.(.(.(.(.(.(.(.(.(.",
"(.(.(.^.(.(.(.^.(.(.(.(.<.      A } } [ ] ] ] ] M m m C } } } } } } } } } } } } } } ] C C Z +     > Q T.(.(.(.(.(.(.(.(.(.(.(.(.(.(.(.(.(.(.(.(.(.(.(.",
"(.(.(.(.(.(.(.(.(.(.(.(.<.      A } } ] ] m m m m m m C } } } } } } } } } } } } } } } } } } +     > W W.(.(.(.(.(.(.(.(.(.(.(.(.(.(.(.(.(.(.(.(.(.(.(.",
"(.(.(.(.(.(.(.(.(.(.).(.<.      A } } ] M r m m m m m C } } } } } } } } } } } } } } } } } } +     > W Q.(.(.(.(.(.(.(.(.(.(.(.(.(.(.(.(.(.(.(.(.(.(.(.",
"(.(.(.(.(.(.(.(.(.(.(.(.<.      A } { ] ] r m m M M m Z } } [ } } } } } } } } } } } } } } } +     > W Q.(.(.(.(.(.(.(.(.(.(.(.(.(.(.(.(.(.(.(.(.(.(.(.",
"(.(.(.(.(.(.(.(.(.(.(.(.<.      9 s 8 N v.V.V.V.} $.$.$.&.&.&.C.V.V.N.b.M M M ] } } } } } } +     = T K.(.(.(.(.(.(.(.(.(.(.(.(.(.(.(.(.(.(.(.(.(.(.(.",
"(.(.(.(.(.(.(.(.(.(.(.(.<.      < 8 8 n v.B.B.B.-.:.:.:.:.&.&.M.B.B.M.b.m m m ] } } } } } } +     # P D.(.(.(.(.(.(.(.(.(.(.(.(.(.(.(.(.(.(.(.(.(.(.(.",
"(.(.(.(.(.(.(.(.(.(.(.(.<.      < 8 8 n v.B.B.B.-.:.&.&.&.:.:.M.B.B.M.b.m m m ] } [ } } } } +     = P 3.(.(.(.(.(.(.(.(.(.(.(.(.(.(.(.(.(.(.(.(.(.(.(.",
"(.(.(.(.(.(.(.(.(.(.(.(.<.      < 8 8 5 D n.n.n.{..X.X.X.X.X.XZ.n.n.m.;.0.0.+.] Z Z ] } } } +     = I H.(.(.(.(.(.(.(.(.(.(.(.(.(.(.(.(.(.(.(.(.(.(.(.",
"(.(.(.(.(.(.(.(.(.(.(.(.<.      < 8 8 u ^ &.&.&.#X*X*X*X*X*X*Xg.:.:.u.z.}.}.[.&.m m C } } } +     = U (.(.(.(.(.(.(.(.(.(.(.(.(.(.(.(.(.(.(.(.(.(.(.(.",
"(.(.(.(.(.(.(.(.(.(.(.(.<.      8 8 8 u / :.&.:.#X*X*X*X*X*X*Xg.:.:.:.z.}.}.}.X.m m C [ } } +     = Y (.(.(.(.(.(.(.(.(.(.(.(.(.(.(.(.(.(.(.(.(.(.(.(.",
"(.(.(.(.(.(.(.(.(.(.(.(.<.      < 8 8 u ^ %.%.:.#X&X&X&X&X&X*Xg.:.:.y.l.A.A.A.X.m m C [ [ [ +     = Y (.(.(.(.(.(.(.(.(.(.(.(.(.(.(.(.(.(.(.(.(.(.(.(.",
"(.(.(.(.(.(.(.(.(.(.(.(.<.      3 w w p ! ^ ^ ^ .X@X@X@X@X@X@Xx.f.f.f.s.6.6.6.F w w s C V V +     = Y (.(.(.(.(.(.(.(.(.(.(.(.(.(.(.(.(.(.(.(.(.(.(.(.",
"(.(.(.(.(.(.(.(.(.(.(.(.<.      4 r m r p u t t x.|.|.|.|.|.|.[.A.[.l.5.j u u t 8 t 9 t p t .     = Y (.(.(.(.(.(.(.(.(.(.(.(.(.(.(.(.(.(.(.(.(.(.(.(.",
"(.(.(.(.(.(.(.(.(.(.(.(.<.      4 m m r p 8 8 8 k.}.}.}.}.}.}.}.[.}.x.5.8 8 8 8 8 8 8 8 8 8 .     = Y (.(.(.(.(.(.(.(.(.(.(.(.(.(.(.(.(.(.(.(.(.(.(.(.",
"(.(.(.(.(.(.(.(.(.(.(.(.<.      4 m m r p 8 8 8 k.}.}.}.}.}.}.}.}.}.x.O.8 8 8 8 8 8 8 8 8 8 .     = Y (.(.(.(.(.(.(.(.(.(.(.(.(.(.(.(.(.(.(.(.(.(.(.(.",
"P.L.).(.(.(.(.(.(.(.(.(.<.      ; 2 3 3 3 8 8 8 5.s.p.p.p.p.p.s.s.s.6._ i j i a a a a a a a * $ $ - h U U U F.(.(.(.(.(.(.(.(.(.(.(.(.(.(.(.(.(.(.(.(.",
"T.Y.L.(.(.(.(.(.(.(.(.(.<.            X & 8 8 8 8 8 8 8 8 8 8 j l l l l j l l F G G G G G G t 8 8 < $       1.(.(.(.(.(.(.(.(.(.(.(.(.(.(.(.(.(.(.(.(.",
"~.T.P.(.(.(.(.(.(.(.(.(.<.            . & 8 8 8 8 8 8 8 8 8 8 j ( j j ( l l l z G G G G G G y 8 8 < $       1.(.(.(.(.(.(.(.(.(.(.(.(.(.(.(.(.(.(.(.(.",
"Y.Y.Y.Y.P.).(.(.(.(.(.(.Y             . & 8 8 8 8 8 8 8 8 8 8 j j ~ ~ ~ l l l F G H G G G G y 8 8 < $       1.(.(.(.(.(.(.(.(.(.(.(.(.(.(.(.(.(._.P.Y.",
"(.P.T.W.T.L.(.(.(.(.(.(.H.D.D.D.=     X 7 F F F l j u ( j j j $.%.%.*...G G H l l l z G G G V F F a a < 8 < % # # K (.(.(.(.(.(.(.(.(.(.(.(.(.(.P.T.~.",
"P.P.T.R.Y.L.(.(.(.(.(.(.(.(.(.(.=     @ 7 G G G z l l ~ ~ l j %.:.:.*.| G G H z l l z G G G G G G F a 8 8 8 .     f (.(.(.(.(.(.(.(.(.(.(.(.(.(._.T.T.",
"!.T.Y.L.L.(.(.(.(.(.(.(.(.(.(.(.=     o 7 G G G l l l l l l z $.&.&.%...G G G z l l z H G G G G G F a 8 8 8 X     f (.(.(.(.(.(.(.(.(.(.(.(.(.(.)._._.",
"T.Y.L.(.(.(.(.(.(.(.(.(.3.P P P r.k.k.k.s.q.q.q.%.` / / / / #.]..X.X[.z.q.q.q.*./ / / o. . ...G G F x a a a o     f (.(.(.(.(.^.(.(.(.(.(.(.(.(.(.(.(.",
"L.L.(.(.(.(.(.(.(.(.(.(.<.      @X*X*X%X+X}.}.}.y.&.&.&.&.&.:.$X*X*X%X+X}.}.}.y.&.:.&.&.&.:...G G G G G G G %     f (.(.(.(.(.(.(.(.(.(.(.(.(.(.(.(.(.",
"(.(.(.(.(.(.(.(.(.(.(.(.<.      @X*X*X%X+X}.}.}.y.&.&.&.&.&.&.$X*X*X%X+X}.}.}.y.&.&.&.:.&.&.G G G G G G G G %     f (.(.(.(.(.(.(.(.(.(.(.(.(.(.(.(.(.",
"(.(.(.(.(.(.(.(.(.(.(.(.<.      @X*X*X%X+X}.}.}.y.&.&.&.&.&.&.$X*X*X%X+X X[.}.y.&.:.:.&.&.%...G G G H H H H %     f (.(.(.(.(.(.(.(.(.(.(.(.(.(.(.(.(.",
"(.(.(.(.(.(.(.(.(.(.(.(.<.      @X*X*X%X+X}.}.}.y.&.&.:.&.&.:.$X*X*X%X+X}.}.}.y.&.&.$.^ ^ ^ ..G G ..=.7.7.7.-     f (.(.(.(.(.(.(.(.(.(.(.(.(.(.(.(.(.",
"(.(.(.(.(.(.(.(.(.(.(.(.<.      @X*X*X%X+X}.}.}.y.:.&.&.&.&.:.$X*X*X%X+X}.}.}.y.:.&.` i 8 i ..G G o.a.z.'.'.1     f (.(.(.(.(.(.(.(.(.(.(.(.(.(.(.(.(.",
"(.(.(.(.(.(.(.(.(.(.(.(.<.      @X*X*X%X+X}.}.}.u.&.&.&.&.&.:.#X*X*X%X+X}.}.}.y.%.:.^ 8 8 8 s G G o.h.`.].].d     f (.(.(.(.(.(.(.(.(.(.(.(.(.(.(.(.(.",
"(.(.(.(.(.(.(.(.(.(.(.(.E       @X&X*X%X+X}.}.}.y.&.&.:.&.&.&.%X*X*X%X+X}.}.}.y.&.:./ 8 8 8 F G G o.a.].`.].d     f (.(.(.(.(.(.(.(.(.(.(.(.(.(.(.(.(.",
"(.(.(.(.(.(.(.(.(.(.(.(.3.g g g c. X X}.x.d.d.d.=.#.#.#.#.#.#.oXOXOXXXS.d.d.d.*.^ / ( 8 8 8 J G G o.i.h.h.h.,.c c c I U I F.(.(.(.(.(.(.(.(.(.(.(.(.(.",
"(.(.(.(.(.(.(.(.(.(.(.(.(.(.(.(.=     o 7 G G G G G F G G G G G G G G G G G G y 8 8 8 8 8 8 J H F | 5.>.>.>.`.].].>.      3.(.(.(.(.(.(.(.(.(.(.(.(.(.",
"(.(.(.(.(.^.(.(.(.(.(.(.(.(.(.(.=     o 7 G G G G G G G G G G G G G G G G G G a 8 8 8 8 8 8 F G G | 5.>.>.>.j.].].i.      3.(.(.(.(.(.(.(.(.(.(.(.(.(.",
"(.(.(.(.(.(.(.(.(.(.(.(.(.(.(.(.=     o 7 G G G G G G G G G G G G G G G G G G y 8 8 8 8 8 8 F G G | 5.>.>.>.`.`.].4.      3.(.(.(.(.(.(.(.(.(.(.(.(.(.",
"(.(.(.(.(.(.(.(.(.(.(.(.(.(.(.(.=     X & t t t t t t t t t t t t t t t t t t 8 8 8 i j j j i t t l i.`.`.`.].].].4.      3.(.(.(.(.(.(.(.(.(.(.(.(.(.",
"(.(.(.(.(.(.(.(.(.(.(.(.(.(.(.(.=     . & t 8 8 8 8 8 8 8 8 8 8 8 8 8 8 8 8 8 8 8 8 u ~ l l 8 8 8 ~ i.].`.].].].].4.      3.(.(.(.(.(.(.(.(.(.(.(.(.(.",
"(.(.(.(.(.(.(.(.(.(.(.(.(.(.(.(.=     X & 8 8 8 8 8 8 8 8 8 8 8 8 8 8 8 8 8 8 8 8 8 i j l l i 8 8 ~ i.].].].].].].4.      3.(.(.(.(.(.(.(.(.(.(.(.(.(.",
"(.(.(.(.(.(.(.(.(.(.(.(.(.(.(.(.=     o 6 a a a a a a 9 & & & & * * & t a a a a a a a j y y < & & < k ,.) ) ) ) ,.,.K R R J.(.(.(.(.(.(.(.(.(.(.(.(.(.",
"(.(.(.(.(.(.(.(.(.(.(.(.(.(.(.(.=     o 7 G G G G G G 7             o 7 G G G G G G x 8 8 8 .                     f _.~.~._.(.(.(.(.(.(.(.(.(.(.(.(.(.",
"(.(.(.(.(.(.(.(.(.(.(.(.(.(.(.(.=     o 7 G G G G G G 0             o 7 G G G G G G V 8 8 8 .                     , _.~.~.L.(.(.(.(.(.(.(.(.(.(.(.(.(.",
"(.(.(.(.(.(.(.(.(.(.(.(.(.(.(.(.=     @ 7 G G G G G G 0           O @ 7 G G G G G G z 8 8 8 .         O     O   . g P.~.~._.(.(.(.(.(.(.(.(.(.(.(.(.(.",
"(.(.(.(.(.(.(.(.(.(.(.(.(.(.(.(.=     o 7 G G G G G G 0       f K K h v 6 6 6 J G G F a a a .     O , K K K L L K Y L.~.~.L.(.(.(.(.(.(.(.(.(.(.(.(.(.",
"(.(.(.(.(.(.(.(.(.(.(.(.(.(.(.(.=     o 7 G G G G G G 0       2.D.w.2.f . . . q G G G F G F @     = I H.D.K.U.U.K.H.L.~.~.L.(.(.(.(.(.(.(.(.(.(.(.(.(.",
"(.(.(.(.(.(.(.(.(.(.(.(.(.(.(.(.=     o 7 G G G G G G 0       3.(.(.3.f       q G G G G G G @     = U (.(.P.W.!.Y.(.L.!.!._.(.(.(.(.(.(.(.(.(.(.(.(.(.",
"(.(.(.(.(.(.(.(.(.(.(.(.(.(.(.(.=     @ 7 G G G G G G 0       3.(.(.3.g       q G G G G G G X     = <.(.(.P.W.!.P.(.).P.P.).(.(.(.(.(.(.(.(.(.(.(.(.(.",
"(.(.(.(.(.(.(.(.(.(.(.(.(.(.(.(.=     & z 6.9.9.@.G G 0       e.(.(.3.f       O.9.9.9.J G G +     = Y (.(.P.!.!.P.(.(.).(.(.(.(.(.(.(.(.(.(.(.(.(.(.(.",
"(.(.(.(.(.(.(.(.(.(.(.(.(.(.(.(.=     - 8.}.}.}.9.G G 0       e.(.(.3.f       t.}.}.l.F G G o     = Y (.(._.T.R.P.(.(.(.(.(.(.(.(.(.(.(.(.(.(.(.(.(.(.",
"(.(.(.(.(.(.(.(.(.(.(.(.(.(.(.(.-     - 8.}.}.}.+.F G 7       3.(.(.3.f       t.}.}.l.G G G @     = Y (.(.).L.L.).(.(.(.(.(.(.(.(.(.(.(.(.(.(.(.(.(.(.",
"(.(.(.(.(.(.(.(.(.(.(.(.(.(.(.(.>     , 8.}.}. X+.F G 0       e.(.(.3.g       t.}.}.l.G G G @     = Y (.(.(.(.(.(.(.(.(.(.(.(.(.(.(.(.(.(.(.(.(.(.(.(.",
"(.(.(.(.(.(.(.(.(.(.(.(.(.(.(.(.F.3.F.H./././.).G.G.G.F.w.D.w.E.T._.(.F.D.w.D././.)./.G.G.G.w.w.w.D.H.(.(.(.(.(.(.(.(.(.(.(.(.(.(.(.(.(.(.(.(.(.(.(.(.",
"(.(.(.(.(.(.(.(.(.(.(.(.(.(.(.(.(.(.(.(.(.(.(.(.).(.(.(._.L.L.T.T.Y.I.(.(.(.(.(./.).(.(.(.).(.(.(.(.(.(.(.(.(.(.(.(.(.(.(.(.(.(.(.(.(.(.(.(.(.(.(.(.(.",
"(.(.(.(.(.(.(.(.(.(.(.(.(.(.(.(.(.(.(.(.(.(.(.(.(.(.(.I.Y.T.!.P.P.Y.Y.I.(.(.(.(.(.(.(.(.(.(.(.(.(.(.(.(.(.(.(.(.(.(.(.(.(.(.(.(.(.(.(.(.(.(.(.(.(.(.(.",
"(.(.(.(.(.(.(.(.(.(.(.(.(.(.(.(.(.(.(.(.(.(.^.(.(.(.(.I.!.~.Q.I.L.E.T.L.(.(.(.(.(.(.(.(.(.(.(.(.(.(.(.(.(.(.(.(.(.(.(.(.(.(.(.(.(.(.(.(.(.(.(.(.(.(.(.",
"(.(.(.(.(.(.(.(.(.(.(.(.(.(.(.(.(.(.(.(.(.(.(.(.(.(.(.).Y.R.R.P.P.T.Y._.(.(.(.(.(.(.(.(.(.(.(.(.(.(.(.(.(.(.(.(.(.(.(.(.(.(.(.(.(.(.(.(.(.(.(.(.(.(.(.",
"(.(.(.(.(.(.(.(.(.(.(.(.(.(.(.(.(.(.(.(.(.(.(.(.(.(.(.)._.L.L.T.R.P.).(.(.(.(.(.(.(.(.(.(.(.(.(.(.(.(.(.(.(.(.(.(.(.(.(.(.(.(.(.(.(.(.(.(.(.(.(.(.(.(.",
"(.(.(.(.(.(.(.(.(.(.(.(.(.(.(.(.(.(.(.(.(.(.(.(.(.(.(.(.(.(.L.Q.R._.(.(.(.(.(.(.(.(.(.(.(.(.(.(.(.(.(.(.(.(.(.(.(.(.(.(.(.(.(.(.(.(.(.(.(.(.(.(.(.(.(."
};
