/* XPM */
static char *_f2a4661f87f4d78a99821b64751db22A9PhvbUVnetya7s5[] = {
/* columns rows colors chars-per-pixel */
"75 75 184 2 ",
"   c #000000",
".  c #050906",
"X  c #0A0508",
"o  c #0A0C0B",
"O  c #0A130D",
"+  c #0D0710",
"@  c #0F0813",
"#  c #190514",
"$  c #130A14",
"%  c #190D14",
"&  c #1B0418",
"*  c #150B1A",
"=  c #1A0E1D",
"-  c #0F1D14",
";  c #121111",
":  c #19121A",
">  c #250816",
",  c #20051B",
"<  c #340C1F",
"1  c #132518",
"2  c #182D1E",
"3  c #1C0E21",
"4  c #1A1222",
"5  c #270621",
"6  c #2C0726",
"7  c #280A26",
"8  c #271420",
"9  c #2A1622",
"0  c #25142F",
"q  c #291B28",
"w  c #371326",
"e  c #340F35",
"r  c #3C0A34",
"t  c #3E0D39",
"y  c #271732",
"u  c #2A1632",
"i  c #2B1B35",
"p  c #2C1E39",
"a  c #341234",
"s  c #351B34",
"d  c #3B1E30",
"f  c #1A3121",
"g  c #1F3A27",
"h  c #23362B",
"j  c #27302F",
"k  c #213E2A",
"l  c #272D36",
"z  c #2F233D",
"x  c #392C34",
"c  c #31253F",
"v  c #3C223B",
"b  c #44112C",
"n  c #4B112C",
"m  c #4C0F35",
"M  c #440B3B",
"N  c #4C0D3C",
"B  c #500F3D",
"V  c #4D1639",
"C  c #581336",
"Z  c #56113E",
"A  c #5B123E",
"S  c #61163A",
"D  c #711632",
"F  c #44243B",
"G  c #4A263C",
"H  c #4B293F",
"J  c #23442E",
"K  c #274B32",
"L  c #294E34",
"P  c #2B5337",
"I  c #2C5439",
"U  c #2E583B",
"Y  c #361C40",
"T  c #372346",
"R  c #39264A",
"E  c #3D2C4E",
"W  c #3F2D51",
"Q  c #651540",
"!  c #6A1741",
"~  c #6E1941",
"^  c #701942",
"/  c #452844",
"(  c #492B42",
")  c #4A2C4B",
"_  c #592E49",
"`  c #4A3448",
"'  c #423E4F",
"]  c #432E55",
"[  c #4A2E51",
"{  c #492F5A",
"}  c #4A3658",
"|  c #4A345F",
" . c #5A3B55",
".. c #4C3760",
"X. c #523E63",
"o. c #314044",
"O. c #344049",
"+. c #365249",
"@. c #3D505F",
"#. c #336141",
"$. c #396B48",
"%. c #3E754E",
"&. c #3F7851",
"*. c #4B4A4A",
"=. c #504F4E",
"-. c #4F4657",
";. c #56475A",
":. c #584F5B",
">. c #62435C",
",. c #614B58",
"<. c #65515D",
"1. c #546057",
"2. c #437E55",
"3. c #474B61",
"4. c #554864",
"5. c #4E5F6E",
"6. c #5E5662",
"7. c #645D65",
"8. c #6D5E66",
"9. c #61536D",
"0. c #6A5F71",
"q. c #536778",
"w. c #696A68",
"e. c #6B6072",
"r. c #766B76",
"t. c #797175",
"y. c #A0091D",
"u. c #940827",
"i. c #881D3F",
"p. c #921F3F",
"a. c #B8122D",
"s. c #AB1834",
"d. c #A11E39",
"f. c #D6041B",
"g. c #FF000F",
"h. c #E60115",
"j. c #EC0316",
"k. c #C3112A",
"l. c #81304B",
"z. c #A23C56",
"x. c #9C5A72",
"c. c #86767F",
"v. c #827F7F",
"b. c #448157",
"n. c #468459",
"m. c #4C845D",
"M. c #4A8C5E",
"N. c #55975F",
"B. c #56985F",
"V. c #5B9B5E",
"C. c #629F5C",
"Z. c #65A25B",
"A. c #6BA659",
"S. c #6EA858",
"D. c #72AB57",
"F. c #7AAF55",
"G. c #73A35D",
"H. c #70A958",
"J. c #7AB055",
"K. c #4C8F60",
"L. c #508961",
"P. c #4D9262",
"I. c #529561",
"U. c #559860",
"Y. c #609863",
"T. c #5D7283",
"R. c #606F81",
"E. c #7B6C88",
"W. c #627789",
"Q. c #847887",
"!. c #8C7E93",
"~. c #858382",
"^. c #898887",
"/. c #8E8C8B",
"(. c #92859B",
"). c #989796",
"_. c #A7979F",
"`. c #A69CAC",
"'. c #AEACAB",
"]. c #B1A8B6",
"[. c #B7B5B4",
"{. c #D7D5D4",
"}. c #E1DFDE",
"|. c #E4E2E1",
/* pixels */
"P.P.P.P.P.P.P.P.K.P.P.P.P.P.P.P.P.P.P.P.P.P.P.P.P.P.P.P.P.P.I.P.P.P.P.P.P.P.K.P.P.P.P.P.P.P.P.P.P.P.P.P.P.P.P.P.P.M.P.P.P.P.P.P.P.P.P.P.P.P.P.P.P.P.P.",
"P.P.P.P.P.P.P.P.P.P.P.P.P.P.P.P.P.P.P.P.P.P.P.P.P.P.P.P.P.P.K.P.P.P.P.P.I.P.P.P.P.P.P.P.P.P.P.P.P.P.P.P.M.M.P.P.P.P.P.P.P.P.P.P.P.P.P.P.P.P.P.P.P.P.P.",
"P.P.P.P.P.P.P.P.P.P.P.P.P.P.P.P.P.P.P.P.P.P.P.P.P.P.P.P.P.P.K.P.P.P.P.K.P.P.P.P.P.P.P.P.P.P.P.P.P.P.P.M.2.b.M.P.P.P.P.P.P.P.P.P.P.P.P.P.P.P.P.P.P.P.P.",
"P.P.P.P.P.P.P.P.P.P.P.P.P.P.P.P.P.P.P.P.P.P.P.P.P.P.P.P.P.P.P.P.P.P.P.P.P.P.P.P.P.P.P.P.P.P.P.P.P.P.P.M.%.2.M.P.P.P.P.P.P.P.P.P.P.P.P.P.P.P.P.P.P.P.P.",
"P.P.P.P.P.P.P.P.P.P.P.P.P.P.P.P.P.P.P.P.P.P.P.P.P.P.P.P.P.P.P.P.P.P.2.U +.U U U I U U U U U U U U U U I J #.b.M.P.P.P.P.P.P.P.P.P.P.P.P.P.P.P.P.P.P.P.",
"P.P.P.P.P.P.P.P.P.P.P.P.P.P.P.P.P.P.P.P.P.P.P.P.P.P.P.P.P.P.P.P.P.P.I                                     k $.2.M.P.P.P.P.P.P.P.P.P.P.P.P.P.P.P.P.P.P.",
"P.P.P.P.P.P.P.P.P.P.P.P.P.P.P.P.P.P.P.P.P.P.P.P.P.P.P.P.P.P.P.P.P.P.U                                     h $.2.n.P.P.P.P.P.P.P.P.P.P.P.P.P.P.P.P.P.P.",
"P.P.P.P.P.P.P.P.P.P.P.P.P.P.I.P.P.P.P.P.P.P.P.P.P.P.P.P.P.P.P.P.P.P.U                                     g &.P.P.P.P.P.P.P.P.P.P.P.P.P.P.P.P.P.P.P.P.",
"P.P.P.P.P.P.P.P.P.P.P.P.P.P.P.P.P.P.P.P.P.P.K.P.P.P.P.P.K.I.P.2 O O = r r r m A S S S S S S S S A C r r r 7 ; O O k P.P.P.P.P.P.P.P.P.P.P.P.P.P.P.P.P.",
"P.P.P.P.P.P.P.P.P.P.P.P.P.P.P.P.P.P.P.P.P.P.P.P.P.P.P.P.K.P.P.-     & M M M Z ! D ^ ^ ^ ^ ^ ^ ^ D A M M M 5 X     f P.P.P.P.P.P.P.P.P.P.P.P.P.P.P.P.P.",
"P.P.P.P.P.P.P.P.K.P.P.P.P.P.P.P.P.P.P.P.P.P.P.P.P.P.P.P.P.P.P.-     & M M M Z ! ^ ^ ^ ^ ^ ^ ^ ^ ^ A M M M 5 X     2 P.P.P.P.P.P.P.P.P.P.P.P.P.P.P.P.P.",
"P.P.P.P.P.P.P.P.P.P.P.P.P.P.P.P.P.P.P.P.P.P.P.P.P.P.I.&.P L P w < < b A Z A S ~ ^ ^ ^ ^ ^ ^ ^ ^ ^ ! Z Z A r 5 & , q L L L n.P.P.P.P.P.P.P.P.P.P.P.P.P.",
"P.P.P.P.P.P.P.P.P.P.P.P.P.P.P.P.P.P.P.P.P.P.P.P.K.P.P.#.      C ^ ^ ^ ^ ^ ^ ^ ^ ^ ^ ^ ^ ^ ^ ^ ^ ^ ^ ^ ^ ^ Q N M M 6       &.P.P.P.P.P.P.P.P.P.P.P.P.P.",
"P.P.P.P.P.P.P.P.P.P.P.P.P.P.P.P.P.P.P.P.P.P.P.P.P.P.P.#.      C ^ ^ ^ ^ ^ ^ ^ ^ ^ ^ ^ ^ ^ ^ ^ ~ ^ ^ ^ ^ ^ A N M M 6       %.P.P.P.P.P.P.P.P.P.P.P.P.P.",
"K.P.P.P.P.P.P.P.P.P.P.P.P.P.P.P.P.P.P.P.P.P.P.M.M.M.M.#.      C ^ ^ ^ ^ ^ ^ ^ ^ ^ ^ ^ ^ ^ ^ ~ ~ ~ ~ ^ ^ ^ S N M M 6       %.K.P.P.P.P.P.P.P.P.P.P.P.P.",
"P.P.P.P.P.P.P.P.P.P.P.P.P.P.P.P.P.P.P.P.P.P.P.%.U L L h , , , S ^ ^ ^ ^ ^ ^ ^ ^ ^ ^ ^ ^ ^ ^ Q A A Q ^ ^ ^ S A A A r       &.P.P.P.P.P.P.P.P.P.P.P.P.P.",
"P.P.P.P.P.P.P.P.P.P.P.P.P.P.P.P.P.P.P.P.P.P.P.#.1 o o % r r t Q ^ ^ ^ ^ ^ ^ ^ ^ ^ ^ ^ ^ ^ ^ B N N Z ^ ^ ^ ~ ~ ~ ! n       %.P.P.P.P.P.P.P.P.P.P.P.P.P.",
"P.P.P.P.P.P.P.P.P.P.P.P.I.P.P.P.P.P.P.P.P.P.K.P O     # M M M Q ^ ^ ^ ^ ^ ^ ^ ^ ^ ^ ^ ^ ^ ^ N M M Z ^ ^ ^ ^ ^ ^ ~ n       %.P.P.P.P.P.P.P.P.P.P.P.P.P.",
"P.P.P.P.P.P.P.P.P.P.P.P.K.I.U.C.I.P.P.P.P.P.K.I O     # M M M Q ^ ^ ^ ^ ^ ^ ^ ^ ^ ^ ^ ^ ^ ^ B M M Z ^ ^ ~ ~ ^ ^ ^ n       %.P.P.P.P.P.P.P.P.P.P.P.P.P.",
"K.P.K.P.P.P.P.K.P.P.P.P.P.I.D.D.U.P.P.P.P.P.K.I O     & Z Z Z ! ^ ^ ^ ^ ^ ^ ^ ^ ^ ^ ^ ^ ^ ^ N M M Z A A Q Q ~ ^ ^ n       %.P.P.P.P.P.P.P.P.P.P.P.P.P.",
"P.P.P.P.P.P.P.P.P.P.P.P.P.B.J.J.U.P.P.P.P.P.P.I O     > ^ ^ ^ ^ ^ ^ ^ ^ ^ ^ ^ ^ ^ ^ ^ ^ ^ ^ B M M M M M M Z ! ^ ^ n       %.P.P.P.P.P.P.P.P.P.P.P.P.P.",
"P.P.P.P.P.P.P.P.P.P.P.P.P.U.J.J.U.P.P.P.P.P.P.I O     > ^ ^ ^ ^ ^ ^ ^ ^ ^ ^ ^ ^ ^ ^ ^ ^ ^ ^ N M M M M M M Z ! ^ ^ n       %.P.P.P.P.P.P.P.P.P.P.P.P.P.",
"P.P.P.P.P.P.P.P.I.P.P.P.P.B.J.J.V.I.P.P.P.P.P.I O     > ^ ^ ^ ^ ^ ^ ^ ^ ^ ^ ^ ^ ^ ^ ^ ^ ^ ^ N M M M M M M A ! ^ ^ n       %.P.P.P.P.P.P.P.P.P.P.P.P.P.",
"P.P.P.P.P.P.P.P.P.P.P.P.P.B.J.J.U.P.U.Z.U.I.K.I O     > ^ ^ ^ ^ ^ ^ Q N N N u.f.j.j.a.{ { | | | { i.h.h.h.u.n u a 3       %.P.P.P.P.P.P.P.P.P.P.P.P.P.",
"P.P.P.P.P.P.P.P.P.P.P.P.P.U.J.J.U.I.B.H.H.B.P.P O     > ^ ^ ^ ^ ^ ^ A M M M u.j.g.g.k.....| | | | p.g.g.g.y.r y y =       %.P.P.P.P.P.P.P.P.P.P.P.P.P.",
"P.P.P.P.P.P.P.P.P.P.P.P.P.U.J.J.U.I.V.H.D.V.P.P O     > ^ ^ ^ ^ ^ ^ Q M M M u.j.g.g.k...| | | | | p.g.g.g.y.b y 0 3       %.P.P.P.P.P.P.P.P.P.P.P.P.P.",
"P.P.P.P.P.P.P.P.P.P.P.P.P.U.J.J.B.P.V.D.D.V.P.P O     > ^ ^ ^ S Z A _ >.>.>.l.d.s.s.z.!.(.(.(.(.(.x.s.s.s.D a y 0 3       %.P.P.P.P.P.P.P.P.P.P.P.P.P.",
"P.P.P.P.P.P.P.P.P.P.P.P.P.U.H.S.U.I.V.D.D.B.K.P O     > ^ ^ ^ N M M X.!.~.Q.0.X.| | Q.|.|.|.|.|.|.`.| | | T u 0 0 =       %.P.P.P.P.P.P.P.P.P.P.P.P.P.",
"P.P.P.P.P.P.P.P.P.P.P.P.P.P.U.U.I.P.V.D.D.V.P.P O     > ^ ^ ^ N M M  .~.~.~.e.X.....Q.}.|.|.|.|.|.`.| | ..R y 0 y =       %.P.P.P.P.P.P.P.P.P.P.P.P.P.",
"P.P.P.P.P.P.P.P.P.P.P.P.P.P.P.P.P.P.V.H.D.V.P.P O     > ~ ~ ~ N M M  .v.v.v.0.4.....Q.}.}.}.|.|.}.`.| | ..R i 0 0 3       %.P.P.P.P.P.P.P.P.P.P.P.P.P.",
"P.P.P.P.P.P.P.P.P.P.P.P.P.P.P.P.P.P.V.H.D.V.P.P O     # V V V r a e / :.:.:.6.9.0.9.E.[.[.[.[.[.[.Q.T T R Y e e e 3       %.P.P.P.P.P.P.P.P.P.P.P.P.P.",
"P.P.P.P.P.P.P.P.P.P.P.P.P.P.P.P.P.P.I.U.B.I.P.P O     + u u u u u u u z s p -.r.Q.Y.~././././././.7.y i y e t t M 6       %.P.P.P.P.P.P.P.P.P.P.P.P.P.",
"P.P.P.P.P.P.P.P.P.P.P.P.P.P.P.P.P.P.P.P.P.P.K.I O     + 0 0 0 y 0 0 y 0 0 0 -.t.~.~.~.~.~.~.~.~.~.6.0 0 0 e t M M 6       %.P.P.P.P.P.P.P.P.P.P.P.P.P.",
"P.P.P.P.P.P.P.P.P.P.P.P.P.P.P.P.P.P.P.K.P.P.P.I O     + 0 0 0 y 0 0 0 0 0 0 -.t.~.~.~.~.~.~.^.^.~.6.0 0 y e t M M 6       %.P.P.P.P.P.P.P.P.P.P.P.P.P.",
"B.B.P.P.P.P.P.P.P.P.P.P.P.P.P.P.P.P.P.2.+.U #.f : @ + = u s s s s s s y i i ` 6.7.7.6.6.6.6.6.6.<.' 0 0 y 7 7 6 6 &       %.P.P.P.P.P.P.P.P.P.P.P.P.P.",
"S.Z.B.P.P.P.P.P.P.P.P.P.P.P.P.P.P.P.P.U       @ 4 y y a G G G G G G v c z T z z z T p 0 0 0 y 4 y 0 0 y y =               %.P.P.P.P.P.P.P.P.P.P.P.P.P.",
"J.S.V.I.I.P.P.P.P.P.P.P.I.K.P.P.P.P.P.U       @ 4 y 0 u G G G G G G x c z c c c T z l 0 0 0 0 0 0 0 0 0 0 *               %.P.P.P.P.P.P.P.P.P.P.P.P.P.",
"Z.C.Z.C.V.I.P.P.P.P.P.P.P.P.P.P.P.P.P.U       * y y y a G G G G G H / T c c c c z T p 0 0 0 0 0 0 0 0 0 0 * .             %.P.P.P.P.P.P.P.P.P.P.U.C.Z.",
"I.V.A.D.A.B.P.P.P.P.P.P.P.P.P.P.2 O O ; 3 4 8 u F F F F G G G v c c v F F F ` ] W ..E z Y z l z z c F F F 8 X     2 b.2.b.M.P.P.P.P.P.P.P.P.P.P.U.S.J.",
"B.V.A.S.Z.N.P.P.P.P.P.P.P.P.P.P.-     @ 0 0 y s F G G G G G G v c c v H H F ) | ....W T l T T z c v H G G 9 X     2 P.P.P.P.P.P.P.P.P.P.P.P.P.P.U.Z.S.",
"D.A.V.V.B.I.P.P.P.P.P.P.P.P.P.P.-     @ 0 u 0 s F G G G G G G c c c v H H G ) ] | | ] c T T l T T v G G G 9 X     f P.P.P.P.P.P.P.P.P.P.P.P.P.P.P.U.U.",
"S.C.B.P.P.P.P.P.P.P.P.P.P.P.P.P.-     % s s s F G G G ( ) ) ) ] E E } <.<.<.r.(.(.(.E.E R R E E E  .<.<.,.7.w.w.w.1.L L L n.P.P.P.P.P.P.P.P.P.P.P.P.P.",
"B.B.I.P.P.P.P.P.P.P.P.P.P.P.P.P.-     : G G G G G G G ( | | | | | | 9.~.~.~.'.{.|.|.].{ { ..| ..| 6.~.~.~.'.{.|.|.).      %.P.P.P.P.P.P.P.P.P.P.P.P.P.",
"P.P.P.P.P.P.P.P.P.P.P.P.P.P.P.P.-     = G G G G G G G ) | | | | | | 9.~.~.~.'.{.|.}.].| ..| | | ..9.~.~.~.'.{.|.|.).      %.P.P.P.P.P.P.P.P.P.P.P.P.P.",
"P.P.P.P.P.P.P.P.P.P.P.P.P.P.P.P.-     : G H H H G G G ) | | | ..| | 9.~.~.~.'.{.|.|.].| | ..| | ..9.E.^.~.'.{.|.|.).      %.P.P.P.P.P.P.P.P.P.P.P.P.P.",
"P.P.P.P.P.P.P.P.P.P.P.P.P.P.P.P.-     q ;.4.:. .( G G G T R T { | | 9.~.~.~.'.{.|.|.].| | | ..| ..6.~.~.~.'.{.|.|.).      %.P.P.P.P.P.P.P.P.P.P.P.P.P.",
"P.P.P.P.P.P.P.P.P.P.P.P.P.P.P.P.-     l T.T.T.4.` G G v y y y ] | | 9.~.~.~.'.{.|.|.].| | | | | ..9.~.~.~.'.{.|.|.).      %.P.P.P.P.P.P.P.P.P.P.P.P.P.",
"P.P.P.P.P.P.P.P.P.K.P.P.P.P.P.P.-   . l W.T.T.6.) G G s y y 0 ] | | 9.~.~.~.'.{.|.|.].| ..| ..| ..6.~.~.~.'.{.|.|.).      %.P.P.P.P.P.P.P.P.P.P.P.P.P.",
"P.P.P.P.P.P.P.P.P.P.P.P.P.P.P.P.1     l T.W.T.6.) G G v y 0 0 ] | | 9.v.v.v.'.{.|.|.].| | | | | ..9.~.~.~.'.{.|.|.).      %.P.P.P.P.P.P.P.P.P.P.P.P.P.",
"P.P.P.P.P.P.P.P.P.P.P.P.2.U U U l l l @.q.q.q.4.` H G d 0 0 0 T R R  .8.w.8.c._._._.Q.[ [ [ [ ) ]  .8.e.8.t.~.^.^.w.g g g b.P.P.P.P.P.P.P.P.P.P.P.P.P.",
"P.P.P.P.P.P.P.P.P.P.P.P.#.      5.W.T.q.@.@.@.' ( G G v 0 0 0 0 0 0 s G G G G G G G G G G G G G G G G G G 9 X     f P.P.P.P.P.P.P.P.P.P.P.P.P.P.P.P.P.",
"P.P.P.P.P.P.P.P.P.P.P.P.#.      5.W.W.q.@.@.@.' ( G ( d 0 0 0 0 y 0 s G G G G G G G G G G G G G G G G G G 9 X     f P.P.P.P.P.P.P.P.P.P.P.P.P.P.P.P.P.",
"P.P.P.P.P.P.P.P.P.P.P.P.#.      5.W.W.R.@.@.@.*.( G G F 0 0 0 y 0 0 s G G G G G G G G G G G G G G G G G G 8 X     f P.P.P.P.P.P.P.P.P.P.P.P.P.P.P.P.P.",
"P.P.P.P.P.P.P.P.P.P.P.P.#.      5.W.W.T.T.T.T.3.c u u i z z z y 0 0 0 u u u u u u u u u u u u u u u u u u * X     f P.P.P.P.P.P.P.P.P.P.P.P.P.P.P.P.P.",
"P.P.P.P.P.P.P.P.P.P.P.P.#.      5.W.W.W.T.W.W.3.p 0 0 y c c c y 0 y 0 0 0 0 0 0 0 0 u 0 0 0 0 0 0 0 0 y 0 * .     f P.P.P.P.P.P.P.P.P.P.P.P.P.P.P.P.P.",
"P.P.P.P.P.P.P.P.P.P.P.P.#.      5.W.W.W.W.W.W.3.p 0 0 i c c c y 0 0 0 0 0 0 0 0 0 0 0 0 0 0 0 0 0 0 0 0 0 *       f P.B.U.P.P.P.P.P.P.P.P.P.P.P.P.P.P.",
"P.P.P.P.P.P.P.P.P.P.P.P.&.J J J o.O.O.O.O.O.O.l 4 * * 4 z i i z s s s s s s q = * * * * * * s s s s s s v = X     f B.A.A.N.P.P.P.P.P.P.P.P.P.P.P.P.P.",
"P.P.P.P.P.P.P.P.P.P.P.P.P.P.P.P.-                     + 0 0 0 V G G G G G G 9 X             d G G G G G G 9 X     f B.J.F.B.P.P.P.P.P.P.P.P.P.P.P.P.P.",
"P.P.P.P.P.P.P.P.P.P.P.P.P.P.P.P.-                     + 0 0 0 F G G G G G G 9 X             s G G G G G G 9 X     f B.J.J.N.P.P.P.P.P.P.P.P.P.P.P.P.P.",
"P.P.P.P.P.P.P.P.P.P.P.P.P.P.P.P.1   .     .           o 0 0 0 F G G G G G G 9 X   .         d G G G G G G 9 X     f B.J.J.N.P.P.P.P.P.P.P.P.P.P.P.P.P.",
"P.P.P.P.P.P.P.P.P.P.I.P.P.P.P.P.I J J J J J J 1 .     $ s s s F G G d 8 8 8 j k J J f       d G G G G G G 8 X     f B.J.J.N.P.P.P.P.P.P.P.P.P.P.P.P.P.",
"P.P.P.P.P.P.P.P.P.P.P.P.P.P.P.P.n.n.n.n.n.n.n.K O     % G G G G G H 9 X   X h %.b.n.U       d G G G G G G 9 X     f B.J.J.B.P.P.P.P.P.P.P.P.P.P.P.P.P.",
"P.P.P.P.P.P.P.P.P.P.P.P.P.P.P.P.P.P.P.P.P.P.P.P O     % G G G G G G 9       k 2.P.P.#.      d G G G G G G 8 X     f B.H.H.U.P.P.P.P.P.P.P.P.P.P.P.P.P.",
"P.P.P.P.P.P.P.P.P.P.P.P.P.P.P.P.P.P.P.P.P.P.P.P O     % G G G G G G 9       k 2.P.P.#.      d G G G G G H 9 X     f N.V.V.P.P.P.P.P.P.P.P.P.P.P.P.P.P.",
"P.P.P.P.P.P.P.P.P.P.P.P.P.P.P.P.P.P.P.P.P.P.P.I O     % ( G G ;.,.,.x       g b.P.P.#.      s G G _ ,.,.,.x o     f P.P.P.P.P.P.P.P.P.P.P.P.P.P.P.P.P.",
"P.P.P.P.P.P.P.P.P.P.P.P.P.P.P.P.P.P.P.P.P.P.P.L O     % G G G t.~.~.=.      J 2.P.P.#.      d G H ,.~.~.~.*.;     f P.P.P.P.P.P.P.P.P.P.P.P.P.P.P.P.P.",
"P.P.P.P.P.P.P.P.P.P.P.P.P.P.P.P.P.P.P.P.P.P.P.P O     % G G G t.~.~.=.      k 2.P.P.#.      d G G ,.~.~.~.*.;     f P.P.P.P.P.P.P.P.P.P.P.P.P.P.P.P.P.",
"P.P.P.P.P.P.P.P.P.P.P.P.P.P.P.P.P.P.P.P.P.P.P.L O     % G G G t.~.~.=.      k b.P.P.#.      d H G ,.~.~.~.*.;     f P.P.P.P.P.P.P.P.P.P.P.P.P.P.P.P.P.",
"P.P.P.P.P.P.P.P.P.P.P.P.P.P.P.P.P.P.P.P.P.P.P.K.b.b.2.2.2.2.L.G.G.Y.K.2.2.b.n.P.P.P.M.2.b.&.m.m.L.L.L.I.I.K.2.2.2.L.K.P.P.P.P.P.P.P.P.P.P.P.P.P.P.P.P.",
"P.P.P.P.P.P.P.P.P.P.P.P.P.P.P.P.P.P.P.P.P.P.P.P.P.P.P.I.U.C.B.G.A.V.U.I.P.P.P.P.P.P.P.P.P.P.P.P.P.P.P.P.P.P.K.I.P.P.K.P.P.P.P.P.P.P.P.P.P.P.P.P.P.P.P.",
"P.P.P.P.P.P.P.P.P.P.P.P.P.P.P.P.P.P.P.P.P.P.P.P.P.P.P.N.Z.H.G.V.V.A.Z.U.P.P.P.P.P.P.P.P.P.P.P.P.P.P.P.P.P.P.P.P.P.P.P.P.P.P.P.P.P.P.P.P.P.P.P.P.P.P.P.",
"P.P.P.P.P.P.P.P.P.P.P.P.P.P.P.P.P.P.P.P.P.P.P.P.P.P.P.N.S.F.F.B.B.A.S.B.P.P.P.P.P.P.P.P.P.P.P.P.P.P.P.P.P.P.P.P.P.P.P.P.P.P.P.P.P.P.P.P.P.P.P.P.P.P.P.",
"P.P.P.P.P.P.P.P.P.P.P.P.P.P.P.P.P.P.P.P.P.P.P.P.P.P.P.B.Z.S.S.V.V.A.Z.U.P.P.P.P.P.P.P.P.P.P.P.P.P.P.P.P.P.P.P.P.P.P.P.P.P.P.P.P.P.P.P.P.P.P.P.P.P.P.P.",
"P.P.P.P.P.P.P.P.P.P.P.P.P.P.P.P.P.P.P.I.P.P.P.P.P.P.P.P.N.B.B.A.A.C.I.P.P.P.P.P.P.P.P.P.P.P.P.P.P.P.P.P.P.P.P.P.P.P.P.P.P.P.P.P.P.P.P.P.P.P.P.P.P.P.P.",
"P.P.P.P.P.P.P.P.P.P.P.P.P.P.P.P.P.P.P.P.P.P.P.P.P.P.P.P.P.P.B.D.S.U.P.P.P.P.P.P.P.P.P.P.P.P.P.P.P.P.P.P.P.P.P.P.P.P.P.P.P.P.P.P.P.P.P.P.P.P.P.P.P.P.P."
};
