/* XPM */
static char *_00ae80b302343a7d8edb5aa6786498fBwpzDaa0Oed0jlc3[] = {
/* columns rows colors chars-per-pixel */
"75 75 45 1 ",
"  c #3D734D",
". c #3F734F",
"X c #3E744E",
"o c #40744E",
"O c #40754E",
"+ c #497E4F",
"@ c #417952",
"# c #448158",
"$ c #478458",
"% c #47875A",
"& c #4B8C5E",
"* c #4A8C5F",
"= c #5A8F51",
"- c #5F9451",
"; c #5E9452",
": c #649852",
"> c #63A15B",
", c #64A15B",
"< c #62A05C",
"1 c #64A15C",
"2 c #72AA57",
"3 c #75AD57",
"4 c #77AD56",
"5 c #79AF55",
"6 c #7BAF55",
"7 c #72AB58",
"8 c #79B153",
"9 c #7CB053",
"0 c #79B154",
"q c #7AB056",
"w c #7BB056",
"e c #7CB055",
"r c #4B9362",
"t c #4D9061",
"y c #4C9161",
"u c #4C9361",
"i c #4E9360",
"p c #4D9162",
"a c #4C9363",
"s c #4E9263",
"d c #4E9461",
"f c #509362",
"g c #519561",
"h c #539660",
"j c #509462",
/* pixels */
"pprppppppupafuppupuapppappppppppuppappppaiuupppapppupppappuupurpppappppupup",
"ppppppupuppppupapppupupupupuppaauppugpappappupppapupppapapppppprppgppaauupp",
"uupppppuapapuppupppaupappppapppupufppuappppapuppppapXXtapuaaaapppipppupppup",
"uppuapapppgppppgpupufppappfagapuupppppauauppppuaapuuX.rpppppapppppgaaupuppa",
"pupppuupupupuuppppappfuppapupupppppppppappppppupppppoXpppupppirpppapppauuap",
"pauppappppupppaauppapupuppppuppaaauuupupgapappguu@oXptoXppappapppppuapppupp",
"appaupauppupappppuppuppppupugppappupupgpaappppupp@oXppXXuppuppirpupappapppu",
"paapfppppuapgppupfaupupapuupppapapppuuppg&pupupuugppXXppapupupupufuupuppufp",
"puppappaupupppuppaappupppppauupppppapaaufppuppupaappoXapapupppppppuaipppfua",
"pppppppupupauppuupppppupuaupppuaapappppppauppupuppuu##puuppupapuappupuppppp",
"upfpupupppppppuupuauappupuppuppppaapfpaupppupppuupppauupfuppppugupupppurpuu",
"augupupuapafpaupfapppuuppfppupppuupuappuuappppppuppppppuapupapppppppuppuppp",
"pppppuppppppppaapupppuppuupupupufpuppupppppppppupupugrppuppppupupapuappuapu",
"pppupupuuaapapupuapuppapppupupuppuapupppiaprpprpupupapppuppgpppapaupppuppua",
"apufpupuaugpppfpappppuupppgppupapppauaupe0rrpprppppuappppuuupuppgppuappppap",
"pppppuppppupapapupapppppupppiapagfpppuapeerpprpiaappapauppppupupupppauiiaap",
"ppppaufappupppppuuapaaapappppppapruapppaw6454uppapupppauappuppapiupppppaipp",
"puupapppuppppaupupppppfuuppuuppprgppaappe588epppppuppaupfupupappappuappapia",
"papupupppupauppuaagppppapupagppuppuppupaeewwerpppafppapppuppupuapapppuappup",
"pppppupppppfpaww&hapaappapppppppppppfapue5655rppp2wwpuprppfapappppaupppuppa",
"upppupuppapapp85gppupppupppppapppupurprp056e4tppp2e8rprpauupppupafpppauppaa",
"aupapppupppppp50gpuuaiapppappapuupuppppprr555oX58e80pppipuppappppppppuppupp",
"ufpapappafpupu00appuapupappfugpppuppppuupu866oo6ee08rppppaupupugpupapapappu",
"uppauppaupupupeeapp>>papupapppguupupprappp;;-==6e:;;ppprpppupppppfuupuuppup",
"ppupuppppupupr6egppwwpuuppupuppppppugpapuaooo5585+oXfupaaapuppppppupupapupp",
"paupppuaaiuprp6wgpaw8ppppaappaupapuppppupuooo5556+oXppuapaauupuuuppupuppauu",
"pugppaupppparpeegpa8wuppupiupuupappppapuuppuuooXo*rppppppappppappuupppupppp",
"ppppppppauuprreegpp8wpppppupuupppapauupppppp&oXXX*ppippiappuppuppupaupgpppp",
"uppuuapappaiipppppr5eruuuppppiappppafppuppaaupuppppupppapgupupupufauupappap",
"appaupfupupprppuppue5rppaupppppppauppappaapppupappppupaapupppupupupppppupap",
"apupuappgppuppuprpue8ppuppugppupuapaguauaaupuppppupupuaappappuufppupuauppaa",
"pppufppuppappupuppppppappupupapuuppppppph&puppapupuppafppafuppappupuppppapf",
"ppaappupupupppppupupapppupppppauppuauappagpupppuppappapuppappppppupapaapuir",
"ppgauapuappapgauguppppapupuapappgapuauprpapppuupuaappuauuppauaapappupappaap",
"ppgappprpppaupappppupupappufaapuppppppppappuppupupppppafruppuppuupppppppppi",
"ww&upppriaapppppuppupapuuppppapuppuuauppag&ppuppppapuppauppugupppupppupuuup",
"weuuprpppppugpppupupprpppuppppppaapppppppupuuppppufaapappppppapurppppppppua",
",>,>>iipapupuppaapupiipuuppappuppfuaagapupupapaupauppupauupippppgarppguuu>>",
"ru4ewpppaappuuaupapppapuppppppppupfppuppappappppuapupuppppaapaufpppappupgee",
"pu4ewiapppappuppppauupppuaapgupuupupapappuppfuupfpppppupppuppppppupapapugeq",
"eegppppppafapppupauupppappppuppppupupaauappuappppppfpupuaaaipupupuappaapupa",
"0egprpppappppuappppuupapppappgauuppppaappapgppapauuuapppupappppppuppuuuppap",
"rrtrpppaupupugppppapppapprappppapapupppuapppapprpupppuupppaapuppupupgppapup",
"rrtruappppfupuppaafaaupaipippuapppppaauppupuppppupaupppupupappuppupppppppap",
"uppupapapapppupapuppuufppuaappuuappauppuparpprurppaaupauauauappapupppapaupu",
"pappuappupuaupuapuppappauppppgpppuppupuppaguppuppaupppppppppppaupppuupupppu",
"puupuppupuupppapupgpupppuppppaapuppfpgppapppppupagppapupufpuppppippappaappg",
"&ppapupfpupupppppuapppuupupaauppappupupppupupppupuppppfpapppaupuaauupuppppp",
"hfappppuppppapuapappapapppapupuupfappfuppfupupupppapupppappuppafapupuapaapp",
"aapaipupgaupppupjpapapa%@@pppuppuupaauppauppfpapuppuppuaapupupuppppupppppua",
"ppuppppapupuppfpappppap$oopuupappppuppappppupapuuppppupppppfguppppupuuppupg",
"paapiauappuppupaupuupuu$oouppupppaappuuppapuppupgupuuppuaapapppaapppppugppp",
"ppufpapprpipaafppupppoX#prXXtrrpgppupupuuppappapppaipuauppuppuppaaiupapfpua",
"pfappppurpppappaupuppXX#ppXXttpppppapapppupuauuppppupuupupaaipuppappppuauup",
"ppupupuppprpiaapuuppppp$XXtppatppppuppppfuuapppppapppaaupupppappppppuppurap",
"pupupupprppppaappprppru$XXrpppatuauappguppupupapaappappppfupappuappupupapup",
"papapupuprapapupppupappupuapappaaapappgaupuufapapuprappapuhwwuapppupupupapp",
"pappppuppppppaupupfpuppupppppfuuppupfpppppappppppppppupappaw8aupppppaupapau",
"ufppupupppuapppupapapappupuappuppppuappppappppapapgpupuapp&eepppagpppapppaa",
"upapaupuuppuuppgapuuufppaupupppppuuppaapppuuuppuappgup0eaaheeupuppapapupppp",
"appapuppappgppuppapauppppppauppapaaaaprrpupppppuapauupeqaahe0rrppuppuappppu",
"uppfuppuppaauuuppupufpauufappfapupppgppppaupuaupapiipueqaaheerppauufppauapp",
"pauppppppappappuupappauppppupuupppuppaapupppfpuppuppupeeaa&eeuppupppuppppap",
"ppapupaappapppfapuppuppupaupaupapupuuppappapuapappaapu0eaag*gppupupupuafuua",
"upufpupppupppauppupuppuufpuppuppapappuapppuapppppauapp9wfppppuupuaprpuapupp",
"aupauppapapupappapppauppapppupppppapupppupuppppuapppupw8uppapppppprupppappu",
"ppuappppfppupppppaugppapppuaupapppppfpuupupugruppupppppauappaapuapupapapppr",
"ufppppguupupufpappppupupupfpaupuapprpapppupfuppaapupuappppuappupippuppupppp",
"apppuupuppuuppupafpupupappppppawerrppuppafupuppuupuppupupppppppupaupuupuppu",
"ppaappupapappaaaapapppupuuppufaweurpupppuppppupuauppupgpuppapgupuppppppgaug",
"ppappppupppfappuppappppppppp509upewppuprpppuuppppppapappippapppuppapupppppa",
"puupuuppuppapapuupupaaufappr5eeua8wpfaprpaapppapfuapaappapuppaapguppfapaapp",
"paupappuappppppppupppuuppuup44eag35rpppppgpgppfupppaaupppuppgppppuppuppuupu",
"pupppapppppuuiupppuppuppuppppuawquarprpppapuauppapuiapapappppupappppppuppua",
"ppufppupfuappaapapupuauppupapppeeupuprpppppppuapuppuppupupuppppgpauapupupap"
};
