/* XPM */
static char *a418e56355b74d4ddae41b4244b97306UFkT2ttf9xb6Pv9A[] = {
/* columns rows colors chars-per-pixel */
"60 74 184 2 ",
"   c None",
".  c #000000",
"X  c #0A0501",
"o  c #0B0B0B",
"O  c #140B04",
"+  c #1A0D06",
"@  c #150E08",
"#  c #1C0E09",
"$  c #12100E",
"%  c #1B110B",
"&  c #1F1206",
"*  c #131313",
"=  c #1C1C1C",
"-  c #181717",
";  c #380909",
":  c #24150A",
">  c #2A170B",
",  c #2C190C",
"<  c #201606",
"1  c #321C0D",
"2  c #381D0F",
"3  c #201E1E",
"4  c #241C12",
"5  c #351F11",
"6  c #391E10",
"7  c #1F201F",
"8  c #38200F",
"9  c #352112",
"0  c #3C2313",
"q  c #34241B",
"w  c #232222",
"e  c #2A2826",
"r  c #2C2D2C",
"t  c #272B28",
"y  c #302A27",
"u  c #2D3431",
"i  c #333635",
"p  c #333835",
"a  c #363B3A",
"s  c #3B3D3C",
"d  c #3C3D37",
"f  c #422514",
"g  c #492617",
"h  c #452915",
"j  c #4B2B16",
"k  c #4D2B1A",
"l  c #48271A",
"z  c #522D19",
"x  c #592E1C",
"c  c #4B3018",
"v  c #55311A",
"b  c #5C341E",
"n  c #5E381C",
"m  c #62361D",
"M  c #623A1B",
"N  c #6A3E1F",
"B  c #4C3B2E",
"V  c #5F3E22",
"C  c #443E35",
"Z  c #4B3E34",
"A  c #643521",
"S  c #6A3623",
"D  c #653B22",
"F  c #6C3B22",
"G  c #723D24",
"H  c #793F26",
"J  c #3C413F",
"K  c #44443D",
"L  c #6D4122",
"P  c #734524",
"I  c #7A4426",
"U  c #794926",
"Y  c #76442A",
"T  c #7D482A",
"R  c #3E4341",
"E  c #414543",
"W  c #454946",
"Q  c #464A48",
"!  c #4B4C4B",
"~  c #484A45",
"^  c #544D41",
"/  c #4D524D",
"(  c #50554F",
")  c #4F5350",
"_  c #525452",
"`  c #555A54",
"'  c #595C55",
"]  c #5B5D5A",
"[  c #575C58",
"{  c #5C615C",
"}  c #61655E",
"|  c #65695F",
" . c #5F6560",
".. c #636562",
"X. c #656962",
"o. c #6A6D65",
"O. c #696C69",
"+. c #686662",
"@. c #6E7167",
"#. c #6E726A",
"$. c #72766C",
"%. c #75796E",
"&. c #797B6F",
"*. c #6F7370",
"=. c #747474",
"-. c #767B71",
";. c #7B7E73",
":. c #7C7C7B",
">. c #85472B",
",. c #8A4D2A",
"<. c #844A29",
"1. c #8D522B",
"2. c #92562E",
"3. c #955A2E",
"4. c #98592F",
"5. c #944F32",
"6. c #8C5431",
"7. c #935432",
"8. c #985232",
"9. c #975B31",
"0. c #9B5C32",
"q. c #A25E36",
"w. c #A55F38",
"e. c #9A6134",
"r. c #A46434",
"t. c #A66338",
"y. c #AC653A",
"u. c #AD6A3B",
"i. c #AB6937",
"p. c #B36C3C",
"a. c #B86F3E",
"s. c #B1653B",
"d. c #B6723E",
"f. c #BA713F",
"g. c #BC7441",
"h. c #BD7941",
"j. c #C57D45",
"k. c #7E8176",
"l. c #7E8076",
"z. c #7E8279",
"x. c #7D8279",
"c. c #808277",
"v. c #808379",
"b. c #81857A",
"n. c #82867D",
"m. c #81847B",
"M. c #85887D",
"N. c #84897F",
"B. c #C48044",
"V. c #C98045",
"C. c #D48947",
"Z. c #D68A49",
"A. c #D7944C",
"S. c #DA934D",
"D. c #DE9B4E",
"F. c #DF9A51",
"G. c #E09A50",
"H. c #838484",
"J. c #838A81",
"K. c #858A82",
"L. c #868A81",
"P. c #898D84",
"I. c #898988",
"U. c #8C9186",
"Y. c #8E938A",
"T. c #91968D",
"R. c #93998F",
"E. c #8E9090",
"W. c #939393",
"Q. c #959C92",
"!. c #9A9F96",
"~. c #9B9B9B",
"^. c #9CA096",
"/. c #9BA298",
"(. c gray65",
"). c #A9AEA5",
"_. c #ACACAC",
"`. c #A5ABA2",
"'. c #B3B3B3",
"]. c #BDBDBD",
"[. c #C4C4C4",
"{. c #CACACA",
"}. c #D6D6D6",
"|. c #D9D9D9",
/* pixels */
"                                                                                                                        ",
"                                                                                                                        ",
"                                                                                                                        ",
"                                                                                                                        ",
"                                                  %.J.x.J.x.N.x.J.J.J.-.                                                ",
"                                                R T.J.x.P.x.b.z.l.-.%.x.(                                               ",
"                                                R P.%.x.K.l.l.b.-.#.O.o.W                                               ",
"                                                R l.l.l.l.l.-.x.#.X.O.#.J.                                              ",
"                                                  { l.x.:.u.;.n.%.o.o.{                                                 ",
"                                                  R l.*.:.;.;.m.#.#.O.[                                                 ",
"                                              W / R *.x.J.x.;.m.$.$.#.{ ` [  .                                          ",
"                            / +.          X.P.T.l.J { *.x. .%.k.k.k.;.` Q.Q.Y.` Q         | W                           ",
"                          { #.-.U.    ( [ x.l.x.#.J R x.#.#.-.=.%.;.%.` Y.%.-.J.J.`     #.U.M.                          ",
"                        #.l.;.x. . .X.Y.x.l.X.X.l./ R x.m.;.n.v.x.;.k.] x.#.#.#.@.K./ X.U.N.b.M.W                       ",
"                      / J.%.-.-.[ x. .x.l.l.x.x.x.X.R x.v.v.x.l.;.@.$.{ -.-.-.#.#.@.R N.N.U.N.c.x.E                     ",
"                    _ K.%.-.-.-.x.x.[  .x.l.l.l.o.X.R X.o.#.#.$.#.O.} { #.-.-.#.-.` #.N.M.N.M.b.l.$.                    ",
"                    R #.%.-.#.%.-.#.x.J o.%.K.#.> & < O X X . . . . . $ R #.#.-.&.X.P.c.c.k.z.K.N.X.                    ",
"                      ~ $.-.-.%.$.%.l.X.Q o.0 0 9 , 9 O X . . . . . . . . - W O.! -.c.m.c.k.-.N.#.E                     ",
"                        / #.-.-.%.x.-.} B h h h 8 1 1 O . X . . . . . . . . X 7 p k.c.;.m.N.m.{ '                       ",
"                      { m.! -.%.X.-.{ k L L v c 8 , 1 O X X . . . . . . . . . . . r o.#.%.L.' l.%.{                     ",
"                    K Y.K.` / -.@.o.Z P 6.P V l 0 , 8 O X . . . . . . . . . . . . X J { #./ W N.m.@.I.                  ",
"                    z.x.&.m.` Q / B Y e.7.Y n j 0 1 8 O X X . . . . . . . . . . . . . 7 E -.N.m.N.k.`                   ",
"                  _ -.-.%.N.n. .b 6.2.t.r.U D k h , 1 O X X . . . . . . . . . . . . . . K -.-.z.m.m.%.Q                 ",
"                  { %.-.l.-.x.^ U B.7.t.t.U D v h 1 9 % X X . . . . . . . . . . . . . . * { c.L.z.z.%.{                 ",
"                X._ { #.%.L.} L u.A.e.g.t.U F v j 1 1 + O X . . . . . . . . . . . . . . . w | k.$.#./ _ `               ",
"                L.N.} ( @.-.D 2.u.A.0.g.t.U N v h , 1 + X X . . . . . . . . . . . . . . . . r o.{ ( k.#.X.              ",
"              ` k.$.z.Y.X.` e.i.p.F.r.p.r.U L v h , 1 + O . . . . . . . . . . . . . . . . . * / { U.$.$.X.              ",
"              :.$.&.#.$.#.c j.p.d.F.i.p.t.P D c f > 1 + X . . . . . . . . . . . . . . . . . . ` $.$.$.&.$.              ",
"              -.k.@.l.@.X.c B.f.f.F.r.f.y.L n j f > 1 + X X . . . . . . . . . . . . . . . . . W @.$.#.#.-.H.            ",
"              $.&.$.$.$.| n j.f.p.D.r.f.t.P b l f , 1 + X . . . . . . . . . . . . . . . . . . p @.#.$.%.%.=.            ",
"              Q K J W J K M B.i.t.D.9.d.u.U F v h 0 q w & % . . . . . . . . . . . . . . . . . . W W K J W J             ",
"        ) $.Y.`.).).)./.K M B.r.y.A.9.f.u.U P z h 0 r 3 % O . . . . . . . . . . . . . . . . . . J T./.U.Y././.n.#.J     ",
"        ..o.$.#.X.@.&.$.Z M B.y.u.A.r.g.i.U F v h 1 w w = % . . . . . . . . . . . . . . . . . . J $.;.-.v.;.%.%.] E     ",
"        x.#.-.-.$.@.#.$.Z M B.i.p.D.r.f.t.U L v 0 % = w w % . . . . . . . . . . . . . . . . . . J P.:.;.M.:.;.&.{ J     ",
"        x.#.-.L.N.z.@.$.K n B.p.d.D.r.s.e.U F v 0 - e = 3 % . . . . . . . . . . . . . . . . . . J P.-.&.k.;.;.c.] R     ",
"        -.@.;.k.b.b.%.#.B M V.a.p.F.r.p.q.P m j 0 r = * = O . . . . . . . . . . . . . . . . . . J Q.%.&.;.c.-.-.{ J     ",
"        o.#.-.;.l.;.;.%.B M B.f.f.G.r.s.0.P v j 8 r - - $ O . . . . . . . . . . . . . . . . . . J Q.;.;.:.k.-.%.{ J     ",
"        { @.X.o.X.o.-.#.K M h.g.f.S.r.u.0.L z g , t = = @ O . . . . . . . . . . . . . . . . . . R P.$.o.@.%.o.o._ J     ",
"        ` } } { { } O.} B M h.g.f.S.0.t.0.L z h > w w % : O . . . . . . . . . . . . . . . . . . R *.O.| ..} ] ` / J     ",
"        J R J J J J J J K M h.g.f.C.3.p.y.P z f > - $ : : O . . . . . . . . . . . . . . . . . . R s J J J J J J J J     ",
"              } Y./.P.$.J M f.h.p.C.2.p.i.G j f , % % > : @ . . . . . . . . . . . . . . . . . . J %.!.).L.R             ",
"              $.P.U.l.l.K M h.f.f.S.3.p.y.L j f 1 1 9 > & O . . . . . . . . . . . . . . . . . . J R.=.%.O.E             ",
"              X.x.J.#.l.B M d.h.f.C.3.p.s.N z f 9 0 1 : % O . . . . . . . . . . . . . . . . . . J Q.;.-.-.R             ",
"              { l.x.x.x.d M d.f.p.C.2.p.y.L z h 0 2 1 : # O . . . . . . . . . . . . . . . . . . J R.;.#.%.E             ",
"              } @.e.J.*.K M f.f.f.S.r.f.p.U v h f 1 1 + X X . . . . . . . . . . . . . . . . . . J N.O.X.o.R             ",
"              { $.c.x.*.B M B.g.f.S.r.f.p.P m j f : , + X . . . . . . . . . . . . . . . . . . . J M...{ } R             ",
"              X.@.@.| | K M f.h.f.C.3.f.y.L z j f > 1 + X X . . . . . . . . . . . . . . . . . . R #.@.{ } R             ",
"              ` { { ( ~ C M d.f.p.D.4.p.4.N j j f 1 1 + X . . . . . . . . . . . . . . . . . . . R { { { { R             ",
"        J a J p a a a p d M f.f.a.S.2.y.3.N x g f 1 1 O X X . . . . . . . . . . . . . . . . . . J s J J J J J Q Q Q     ",
"        o.P.R.^.^.^.T.T.C n f.p.f.D.0.0.2.L z f f 1 1 O X . . . . . . . . . . . . . . . . . . . J T.Y.Y.Y.x.x.x.o.J     ",
"        #.-.&.&.k.k.-.X.K M f.h.s.Z.1.2.,.m j f f 2 1 O . . . . . . . . . . . . . . . . . . . . J P.{ @.#.x.x.x.{ J     ",
"        #.#.k.l.z.&.k.@.K M h.f.s.C.,.1.,.m z 6 f 2 > O . . . . . . . . . . . . . . . . . . . . R L... .l.U.x.x.{ J     ",
"        -.#.-.m.c.%.$.@.B M d.i.s.Z.,.,.>.A k 0 2 1 , O . . . . . . . . . . . . . . . . . . . . J Q.@.@.;.M.x.x.{ W     ",
"        :.&.&.k.c.&.@.$.C M f.i.s.S.<.,.H m g 6 1 1 > . . . . . . . . . . . . . . . . . . . . . R Q.m.m.c.&.O.x.{ Q     ",
"        #.&.-.k.c.&.$.| K M h.0.s.j.N I G b l 6 1 1 . . . . . . . . . . . . . . . . . . . . . . J P.v.-.u.J.*.*.{ W     ",
"        o.%.-.k.&.@.| | K M f.1.8.j.m F S x f 6 : . . . . . . . . . . . . . . . . . . . . . . . J x.v.x.:.J.x.*.( J     ",
"        ` X.| { { { { { C M d.,.5.g.x S A z l 2 . . . . . . o X . X . . . . . o o X X o . o o o R Q [ { { { { W Q J     ",
"        R W Q J J W ! W d M d.<.>.s.x S x x l . . . . . . . o o o o o o o o $ $ o * * * = = 3 3 J J J J W Q Q a u J     ",
"              X.&.z.x.&.C M d.<.G w.x S S 0 . . o o o o * o * o * = = 7 w w r u r i s s i a a i J x.m.N.;.R             ",
"              { @.%.-.k.C M B.I S 5.x S x . o o o o o * * - 3 r r r p s s s E ) _ _ _ _ _ _ _ ! J Q.$.#.#.R             ",
"              | x.:.:.e.C M i.I S 5.x x o o o * o * * - = r i i E ! ! _ ] ....O.+...] ] ] ....[ J Q.%.&.%.R             ",
"              #.x.-.*.c.C n i.N S 5.l * * * - - 7 a s Q ! _ ] ..=.:.:.:.H.H.H.I.I.I.I.I.H.H.H.:.J P.$.%.%.R             ",
"              X.x.O.&.-.C M i.F 5.S * - - 3 r ! ] ....=.=.:.W.W.W.~.~.~.~.~.~.~.~._._._._._.(.Y.J n.-.#.x.J             ",
"               .x.*.o.X.d M u.S H * = 3 e ! _ ] ..=.:.H.W.W.~.~._._._.'._.'._._._.'.'.'.'.'.'.~.J %.-.l.k.W             ",
"              | o...} ..C n i.k = t i E / [ O.:.H.E.~.(._.'.].'.].].].[.].].].].[.[.[.[.{.}.}.].R *.-.k.z.E             ",
"              ` ] { { Q J & - w r i E _ ] :.u.E.~.(.'.].].].{.{.[.[.{.[.[.{.{.{.{.}.}.}.}.|.}.[.p { ] { { R             ",
"              a p a u a t 4 r s ; ; ! ] =.W.(._._.[.[.[.].[.[.[.{.{.{.{.                        p u a a J R             ",
"                                                                                                                        ",
"                                                                                                                        ",
"                                                                                                                        ",
"                                                                                                                        ",
"                                                                                                                        ",
"                                                                                                                        ",
"                                                                                                                        "
};
