/* XPM */
static char *result[] = {
/* columns rows colors chars-per-pixel */
"75 75 223 2 ",
"   c #4D9162",
".  c #4C9262",
"X  c #4B9262",
"o  c #4C9162",
"O  c #4D9261",
"+  c #4E9161",
"@  c #4D9262",
"#  c #4C9361",
"$  c #4E9262",
"%  c #4D9263",
"&  c #4C9261",
"*  c #4E9362",
"=  c #4C9362",
"-  c #4D9161",
";  c #4C9161",
":  c #407650",
">  c #4E9263",
",  c #4B9261",
"<  c #4E9261",
"1  c #4B9361",
"2  c #3D734D",
"3  c #3F734E",
"4  c #3E734E",
"5  c #4D9163",
"6  c #407951",
"7  c #3F724E",
"8  c #4D9362",
"9  c #417951",
"0  c #3E744E",
"q  c #4C9263",
"w  c #4E9162",
"e  c #4C9163",
"r  c #3E734D",
"t  c #020403",
"y  c black",
"u  c #000100",
"i  c #3F7750",
"p  c #3F744F",
"a  c #4B9362",
"s  c #3F7951",
"d  c #448056",
"f  c #48885C",
"g  c #0C170F",
"h  c #0C160F",
"j  c #0B160F",
"k  c #4A311E",
"l  c #131810",
"z  c #362114",
"x  c #432B1A",
"c  c #4F9162",
"v  c #48865B",
"b  c #573A23",
"n  c #0B0704",
"m  c #402717",
"M  c #4E331E",
"N  c #4E9360",
"B  c #47875A",
"V  c #010101",
"C  c #060403",
"Z  c #412717",
"A  c #442A19",
"S  c #4C9363",
"D  c #4D9361",
"F  c #15291B",
"G  c #15281B",
"H  c #4C9360",
"J  c #7AB055",
"K  c #7BB055",
"L  c #509461",
"P  c #0A130D",
"I  c #2E1C11",
"U  c #7AB054",
"Y  c #4F9361",
"T  c #523621",
"R  c #513520",
"E  c #79B053",
"W  c #509361",
"Q  c #4B301D",
"!  c #492E1B",
"~  c #4B9360",
"^  c #4F9461",
"/  c #0D150C",
"(  c #7BAF55",
")  c #0F1C13",
"_  c #0E1B12",
"`  c #312012",
"'  c #342013",
"]  c #9C6F52",
"[  c #9A6D51",
"{  c #986C50",
"}  c #422918",
"|  c #509460",
" . c #382214",
".. c #482D1C",
"X. c #AC7B5D",
"o. c #422919",
"O. c #519361",
"+. c #509462",
"@. c #21110D",
"#. c #2D1D17",
"$. c #C0AC8F",
"%. c #251510",
"&. c #533721",
"*. c #835B43",
"=. c #533623",
"-. c #529561",
";. c #22412C",
":. c #1C3524",
">. c #1C3523",
",. c #5A493C",
"<. c #625042",
"1. c #5D4B3E",
"2. c #6E5742",
"3. c #795D47",
"4. c #4F331F",
"5. c #29190F",
"6. c #252014",
"7. c #519561",
"8. c #BCA386",
"9. c #64A15B",
"0. c #63A15C",
"q. c #64A05B",
"w. c #63A15B",
"e. c #4E9361",
"r. c #64A15C",
"t. c #74AD56",
"y. c #7AAF55",
"u. c #B08668",
"i. c #B1886B",
"p. c #B08466",
"a. c #77523B",
"s. c #583926",
"d. c #0E0905",
"f. c #3B724C",
"g. c #417B53",
"h. c #529560",
"j. c #7AB056",
"k. c #75AC56",
"l. c #AD7F61",
"z. c #684631",
"x. c #519461",
"c. c #7CB055",
"v. c #7BB154",
"b. c #010201",
"n. c #79B154",
"m. c #79B055",
"M. c #529461",
"N. c #4E9264",
"B. c #0D0907",
"V. c #996C51",
"C. c #050302",
"Z. c #5D555A",
"A. c #787E97",
"S. c #746B6A",
"D. c #A4A8B5",
"F. c #797F98",
"G. c #336443",
"H. c #305C3D",
"J. c #2E543A",
"K. c #38281E",
"L. c #878CA1",
"P. c #868CA1",
"I. c #634934",
"U. c #69523E",
"Y. c #3E382E",
"T. c #356343",
"R. c #346342",
"E. c #356443",
"W. c #A47558",
"Q. c #998166",
"!. c #45506A",
"~. c #4A76B5",
"^. c #3F6BAD",
"/. c #35476A",
"(. c #2B65B5",
"). c #4B9263",
"_. c #738883",
"`. c #81848F",
"'. c #17355F",
"]. c #1D428A",
"[. c #224F9A",
"{. c #6F8881",
"}. c #7A8689",
"|. c #788687",
" X c #509362",
".X c #7E858C",
"XX c #7D858B",
"oX c #4E9461",
"OX c #6E897E",
"+X c #7C858B",
"@X c #7F858D",
"#X c #777A84",
"$X c #2E1E12",
"%X c #0F0A06",
"&X c #7F858C",
"*X c #7E858B",
"=X c #6C8B7B",
"-X c #768886",
";X c #7F937B",
":X c #768786",
">X c #7F937C",
",X c #788785",
"<X c #80927D",
"1X c #758786",
"2X c #7E927D",
"3X c #648C76",
"4X c #6C897D",
"5X c #6D897E",
"6X c #80848D",
"7X c #80848E",
"8X c #7E9579",
"9X c #7DA06B",
"0X c #539660",
"qX c #7C858A",
"wX c #7AB053",
"eX c #79B056",
"rX c #7AB154",
"tX c #75AD57",
"yX c #76AC56",
"uX c #77AD56",
"iX c #519460",
"pX c #519560",
"aX c #76AD56",
/* pixels */
"  . X   o O o +   @   @ @ # @ @ @ @ @   . X   . O   $   @   @   # @ @ @ % @   . X   . &   @   @ @ @   O @ @ . %     X X   . .   @ @ @ @ @   O @ O . @ ",
"@ @ O @ @ $ @ @ @ @ @ @ @ @ @ @ O @ @ @ @ O @ . @ @ @ . @ @ @ @ @   @ @ @ @ @ @ O . . @ @ @ . @ . @ @ @   @ @ @ . @   O @ . @ @ @ . $ . @ @ @ @ @ . @ ",
"* .   % @     = @   @   @ O @ @ o - @ * . @ % @     @ @   @   * O @ @ o ; @ * . @ % @ o   @ @       * & : : ; ; o * X . % @ .   @ $       * . @ @ O ; ",
"= .   . . % o @ > $ $ @ & @ & @   @ @ = .   . . %   @ > $ % @ & @ , @   @ @ . .   . @ @   @ % < % @ 1 @ 2 3 . @ @ . .   . @ @     @ < % . 1 @ ,   . @ ",
"@ @   @ @ . @ ; $ @ .   @ . @ @ .   . @ @   @ @ . @ - $ @ @   @ @ @ @ .   @ @ @   @ @ . @ - @ @ @     @ 4 3 @   @ @ @   @ @ o @ - @ $ @   5 @ @ @ @   ",
"X . @ @ @ @   O   @ = O   @   @ @ @   X & @ @ & @   O   @ . O   @   @ @ @   X O @ @ & @   O   @ @ 6 7 4   @ 4 4 @ . O @ @ , O   O   @ @ &   @   @ O @ ",
"@ O @ @ . o . . & @ . . @ . @ @ O . @ @ @ @ @     = . & @ @ . @ . @ @ O = @ @ @ @ @   @ 8 . & @ @ 9 4 4 @ @ 4 0 @ . . @ @   @ 8 @ . @ @ @ . . . @ . = ",
". & @ $ 5 O @ @ @ @ @ % . q - @ w @ . . & @ < e O O O @ @ @ % @ % - @   @ . . O @ < o @ O O @ @ @ % @ @ r 4   @ @ . O @ O o @ O # @ @ @ @ @ @ - @   @ ",
"  @ $ - < O   @ O & = O   @ @ @ % . .   @ @ -   O   @ O O = <   @ t y y y y u @ @ i y y y y y y y y y y y p % @ . o @ . -   O   - & O a <   @ @   @ @ ",
"@ @ $ . @ @ @ @   . . & @   . @ @ . @ @ @ @ . . @ @ .   . . & @ @ t y y y y y @ @ s y y y y y y y y y y y d   . @ @ @ @ @ . @ @ . @ . . O @ . o @   . ",
"@ @ < ; @ @ @ @   @ $ ; . . = . O @ @ @ @ O ; @ @ @ @ f g h h h j u y y k k k j j l z z x k k k k k y y y . O @ @ @ @ . ; @ @ @ @ @ $   - X @ = . @ @ ",
"@ O @ . & @ @ @ c @ . @ - @ $ @ % . . @ < @ X O @ @ @ v y y y y y y y y b b b y y n m m M b b b b b y y u @ @ @ = @ N   . @ @ @ o   @ & @   @ @ @ @ @ ",
"o w .   @ O O @ - O @ . @ @ @ . O @ . o w .   @ O O @ B y y y y y y y y b b b y y n m m M b b b b b y y y . O   . .   @   @ O @ @ O & @ @ O @ @ . O @ ",
"O   @ .   ,   @ O @ @ @ @ @ @ . @ = @ O $ @ X w , V u C b b b b b Z m m b b b m m A b b b b b y y y y y y @ @ S 8 O $   . w &   @ & @ @ @ @ @ @ @ @ S ",
"; @ @ . o # o @ X . @ @ @ @ % @ X X @ ; @ @ . o & y y C b b b b b Z m m b b b m m A b b b b b y y y y y u @ X X . & @ D . . &   q .   @ @ , @ % @ X . ",
"w 5 @   @ @ @ @ . @ . & @ w @ @ @ @ @ w   @   @ @ y y C b b b b b Z m m b b b m m A b b b b b y y y y y u & @ @ @ w @ @ @ @ @   @ @ @ @ . @ O @ & @ @ ",
"@ . @ @ @ @ o . @ o @   @ -   @ = @ @ @ . @ V y y b b b b b b b b b b b b b b b b b b b b b b b b b m m m y y F @ . @ @ $ $ $   @ @   o o @ o o @ . @ ",
"w @ @ . @ @ @   @ @   @ @ . q @ @ & . w @ @ u y y b b b b b b b b b b b b b b b b b b b b b b b b b m m m y y G @ $ @ . . < @ . & . @ @ @ @ @ . @ @ O ",
"@ %   @ @ = . @ . . @ ; @ O @ @ $ @ @ @ %   y y y b b b b b b b b b b b b b b b b b b b b b b b b b m m m y y G @ @ 5 @ @ . @ . @ . . @ . @ @ @ . @ @ ",
"  ; X   o O o +   @   @   H J K L % @ P y y b b b b b b b b b b b b b b b b b b b b b b b b b b b b b b b m m I y   X a   X &   @   @ @ @   O @ O . % ",
"@ @ ; @ @ O @ @ . @ @ @ @ O U K L @ @ P y y b b b b b b b b b b b b b b b b b b b b b b b b b b b b b b b m m I y @ O O @ o @ @ @ .   . @ % @ @   . $ ",
"* .   % @     @ @ @ @   @ O J J Y - @ P y y b b b b b b b b T M M M M M b b b b b b b b R M M b b b b b b m m I y * . @ % @ .   @ @       * . @ @ O & ",
"= X   = . % o @ > $ > @ & @ E U W . @ P y y b b b b b b b b Q m m m m m b b b b b b b b ! m m b b b b b b m m I y . X   = @ @     @ < % . ~ @ ,   . @ ",
"@ @ @ @ @ . @ . @ @ . @ . . J K ^   . / y y b b b b b b b b Q m m m m m b b b b b b b b ! m m b b b b b b m m I y @ @ . @ @   @ @ @ @ @ @ @ @ @ @ . @ ",
". . @ @ @ @   O   @ . O @ @ ( J L ) _ ` ' ' b b b A A Q ] ] [ { { } m m b b b b b b b b ! m m A A A A A A m m I y . O @ @ & @   O   @ @ &   @   @ @ @ ",
"@ O @ @ . o = q , . @ @ @ . J J | y y  .m m b b b m m ..X.X.X.X.X.o.m m b b b b b b b b ! m m m m m m m m m m I y . = @ @   @ = @ , @ @ @ = . . @ . = ",
". & @ @   O @ @ @ @ @ % . @ U J O.y y  .m m b b b m m ..X.X.X.X.X.o.m m b b b b b b b b ! m m m m m m m m m m I y . O @ O o @ O O @ @ @ @ @ @ - @   @ ",
"  @ $ - O O   @ O . = <   @ J J +.y y  .m m m m m X.X.X.X.X.X.X.X.X.X.X.m m m b b b b b ! m m m m m b b b m m I y o @ . -   O   - & O a <   @ @   @ @ ",
"@ @ $ = . @ @ .   . & O @     @ @ y y  .m m m m m X.X.X.X.X.X.X.X.X.X.X.m m m b b b b b ! m m m m m b b b m m I y @ @ @ = . @ @ . . . . O @ .   @   . ",
"@ @ O . @ @ @ @   @ @ ; . . . . O y y  .m m m m m X.X.X.X.X.X.X.X.X.X.X.m m m b b b b b ! m m m m m b b b m m I y @ @ @ ; @ @ @ . @ $ @ @ . @ . . @ @ ",
"@ O @ . # @ @ @ c @ X @ - @ $ @ % y y  .m m y y y @.@.#.$.$.$.$.$.%.@.@.X.X.X.b b &.m m *.X.X.b b b b b b m m I y @ N   X @ @ @ o   @ & @   @ O @ @ @ ",
"o w . @ @ @ O @ O O @ & @ @ @ . @ y y  .m m y y y @.@.#.$.$.$.$.$.%.@.@.X.X.X.b b &.m m *.X.X.b b b b b b m m I y @   . $ @ @ O @ O O @ @ O @ @ X @ @ ",
"O   @ .   , @ @ O @ @ @ @ @ @ . @ V u  .m m y y y @.@.#.$.$.$.$.$.%.@.@.X.X.X.b b &.m m *.X.X.b b b b b b m m I y O $ @ . w &   @ . @ @ @ . @ @ @ @ = ",
"; @ @ . e H o 8 X o @ @ O % % @ X X @ P y y y y y @.@.#.$.$.$.$.$.%.@.@.$.$.$.m m =.X.X.X.X.X.b b b m m m m m I y ; @ D . X &   q X   @ @ , @ % @ X . ",
"$ 5 . @ @   @ @ . @ . @ @ $ . @ q @ @ P y y y y y @.@.#.$.$.$.$.$.%.@.@.$.$.$.m m =.X.X.X.X.X.b b b m m m m m I y @   @ @ @ @ @ @ @ @ @ @ ; O . O . @ ",
"J J -.@ @ @   . @ o .   @ -   @ = @ @ ;.:.>.y y y ,.,.<.$.$.$.$.$.1.,.,.$.$.$.2.2.3.X.X.X.X.X.4.4.4.m m m 5.5.6.>.. @ @ $ $ $   @ @   o o @   o @ . @ ",
"( J 7.. @ @ @   % @   @ @ . q @ @ & . c @ @ u y y $.$.$.$.$.$.$.$.$.$.$.$.$.$.$.$.8.X.X.X.X.X.m m m m m m y y G @ w @ & . < @ @ & . @ @ @ @ O q @ @ O ",
"9.0.q.9.w.@ . . . . @ & @ @ @ @ w @ @ @ @ @ u y y $.$.$.$.$.$.$.$.$.$.$.$.$.$.$.$.8.X.X.X.X.X.m m m m m m y y G @ @   @ @ . @ . @ . ; @ . @ . @ e.w.r.",
"  . t.( y.O o +   @   @ @ H . @ @ % @   . X u y y u.u.i.$.$.$.$.$.$.$.$.$.$.$.u.u.p.X.X.a.s.s.m m m d.d.d.4 f.g.    X X   . .   @   @ @ @   O @ h.J j.",
"@ @ k.J J O . @ . @ % @ @ O O @ @ @ . @ O ; u y y X.X.l.$.$.$.$.$.$.$.$.$.$.$.X.X.X.X.X.z.m m m m m y y u   . > . @ O @ @   @ @ @ .   . @ > @ O x.J c.",
"v.J -.@ @   . @ @ @ @ @ @ < @ @ & . @ * . @ b.y y X.X.l.$.$.$.$.$.$.$.$.$.$.$.X.X.X.X.X.z.m m m m m y y V @ & & @ 8 . @ @ @ . o @ @   @ @ * @ @ @ O & ",
"n.m.M.= . % o @ > $ > @ & @ & O   . @ = X   = . N.y y B.X.X.X.X.X.X.X.X.X.X.X.X.X.V.m m m m m y y y ~ @ ,   o @ @ . X 5 = @ @     @ < % . ~ @ ,   . @ ",
"@ @ @ @ @ . @ . @ @ . @ . . @ @ . @ . @ @ @ % @ @ y y B.X.X.X.X.X.X.X.X.X.X.X.X.X.V.m m m m m y y y @ . @ $ . $ @ @ % . @ @   @ @ @ @   @ @ @ @ $ . @ ",
". . @ @ @ @   O   @ . O @ @   @ @ @ . X . @ @ O @ y y B.X.X.X.X.X.X.X.X.X.X.X.X.X.V.m m m m m y y y   @   @ @ . . . O . @ & @   O @ .   @   @   @ @ . ",
"@ O @ @ & o = q , . @ @ O X @ @ O = - @ 8 @ @ o o y y C.m m Z.A.A.A.A.A.A.A.A.b b &.m m m m m y y y = . @ @ & = $ . = @ @     = @ , @ @ @ = . . @ . = ",
"& @ . @ @ @ @ @ O @ @ % @ @ O @ w @ . & @ @ @ . @ y y C.m m Z.A.A.A.A.A.A.A.A.b b &.m m m m m y y y @ @ O @ w O @ @   @ @ . @ @ O .   @ @ % @ O @ w O ",
"  @ $ - @ O   @ O . . O   @ @ @ % . .   @ @ - @ O y y C.m m Z.A.A.A.A.A.A.A.A.b b &.m m m m m y y y   @ @   @ @ . . @ . -   O   - & @ = O   @ @   @ @ ",
"$ O $ = . @ @ . o . & O @     O @ X $ $ @ $ = . @ y y C.m m S.D.D.F.A.A.A.A.A.b b b b b ! m m y y y @ o   @ @ X @ $ @   = X @ @ . . X . O @ .   @   . ",
"@ @ @ . @ @ @ @ @ @ @ . @ . @ . @ @ @ @ @ @ . @ @ y y C.m m S.D.D.F.A.A.A.A.A.b b b b b ! m m y y y . @ @ . @ @ . @ @ @ . @ @ @ . @ @ @ @ . @ @ . @ @ ",
"@ O @ . & @ @ @ w @ . @   @ $ @ % . . @ < @ G.H.J.K.K.K.m m S.D.D.L.P.P.A.A.A.b b b b b I.U.U.Y.Y.Y.T.R.E.@ @ @ q @ N   . @ @ @ o   @ O @   @ @ @ @ @ ",
"  w . $ - @ O @ O O @ & @ % @ . $ @ %   w . u y y X.X.W.m m S.D.D.D.D.D.A.A.A.b b b b b Q.$.$.$.$.$.y y V X @ @ @     . $ $ @ O @ O @   @ O @ @ X @ @ ",
"@   @ .   , @ @ O @ @ @ @ @ @ . @ . @ O @ @ u y y X.X.W.m m S.D.D.D.D.D.A.A.A.b b b b b Q.$.$.$.$.$.y y u @ @ . @ @ $ @ . w & @ @ @ @ @ @ . . @ @ @ @ ",
"; @ @ . o H o @ X o @ @ @ % % @ X X @ ; @ 4 y y y X.X.W.m m !.~.~.~.~.~.^.^.^.b b b b b Q.$.$.$.$.$.y y u @ X X . ; @ < . X &   q X   @ @ , @ % @ X . ",
"O 5 = O @   @ @ . @ - @ @ @ q @ q @ O <   4 y y y X.X.W.m m /.(.(.(.(.(.(.(.(.b b b b b Q.$.$.$.$.$.y y u D . @ @ @   @ $ @ @ @ @ . @ @ @ ; & q D . @ ",
"  . @ @ @ @ @ . @   . o @ - . @ = @ . @ @ @ u y y X.X.W.m m /.(.(.(.(.(.(.(.(.b b b b b Q.$.$.$.$.$.y y u @ . @ @ . @ @ @ $ @   @ @   o . @   . @ . @ ",
"c $ @ . @ @ @ o % @ 5 @ @ X ).O @ & = c @ . _.`.`.y y y y y '.(.(.(.(.(.].].].(.(.(.(.(.[.].].y y y `.`.{.@ @ O @ w @ & X < @ @ , q @ @ @ @ O q @ @ O ",
"$ . @ @ . % . . . @ O . @ @ @ @ w @ @ $ . @ }.`.`.y y y y y '.(.(.(.(.(.].].].(.(.(.(.(.[.].].y y y `.`.|.@ @ > . @  XJ K . @ . @ @ ; @ . $ . @ . @ @ ",
"  . .   o O @ <   @   . @ # . @ @ @ @   . . .X`.`.y y y y y '.(.(.(.(.(.].].].(.(.(.(.(.[.].].y y y `.`.XX@ . % @   oXm.( . .   @   @ @ . @ O @ O . @ ",
"@ @ ; @ @ O . $ = o % @ @ O O @ @ % . OX+X@X`.`.`.`.`.#Xy y $Xb b Z m m y y y y y %Xb b ! m m y y y `.`.`.&X*X=X. . | J J   O @ @ .   . @ > @ O o . > ",
"* @ @ @ @ @ . @ @ @ @ @ @ w @ @ & . @ -X`.`.`.`.`.`.`.#Xy y $Xb b Z m m y y y y y %Xb b ! m m y y y `.`.`.`.`.;X@ 8 ^ U J . @ . @ @ @ @ @ O @ @   O . ",
"= .   . . % o @ > @ > @ & @ & O   . @ :X`.`.`.`.`.`.`.#Xy y $Xb b Z m m y y y y y %Xb b ! m m y y y `.`.`.`.`.>X@ . oX( U @ @   @ @ < % @ H @ X   . @ ",
"@ @ @ @ @ @ @ . @ @ . @ . = @   X $ . ,X`.`.`.`.`.`.`.`.`.`.`.`.`.`.`.`.`.`.`.`.`.`.`.`.`.`.`.`.`.`.`.`.`.`.`.<Xo @ +.J j.@   @ @ @ @ o @ @ & @ $ . @ ",
". . . @ O     O   @ . @ @ @ @ @ @ . . 1X`.`.`.`.`.`.`.`.`.`.`.`.`.`.`.`.`.`.`.`.`.`.`.`.`.`.`.`.`.`.`.`.`.`.`.2X. . L J U & @   O @ .   @   @ @ @ @ . ",
"@ @ @ @ & o . q , . @ @ @ . @ @ O = - 3X4X5X6X`.`.`.`.`.`.`.`.`.`.`.`.`.`.`.`.`.`.`.`.`.`.`.`.`.`.`.`.`.7XOX8X9X$ @ 8 0X0X  @ = @ , @ @ @ = . @ @ . = ",
"O @ . @ @ @ @ @ O @ % % @ @ O @ w @ @ O   . .X`.`.`.`.`.`.`.`.`.`.`.`.`.`.`.`.`.`.`.`.`.`.`.`.`.`.`.`.`.qX@ ( wX  @   @ @ . @ @ @ .   * % % % O % w O ",
"@ @ @ @ @ O o @ O . . @   @ @ @ % . .   @ @ - @ O o @ O @ . <   @ @   @ @ . @ @ @ - @ O o   O @ . O   @ @   J U . @ @ @     O o - & @ . @   @ @   @ @ ",
"$ @ $ = . @ @ . o . & O @     - @ X $ $ @ $ = . @ @ . o . & O @ o   @ @ X @ $ @ $ = . @ @ . . X . O @ o   @ @ X @ $ @   = X O @ . . X . O @ .   @   X ",
"@ @ @ . @ @ @ @ @ @ @ @ @ % @ . @ @ @ @ @ @ . @ @ @ . @ @ @ @ @ @ @ . @ @ . @ @ @ X O @ @ . @ @ @ @ @ @ @ . @ @ . @ @ @ . O @ @ . & @ @ @ . @ @ e @ @ ",
"@ O @ . & @ @ @ w @ . @   @ @ @ @ . @ @ O @ . & @ @ @ w @ . @ J J $ @ @ @ . @ < @ X . @ @ . w @ . @ @ @ $ @ @ @ q @ < @ . . @ @ . @ @ @ @ @ @ @ @ @ @ ",
"  w X $ - @ O O O @ @ , - % @ = > @ >   w . $ @ @ O O O @ @ , U eX@ X > @ @     . $ @ @ O @ O @   & O @ @ X > @ @     . $ $ @ O @ O @   . O @ @ X @ @ ",
"@   @ .   o @ O   @ O @ @ @ @ . @ @ = @ @ @ o   o @ O   K U J . @ rXJ @ @ @ @ @ @ o   . @ O   $ @ @ . . . @ @ @ @ @ @ @ o w O @ O   $ @ @ . . . @ @ @ ",
"; @ @ . . # o @ . . @ @ @ % @ @ . . @ ; @ @ . . #   @ . ( J J . @ eXJ . . @ ; @ O . . &   . .   @ @ . @ % @ . . . ; @ O . . &   . .   @ @ & @ % @ . . ",
"O 5 = O o   @ @ X @ - $ @ @ ).@ ).@ O O   8 < @   @ @ X tXyXuXiXpXtXaX).@ @ O   @ < % @ @ @ . @ @ $ ; & ).e.q @ @ @   @ < % @ @ @ . @ @ @ ; & q N . @ ",
"o .   @ @ @ @ .     . . @ @ . @ @ @ . o @ @ O $ @ @ .     . . J J . @ . @ . . @ @ O $ @ < @ @   o . @ @ . @ . O @ @   @ @ $ @ @ @ @   o .   @ . @ . @ ",
"w @ @ . @ @ @ o % @ 5 @ @ . . O @ O = w @ @ . @ @ @ . % @   @ J J ).@ @ O . w @ . . @ @ @ . % @ @ @ @ . q @ @ O @ w @ & . < @ @ & . @ @ @ @ @ . @ @ O "
};
