/* XPM */
static char *_35903373e474e9abe85c24d7509d1fag6jpMKeLoT4hRRUO[] = {
/* columns rows colors chars-per-pixel */
"75 75 220 2 ",
"   c #4D9162",
".  c #4C9262",
"X  c #4B9262",
"o  c #4C9162",
"O  c #4D9261",
"+  c #4E9161",
"@  c #4D9262",
"#  c #4C9361",
"$  c #4E9262",
"%  c #4D9263",
"&  c #4C9261",
"*  c #4E9362",
"=  c #4C9362",
"-  c #4D9161",
";  c #4C9161",
":  c #407650",
">  c #4E9263",
",  c #4B9261",
"<  c #4E9261",
"1  c #4B9361",
"2  c #3D734D",
"3  c #3F734E",
"4  c #3E734E",
"5  c #4D9163",
"6  c #407951",
"7  c #3F724E",
"8  c #4D9362",
"9  c #417951",
"0  c #3E744E",
"q  c #4C9263",
"w  c #4E9162",
"e  c #4C9163",
"r  c #3E734D",
"t  c black",
"y  c #3F7851",
"u  c #000100",
"i  c #020403",
"p  c #4B9362",
"a  c #448056",
"s  c #4A311E",
"d  c #432B1A",
"f  c #362114",
"g  c #131810",
"h  c #0B160F",
"j  c #0B160E",
"k  c #0C160F",
"l  c #0C170F",
"z  c #48885C",
"x  c #4F9162",
"c  c #573A23",
"v  c #4E331E",
"b  c #402717",
"n  c #0B0704",
"m  c #48865B",
"M  c #4E9360",
"N  c #47875A",
"B  c #442A19",
"V  c #412717",
"C  c #060403",
"Z  c #010101",
"A  c #4C9363",
"S  c #4D9361",
"D  c #15291B",
"F  c #15281B",
"G  c #4C9360",
"H  c #7AB055",
"J  c #7BB055",
"K  c #509461",
"L  c #2E1C11",
"P  c #0A130D",
"I  c #7AB054",
"U  c #4F9361",
"Y  c #513520",
"T  c #523621",
"R  c #79B053",
"E  c #509361",
"W  c #492E1B",
"Q  c #4B301D",
"!  c #4B9360",
"~  c #4F9461",
"^  c #7BAF55",
"/  c #422918",
"(  c #986C50",
")  c #9A6D51",
"_  c #9C6F52",
"`  c #342013",
"'  c #302012",
"]  c #0E1B12",
"[  c #0F1C13",
"{  c #509460",
"}  c #422919",
"|  c #AC7B5D",
" . c #482D1C",
".. c #382214",
"X. c #519361",
"o. c #509462",
"O. c #835B43",
"+. c #533721",
"@. c #21110D",
"#. c #251510",
"$. c #C0AC8F",
"%. c #2D1D17",
"&. c #533623",
"*. c #529561",
"=. c #1C3523",
"-. c #252014",
";. c #29190F",
":. c #4F331F",
">. c #795D47",
",. c #6E5742",
"<. c #5A493C",
"1. c #5D4B3E",
"2. c #625042",
"3. c #1B3423",
"4. c #1C3524",
"5. c #22412C",
"6. c #519561",
"7. c #BCA386",
"8. c #4B9263",
"9. c #64A15B",
"0. c #63A15C",
"q. c #64A05B",
"w. c #63A15B",
"e. c #4E9361",
"r. c #64A15C",
"t. c #74AD56",
"y. c #7AAF55",
"u. c #417B53",
"i. c #3C714C",
"p. c #3D734E",
"a. c #0E0905",
"s. c #583926",
"d. c #77523B",
"f. c #B08466",
"g. c #B08668",
"h. c #B1886B",
"j. c #529560",
"k. c #7AB056",
"l. c #75AC56",
"z. c #684631",
"x. c #AD7F61",
"c. c #519461",
"v. c #7CB055",
"b. c #7BB154",
"n. c #010201",
"m. c #79B154",
"M. c #79B055",
"N. c #529461",
"B. c #996C51",
"V. c #0D0907",
"C. c #787E97",
"Z. c #5D555A",
"A. c #050302",
"S. c #797F98",
"D. c #A4A8B5",
"F. c #746B6A",
"G. c #356443",
"H. c #336342",
"J. c #315C3E",
"K. c #3E382E",
"L. c #69523E",
"P. c #634934",
"I. c #868CA1",
"U. c #878CA1",
"Y. c #38281E",
"T. c #366444",
"R. c #346242",
"E. c #998166",
"W. c #A47558",
"Q. c #3F6BAD",
"!. c #4A76B5",
"~. c #45506A",
"^. c #2B65B5",
"/. c #35476A",
"(. c #708881",
"). c #81848F",
"_. c #1D428A",
"`. c #224F9A",
"'. c #17355F",
"]. c #738883",
"[. c #788687",
"{. c #7A8689",
"}. c #509362",
"|. c #7D858B",
" X c #7E858C",
".X c #4E9461",
"XX c #6A8A7B",
"oX c #7F858C",
"OX c #0F0A06",
"+X c #2E1E12",
"@X c #777A84",
"#X c #7F858D",
"$X c #7C858C",
"%X c #6E8A7D",
"&X c #519462",
"*X c #6F8880",
"=X c #808F82",
"-X c #718980",
";X c #808D83",
":X c #718981",
">X c #808C83",
",X c #7F8E83",
"<X c #618C73",
"1X c #6D897E",
"2X c #6E897E",
"3X c #80848E",
"4X c #80848D",
"5X c #6C897D",
"6X c #7E9E6E",
"7X c #7AB154",
"8X c #539660",
"9X c #7C858B",
"0X c #7AB053",
"qX c #79B056",
"wX c #75AD57",
"eX c #76AC56",
"rX c #77AD56",
"tX c #519460",
"yX c #519560",
"uX c #76AD56",
/* pixels */
"  . X   o O o +   @   @ @ # @ @ @ @ @   . X   . O   $   @   @   # @ @ @ % @   . X   . &   @   @ @ @   O @ @ . %     X X   . .   @ @ @ @ @   O @ O . @ ",
"@ @ O @ @ $ @ @ @ @ @ @ @ @ @ @ O @ @ @ @ O @ . @ @ @ . @ @ @ @ @   @ @ @ @ @ @ O . . @ @ @ . @ . @ @ @   @ @ @ . @   O @ . @ @ @ . $ . @ @ @ @ @ . @ ",
"* .   % @     = @   @   @ O @ @ o - @ * . @ % @     @ @   @   * O @ @ o ; @ * . @ % @ o   @ @       * & : : ; ; o * X . % @ .   @ $       * . @ @ O ; ",
"= .   . . % o @ > $ $ @ & @ & @   @ @ = .   . . %   @ > $ % @ & @ , @   @ @ . .   . @ @   @ % < % @ 1 @ 2 3 . @ @ . .   . @ @     @ < % . 1 @ ,   . @ ",
"@ @   @ @ . @ ; $ @ .   @ . @ @ .   . @ @   @ @ . @ - $ @ @   @ @ @ @ .   @ @ @   @ @ . @ - @ @ @     @ 4 3 @   @ @ @   @ @ o @ - @ $ @   5 @ @ @ @   ",
"X . @ @ @ @   O   @ = O   @   @ @ @   X & @ @ & @   O   @ . O   @   @ @ @   X O @ @ & @   O   @ @ 6 7 4   @ 4 4 @ . O @ @ , O   O   @ @ &   @   @ O @ ",
"@ O @ @ . o . . & @ . . @ . @ @ O . @ @ @ @ @     = . & @ @ . @ . @ @ O = @ @ @ @ @   @ 8 . & @ @ 9 4 4 @ @ 4 0 @ . . @ @   @ 8 @ . @ @ @ . . . @ . = ",
". & @ $ 5 O @ @ @ @ @ % . q - @ w @ . . & @ < e O O O @ @ @ % @ % - @   @ . . O @ < o @ O O @ @ @ % @ @ r 4   @ @ . O @ O o @ O # @ @ @ @ @ @ - @   @ ",
"  @ $ - < O   @ O & = O   @ @ @ % . .   > t t t t t t t t t t t y @   u t t t t i -   O     O O = <   @ 4 4 % @ . o @ . -   O   - & O p <   @ @   @ @ ",
"@ @ $ . @ @ @ @   . . & @   . @ @ . @ @ @ t t t t t t t t t t t y o @ t t t t t i = . @ @ . @ . . & @ . a a   . @ @ @ @ @ . @ @ . @ . . O @ . o @   . ",
"@ @ < ; @ @ @ @   @ $ ; . . = . O @ @ @ @ t t t s s s s s d f f g h h s s s t t u j k k k l z $ @ ; . . = . O @ @ @ @ . ; @ @ @ @ @ $   - X @ = . @ @ ",
"@ O @ . & @ @ @ x @ . @ - @ $ @ % . . @ < u t t c c c c c v b b n t t c c c t t t t t t t t m @ . @   @ $ @ @ @ = @ M   . @ @ @ o   @ & @   @ @ @ @ @ ",
"o w .   @ O O @ - O @ . @ @ @ . O @ . o w t t t c c c c c v b b n t t c c c t t t t t t t t N O @ . @ @ @ . O   . .   @   @ O @ @ O & @ @ O @ @ . O @ ",
"O   @ .   ,   @ O @ @ @ @ @ @ . @ = @ O $ t t t t t t c c c c c B b b c c c b b V c c c c c C u Z @ @ @ @ @ @ A 8 O $   . w &   @ & @ @ @ @ @ @ @ @ A ",
"; @ @ . o # o @ X . @ @ @ @ % @ X X @ ; @ u t t t t t c c c c c B b b c c c b b V c c c c c C t t @ & @ % @ X X . & @ S . . &   q .   @ @ , @ % @ X . ",
"w 5 @   @ @ @ @ . @ . & @ w @ @ @ @ @ w   u t t t t t c c c c c B b b c c c b b V c c c c c C t t . @ @ @ & @ @ @ w @ @ @ @ @   @ @ @ @ . @ O @ & @ @ ",
"@ . @ @ @ @ o . @ o @   @ -   @ = @ D t t b b b c c c c c c c c c c c c c c c c c c c c c c c c c t t Z o @ = @ @ . @ @ $ $ $   @ @   o o @ o o @ . @ ",
"w @ @ . @ @ @   @ @   @ @ . q @ @ & F t t b b b c c c c c c c c c c c c c c c c c c c c c c c c c t t u q @ @ O @ $ @ . . < @ . & . @ @ @ @ @ . @ @ O ",
"@ %   @ @ = . @ . . @ ; @ O @ @ $ @ F t t b b b c c c c c c c c c c c c c c c c c c c c c c c c c t t t @ . @ @ @ @ 5 @ @ . @ . @ . . @ . @ @ @ . @ @ ",
"  ; X   o O o +   @   @   G H J K t L b b c c c c c c c c c c c c c c c c c c c c c c c c c c c c c c c t t P %     X p   X &   @   @ @ @   O @ O . % ",
"@ @ ; @ @ O @ @ . @ @ @ @ O I J K t L b b c c c c c c c c c c c c c c c c c c c c c c c c c c c c c c c t t P $ . @ O O @ o @ @ @ .   . @ % @ @   . $ ",
"* .   % @     @ @ @ @   @ O H H U t L b b c c c c c c v v Y c c c c c c c c v v v v v T c c c c c c c c t t P &   * . @ % @ .   @ @       * . @ @ O & ",
"= X   = . % o @ > $ > @ & @ R I E t L b b c c c c c c b b W c c c c c c c c b b b b b Q c c c c c c c c t t P @ @ . X   = @ @     @ < % . ! @ ,   . @ ",
"@ @ @ @ @ . @ . @ @ . @ . . H J ~ t L b b c c c c c c b b W c c c c c c c c b b b b b Q c c c c c c c c t t P $ @ @ @ . @ @   @ @ @ @ @ @ @ @ @ @ . @ ",
". . @ @ @ @   O   @ . O @ @ ^ H K t L b b B B B B B B b b W c c c c c c c c b b / ( ( ) _ _ Q B B c c c ` ` ' ] [ . O @ @ & @   O   @ @ &   @   @ @ @ ",
"@ O @ @ . o = q , . @ @ @ . H H { t L b b b b b b b b b b W c c c c c c c c b b } | | | | |  .b b c c c b b ..t t . = @ @   @ = @ , @ @ @ = . . @ . = ",
". & @ @   O @ @ @ @ @ % . @ I H X.t L b b b b b b b b b b W c c c c c c c c b b } | | | | |  .b b c c c b b ..t t . O @ O o @ O O @ @ @ @ @ @ - @   @ ",
"  @ $ - O O   @ O . = <   @ H H o.t L b b c c c b b b b b W c c c c c b b b | | | | | | | | | | | b b b b b ..t t o @ . -   O   - & O p <   @ @   @ @ ",
"@ @ $ = . @ @ .   . & O @     @ @ t L b b c c c b b b b b W c c c c c b b b | | | | | | | | | | | b b b b b ..t t @ @ @ = . @ @ . . . . O @ .   @   . ",
"@ @ O . @ @ @ @   @ @ ; . . . . O t L b b c c c b b b b b W c c c c c b b b | | | | | | | | | | | b b b b b ..t t @ @ @ ; @ @ @ . @ $ @ @ . @ . . @ @ ",
"@ O @ . # @ @ @ x @ X @ - @ $ @ % t L b b c c c c c c | | O.b b +.c c | | | @.@.#.$.$.$.$.$.%.@.@.t t t b b ..t t @ M   X @ @ @ o   @ & @   @ O @ @ @ ",
"o w . @ @ @ O @ O O @ & @ @ @ . @ t L b b c c c c c c | | O.b b +.c c | | | @.@.#.$.$.$.$.$.%.@.@.t t t b b ..t t @   . $ @ @ O @ O O @ @ O @ @ X @ @ ",
"O   @ .   , @ @ O @ @ @ @ @ @ . @ t L b b c c c c c c | | O.b b +.c c | | | @.@.#.$.$.$.$.$.%.@.@.t t t b b ..u Z O $ @ . w &   @ . @ @ @ . @ @ @ @ = ",
"; @ @ . e G o 8 X o @ @ O % % @ X t L b b b b b c c c | | | | | &.b b $.$.$.@.@.#.$.$.$.$.$.%.@.@.t t t t t P X . ; @ S . X &   q X   @ @ , @ % @ X . ",
"$ 5 . @ @   @ @ . @ . @ @ $ . @ q t L b b b b b c c c | | | | | &.b b $.$.$.@.@.#.$.$.$.$.$.%.@.@.t t t t t P @ @ @   @ @ @ @ @ @ @ @ @ @ ; O . O . @ ",
"H H *.@ @ @   . @ o .   @ -   @ = =.-.;.;.b b b :.:.:.| | | | | >.,.,.$.$.$.<.<.1.$.$.$.$.$.2.<.<.t t t 3.4.5.@ @ . @ @ $ $ $   @ @   o o @   o @ . @ ",
"^ H 6.. @ @ @   % @   @ @ . q @ @ & F t t b b b b b b | | | | | 7.$.$.$.$.$.$.$.$.$.$.$.$.$.$.$.$.t t u 8.@ @ O @ w @ & . < @ @ & . @ @ @ @ O q @ @ O ",
"9.0.q.9.w.@ . . . . @ & @ @ @ @ w @ F t t b b b b b b | | | | | 7.$.$.$.$.$.$.$.$.$.$.$.$.$.$.$.$.t t u @ . @ @ @ @   @ @ . @ . @ . ; @ . @ . @ e.w.r.",
"  . t.^ y.O o +   @   @ @ G . @ @ % u.i.p.a.a.a.b b b s.s.d.| | f.g.g.$.$.$.$.$.$.$.$.$.$.$.h.g.g.t t u @ @ . %     X X   . .   @   @ @ @   O @ j.H k.",
"@ @ l.H H O . @ . @ % @ @ O O @ @ @ . @ O u t t b b b b b z.| | | | | $.$.$.$.$.$.$.$.$.$.$.x.| | t t u O   . > . @ O @ @   @ @ @ .   . @ > @ O c.H v.",
"b.H *.@ @   . @ @ @ @ @ @ < @ @ & . @ * . Z t t b b b b b z.| | | | | $.$.$.$.$.$.$.$.$.$.$.x.| | t t n.@ @ & & @ 8 . @ @ @ . o @ @   @ @ * @ @ @ O & ",
"m.M.N.= . % o @ > $ > @ & @ & O   . @ = X   = . t t t b b b b b B.| | | | | | | | | | | | | V.t t > ! @ ,   o @ @ . X 5 = @ @     @ < % . ! @ ,   . @ ",
"@ @ @ @ @ . @ . @ @ . @ . . @ @ . @ . @ @ @ % @ t t t b b b b b B.| | | | | | | | | | | | | V.t t @ @ . @ $ . $ @ @ % . @ @   @ @ @ @   @ @ @ @ $ . @ ",
". . @ @ @ @   O   @ . O @ @   @ @ @ . X . @ @ O t t t b b b b b B.| | | | | | | | | | | | | V.t t O   @   @ @ . . . O . @ & @   O @ .   @   @   @ @ . ",
"@ O @ @ & o = q , . @ @ O X @ @ O = - @ 8 @ @ o t t t b b b b b +.c c C.C.C.C.C.C.C.C.Z.b b A.t t @ = . @ @ & = $ . = @ @     = @ , @ @ @ = . . @ . = ",
"& @ . @ @ @ @ @ O @ @ % @ @ O @ w @ . & @ @ @ . t t t b b b b b +.c c C.C.C.C.C.C.C.C.Z.b b A.t t % @ @ O @ w O @ @   @ @ . @ @ O .   @ @ % @ O @ w O ",
"  @ $ - @ O   @ O . . O   @ @ @ % . .   @ @ - @ t t t b b b b b +.c c C.C.C.C.C.C.C.C.Z.b b A.t t <   @ @   @ @ . . @ . -   O   - & @ = O   @ @   @ @ ",
"$ O $ = . @ @ . o . & O @     O @ X $ $ @ $ = . t t t b b W c c c c c C.C.C.C.C.S.D.D.F.b b A.t t O @ o   @ @ X @ $ @   = X @ @ . . X . O @ .   @   . ",
"@ @ @ . @ @ @ @ @ @ @ . @ . @ . @ @ @ @ @ @ . @ t t t b b W c c c c c C.C.C.C.C.S.D.D.F.b b A.t t @ . @ @ . @ @ . @ @ @ . @ @ @ . @ @ @ @ . @ @ . @ @ ",
"@ O @ . & @ @ @ w @ . @   @ $ @ % . . @ < G.H.J.K.K.K.L.L.P.c c c c c C.C.C.I.I.U.D.D.F.b b Y.Y.Y.T.R.G.$ @ @ @ q @ M   . @ @ @ o   @ O @   @ @ @ @ @ ",
"  w . $ - @ O @ O O @ & @ % @ . $ @ %   w Z t t $.$.$.$.$.E.c c c c c C.C.C.D.D.D.D.D.F.b b W.| | t t u @ X @ @ @     . $ $ @ O @ O @   @ O @ @ X @ @ ",
"@   @ .   , @ @ O @ @ @ @ @ @ . @ . @ O @ u t t $.$.$.$.$.E.c c c c c C.C.C.D.D.D.D.D.F.b b W.| | t t u @ @ @ . @ @ $ @ . w & @ @ @ @ @ @ . . @ @ @ @ ",
"; @ @ . o G o @ X o @ @ @ % % @ X X @ ; @ t t t $.$.$.$.$.E.c c c c c Q.Q.Q.!.!.!.!.!.~.b b W.| | t t u % @ X X . ; @ < . X &   q X   @ @ , @ % @ X . ",
"O 5 = O @   @ @ . @ - @ @ @ q @ q @ O <   t t t $.$.$.$.$.E.c c c c c ^.^.^.^.^.^.^.^./.b b W.| | t t u q S . @ @ @   @ $ @ @ @ @ . @ @ @ ; & q S . @ ",
"  . @ @ @ @ @ . @   . o @ - . @ = @ . @ @ u t t $.$.$.$.$.E.c c c c c ^.^.^.^.^.^.^.^./.b b W.| | t t u . @ . @ @ . @ @ @ $ @   @ @   o . @   . @ . @ ",
"x $ @ . @ @ @ o % @ 5 @ @ X 8.O @ & = x @ (.).).t t t _._.`.^.^.^.^.^._._._.^.^.^.^.^.'.t t t t t ).).].8.@ @ O @ w @ & X < @ @ , q @ @ @ @ O q @ @ O ",
"$ . @ @ . % . . . @ O . @ @ @ @ w @ @ $ . [.).).t t t _._.`.^.^.^.^.^._._._.^.^.^.^.^.'.t t t t t ).).{.% @ @ > . @ }.H J . @ . @ @ ; @ . $ . @ . @ @ ",
"  . .   o O @ <   @   . @ # . @ @ @ @   . |.).).t t t _._.`.^.^.^.^.^._._._.^.^.^.^.^.'.t t t t t ).). X. @ . % @   .XM.^ . .   @   @ @ . @ O @ O . @ ",
"@ @ ; @ @ O . $ = o % @ @ O O @ @ % XX XoX).).).t t t b b W c c OXt t t t t b b V c c +Xt t @X).).).).).#X$X%X&X. . { H H   O @ @ .   . @ > @ O o . > ",
"* @ @ @ @ @ . @ @ @ @ @ @ w @ @ & . *X).).).).).t t t b b W c c OXt t t t t b b V c c +Xt t @X).).).).).).).=XI @ 8 ~ I H . @ . @ @ @ @ @ O @ @   O . ",
"= .   . . % o @ > @ > @ & @ & O   . -X).).).).).t t t b b W c c OXt t t t t b b V c c +Xt t @X).).).).).).).;XH @ . .X^ I @ @   @ @ < % @ G @ X   . @ ",
"@ @ @ @ @ @ @ . @ @ . @ . = @   X $ :X).).).).).).).).).).).).).).).).).).).).).).).).).).).).).).).).).).).>Xv.o @ o.H k.@   @ @ @ @ o @ @ & @ $ . @ ",
". . . @ O     O   @ . @ @ @ @ @ @ . (.).).).).).).).).).).).).).).).).).).).).).).).).).).).).).).).).).).).,XM.. . K H I & @   O @ .   @   @ @ @ @ . ",
"@ @ @ @ & o . q , . @ @ @ . @ @ O = <X1X2X3X).).).).).).).).).).).).).).).).).).).).).).).).).).).).).4X1X5X6X7X$ @ 8 8X8X  @ = @ , @ @ @ = . @ @ . = ",
"O @ . @ @ @ @ @ O @ % % @ @ O @ w @ @ O   9X).).).).).).).).).).).).).).).).).).).).).).).).).).).).). XO @ ^ 0X  @   @ @ . @ @ @ .   * % % % O % w O ",
"@ @ @ @ @ O o @ O . . @   @ @ @ % . .   @ @ - @ O o @ O @ . <   @ @   @ @ . @ @ @ - @ O o   O @ . O   @ @   H I . @ @ @     O o - & @ . @   @ @   @ @ ",
"$ @ $ = . @ @ . o . & O @     - @ X $ $ @ $ = . @ @ . o . & O @ o   @ @ X @ $ @ $ = . @ @ . . X . O @ o   @ @ X @ $ @   = X O @ . . X . O @ .   @   X ",
"@ @ @ . @ @ @ @ @ @ @ @ @ % @ . @ @ @ @ @ @ . @ @ @ . @ @ @ @ @ @ @ . @ @ . @ @ @ X O @ @ . @ @ @ @ @ @ @ . @ @ . @ @ @ . O @ @ . & @ @ @ . @ @ e @ @ ",
"@ O @ . & @ @ @ w @ . @   @ @ @ @ . @ @ O @ . & @ @ @ w @ . @ H H $ @ @ @ . @ < @ X . @ @ . w @ . @ @ @ $ @ @ @ q @ < @ . . @ @ . @ @ @ @ @ @ @ @ @ @ ",
"  w X $ - @ O O O @ @ , - % @ = > @ >   w . $ @ @ O O O @ @ , I qX@ X > @ @     . $ @ @ O @ O @   & O @ @ X > @ @     . $ $ @ O @ O @   . O @ @ X @ @ ",
"@   @ .   o @ O   @ O @ @ @ @ . @ @ = @ @ @ o   o @ O   J I H . @ 7XH @ @ @ @ @ @ o   . @ O   $ @ @ . . . @ @ @ @ @ @ @ o w O @ O   $ @ @ . . . @ @ @ ",
"; @ @ . . # o @ . . @ @ @ % @ @ . . @ ; @ @ . . #   @ . ^ H H . @ qXH . . @ ; @ O . . &   . .   @ @ . @ % @ . . . ; @ O . . &   . .   @ @ & @ % @ . . ",
"O 5 = O o   @ @ X @ - $ @ @ 8.@ 8.@ O O   8 < @   @ @ X wXeXrXtXyXwXuX8.@ @ O   @ < % @ @ @ . @ @ $ ; & 8.e.q @ @ @   @ < % @ @ @ . @ @ @ ; & q M . @ ",
"o .   @ @ @ @ .     . . @ @ . @ @ @ . o @ @ O $ @ @ .     . . H H . @ . @ . . @ @ O $ @ < @ @   o . @ @ . @ . O @ @   @ @ $ @ @ @ @   o .   @ . @ . @ ",
"w @ @ . @ @ @ o % @ 5 @ @ . . O @ O = w @ @ . @ @ @ . % @   @ H H 8.@ @ O . w @ . . @ @ @ . % @ @ @ @ . q @ @ O @ w @ & . < @ @ & . @ @ @ @ @ . @ @ O "
};
