/* XPM */
static char *result[] = {
/* columns rows colors chars-per-pixel */
"75 75 125 2 ",
"   c #181425",
".  c #191425",
"X  c #1A1525",
"o  c #1B1526",
"O  c #1B1626",
"+  c #1C1626",
"@  c #1D1727",
"#  c #1E1727",
"$  c #1F1727",
"%  c #201827",
"&  c #211827",
"*  c #221928",
"=  c #231928",
"-  c #251A28",
";  c #241A29",
":  c #251A29",
">  c #271B28",
",  c #261B29",
"<  c #281C29",
"1  c #291C29",
"2  c #281C2A",
"3  c #291C2A",
"4  c #2A1D2A",
"5  c #2B1D2B",
"6  c #2B1E2A",
"7  c #2C1D2A",
"8  c #2C1D2B",
"9  c #2D1E2B",
"0  c #2E1F2C",
"q  c #2F1F2C",
"w  c #34212B",
"e  c #35222B",
"r  c #31202C",
"t  c #31202D",
"y  c #32202D",
"u  c #32212D",
"i  c #33212D",
"p  c #34222D",
"a  c #35222D",
"s  c #34222E",
"d  c #35222E",
"f  c #36222E",
"g  c #36232E",
"h  c #38232E",
"j  c #38242F",
"k  c #39242F",
"l  c #3A242E",
"z  c #3D252F",
"x  c #3D262F",
"c  c #3F262F",
"v  c #3E272F",
"b  c #2B2B3D",
"n  c #2F2C3E",
"m  c #3B2630",
"M  c #3D2630",
"N  c #3D2631",
"B  c #3D2731",
"V  c #3F2730",
"C  c #3E2731",
"Z  c #3F2831",
"A  c #312B3B",
"S  c #40272F",
"D  c #402831",
"F  c #432932",
"G  c #452A31",
"H  c #462A30",
"J  c #462A31",
"K  c #452A32",
"L  c #462B32",
"P  c #472B32",
"I  c #472B33",
"U  c #492B32",
"Y  c #4A2C31",
"T  c #4C2D32",
"R  c #4C2D33",
"E  c #4E2E32",
"W  c #4E2E33",
"Q  c #4A2D34",
"!  c #4F2F34",
"~  c #502F33",
"^  c #522F33",
"/  c #543134",
"(  c #553134",
")  c #563235",
"_  c #573235",
"`  c #583233",
"'  c #583335",
"]  c #593335",
"[  c #5A3335",
"{  c #5E3535",
"}  c #5D3536",
"|  c #5F3737",
" . c #613636",
".. c #623736",
"X. c #633837",
"o. c #643836",
"O. c #673A37",
"+. c #683A37",
"@. c #693B37",
"#. c #6A3B38",
"$. c #6C3C38",
"%. c #6D3C38",
"&. c #6E3D38",
"*. c #6F3D38",
"=. c #6E3E39",
"-. c #703E38",
";. c #713E39",
":. c #713F39",
">. c #733F39",
",. c #743F39",
"<. c #76413A",
"1. c #75433C",
"2. c #78423B",
"3. c #79433B",
"4. c #7C463D",
"5. c #7C473D",
"6. c #7D483E",
"7. c #7F493E",
"8. c #81493E",
"9. c #844B3F",
"0. c #854C40",
"q. c #864D40",
"w. c #874D40",
"e. c #83899F",
"r. c #8B9BB4",
/* pixels */
"_ _ _ 7 = , j j F F *.*.*.*.*.*.*.7.7.7.7.:.*...= = j j F F O.*.%.o.o.= = f f f f S *.*.*.*.*.*.*.*.@.~ ~ ~ ~ = = q y u f f *.*.*.*.*.*.:.7.7.~ ~ ~ ~ ",
"] ] ] =   # C C C C >.>.>.>.>.>.>.w.w.w.w.<.>.o.    C C C C #.>.>.>.>.    q q q q l >.>.>.>.>.>.>.>.%.W W W W     5 q q q q >.>.>.>.>.>.<.w.w.W W W W ",
"] ] ] =   # m m m m >.>.>.>.>.>.>.w.w.6.6.+.o.` # # C C P P =.<.<.>.>.> > 5 5 0 q h +.+.>.>.>.>.&.%.+.W W G G + + 8 q r l l >.>.>.>.<.<.2.6.6.W W G G ",
"] ] ] =   + q q q q >.>.>.>.>.>.>.w.w.W W &   # C C C C >.>.9.w.9.>.>.>.>.    5 q q q q >.>.>.>./ W W W W     q q q q l >.>.>.>.>.>.9.w.6.W W W W     ",
"] ] ] =   + q q q q >.>.>.>.>.>.>.w.w.W W &   # C C C C >.>.9.w.9.>.>.>.>.    5 q q q q >.>.>.>./ W W W W     q q q q l >.>.>.>.>.>.9.w.6.W W W W     ",
"] ] ] f q 5     q q q q +.>.<.w.w.W W     j C C C C >.>.>.>.>.>.<.w.w.>.>.>.>.>   + q q q q W W W W G     q q q q +.>.>.>.>.>.>.w.w.' W W W W     q q ",
"] ] ] f q 5     q q q q +.>.<.w.w.W W     j C C C C >.>.>.>.>.>.<.w.w.>.>.>.>.>   + q q q q W W W W G     q q q q +.>.>.>.>.>.>.w.w.' W W W W     q q ",
"] ] ] *.>.>.>.>.    q q U W W W W     q q q q l >.>.>.>.>.>.>.>.<.w.w.W W W W &   + q q C C >.>.>.>.o.        q q q q l >.>.>.>.W W W W G     q q q q ",
"] ] ] *.>.>.>.>.    q q U W W W W     q q q q l >.>.>.>.>.>.>.>.<.w.w.W W W W &   + q q C C >.>.>.>.o.        q q q q l >.>.>.>.W W W W G     q q q q ",
"] ] ] *.>.>.>.>.o.o.+ + % & & & & 5 5 q q { +.@.>.>.>.>.>.>.8.9.5.' ' W W & & 3 5 0 m m #.#.9.9.<.>.-.o.o.    + + 8 q r l l / / W W 1 & = 5 5 q q +.+.",
"] ] ] *.>.>.>.>.>.>.              q q q q +.>.>.>.>.>.>.>.>.9.w.6.W W W W     5 q y C C >.>.w.w.<.>.>.>.>.        5 q q q q W W W W &   + q q q q >.>.",
"] ] ] *.>.,.<.<.>.>.> > o         q q y y +.>.>.>.>.>.>.<.<.5.6.1.W W G G + + 0 y d P P >.>.9.9.3.<.<.>.>.> >     2 5 9 p p W W G G = + $ q q l l >.>.",
"] ] ] *.>.<.w.w.>.>.>.>.>         q q C C #.>.>.>.>.>.>.w.w.' W W W W     q q m C P >.>.>.>.>.>.9.w.9.>.>.>.>.        & W W W W     5 q q q q >.>.>.>.",
"] ] ] *.>.<.w.w.>.>.>.>.>         q q C C #.>.>.>.>.>.>.w.w.' W W W W     q q m C P >.>.>.>.>.>.9.w.9.>.>.>.>.        & W W W W     5 q q q q >.>.>.>.",
"C ] ] *.>.>.>.>.w.w.>.>.>.>.o.    q q q q +.>.>.>.>.>.>.W W W W G     q q C C #.>.>.>.>.>.>.>.>.>.>.<.w.w.>.>.>.>.>             q q q q l >.>.>.>.>.>.",
"C ] ] *.>.>.>.>.w.w.>.>.>.>.o.    q q q q +.>.>.>.>.>.>.W W W W G     q q C C #.>.>.>.>.>.>.>.>.>.>.<.w.w.>.>.>.>.>             q q q q l >.>.>.>.>.>.",
"  C C #.>.>.>.>.>.>.w.w.<.>.>.>.>.    q q q q l >.>.W W W W &   + q q q q >.>.>.>.>.>.>.>.>.>.>.>.>.>.>.>.w.w.w.w.6         q q q q +.>.>.>.>.>.>.>.>.",
"  C C #.>.>.>.>.>.>.w.w.<.>.>.>.>.    q q q q l >.>.W W W W &   + q q q q >.>.>.>.>.>.>.>.>.>.>.>.>.>.>.>.w.w.w.w.6         q q q q +.>.>.>.>.>.>.>.>.",
"o./ / &.>.>.>.>.>.>.<.<.8.9.8.>.>.o.o.+ + 8 q r l l p p & & X   + q q q q >.>.>.>.>.>.>.>.>.>.>.>.>.<.9.9.' ' ' ' =         q q q q +.>.>.>.>.>.>.>.>.",
">.] ] *.>.>.>.>.>.>.>.>.9.w.9.>.>.>.>.    5 q q q q q q         + q q q q >.>.>.>.>.>.>.>.>.>.>.>.>.<.w.w.W W W W &         q q q q +.>.>.>.>.>.>.>.>.",
"*.] ] *.>.>.>.>.>.>.>.>.8.9.8.<.<.<.<.> > 4 5 5 5 5 5 5         O 5 5 q q +.+.;.>.>.>.>.>.>.>.>.<.<.2.6.6.W W G G : # @     q q q q { +.@.>.>.>.>.>.>.",
"] ] ] *.>.>.>.>.>.>.>.>.>.>.<.w.w.w.w.>.>.>                           q q q q +.>.>.>.>.>.>.>.>.9.w.6.W W W W     j C j     q q q q q q l >.>.>.>.>.>.",
"] ] ] *.>.>.>.>.>.>.>.>.>.>.<.w.w.w.w.>.>.>                           q q q q +.>.>.>.>.>.>.>.>.9.w.6.W W W W     j C j     q q q q q q l >.>.>.>.>.>.",
"C C C #.>.>.>.>.>.>.>.>.>.>.<.w.w.W W W W &   # C C C C >.>.>.>.>.>.>.    q q q q l >.>.>.>.>.>./ W W W W     C C C C P >.>.    q q q q q q q >.>.>.>.",
"C C C #.>.>.>.>.>.>.>.>.>.>.<.w.w.W W W W &   # C C C C >.>.>.>.>.>.>.    q q q q l >.>.>.>.>.>./ W W W W     C C C C P >.>.    q q q q q q q >.>.>.>.",
"C C C #.>.>.>.>.>.>.>.>.9.w.6.W W W W     j C C C C C C w.w.w.w.9.>.>.>.>.    5 q q q q W W W W W W G     C C C C #.>.<.w.w.>.>.    5 q q q q q q >.>.",
"C C C #.>.>.>.>.>.>.>.>.9.w.6.W W W W     j C C C C C C w.w.w.w.9.>.>.>.>.    5 q q q q W W W W W W G     C C C C #.>.<.w.w.>.>.    5 q q q q q q >.>.",
"C C C #.>.>.>.>.>.>.9.9.| ' ) W W & & j j N C C C C #.#.<.<.<.<.3.9.9.>.>.o.o.< + $ q q p p W W 1 & : j j C C #.#.;.>.<.w.w.9.9.o.o.< + $ q q q q l l ",
"C C C #.>.>.>.>.>.>.w.w.' W W W W     C C C C C C C >.>.>.>.>.>.<.w.w.>.>.>.>.>   + q q q q W W &   # C C C C >.>.>.>.<.w.w.w.w.>.>.>   + q q q q q q ",
"C C C  .+.@.>.>.>.>.6.6.) W R G G # # C C C C Z P P >.>.>.>.>.>.<.9.9.<.<.>.>.w > < 5 5 5 5 G G : # ; C C P P >.>.>.>.<.9.9.w.w.<.<.e > < 5 5 q q q q ",
"C C C y q l >.>.>.>.W W W W G     C C C C C C P >.>.>.>.>.>.>.>.>.>.>.w.w.>.>.>.>.o.            j C C C C >.>.>.>.>.>.>.>.>.w.w.w.w.<.>.o.    q q q q ",
"C C C y q l >.>.>.>.W W W W G     C C C C C C P >.>.>.>.>.>.>.>.>.>.>.w.w.>.>.>.>.o.            j C C C C >.>.>.>.>.>.>.>.>.w.w.w.w.<.>.o.    q q q q ",
"C C C y q q q q W W W W &   + q q q q q q +.>.>.>.>.>.>.>.>.>.>.>.>.>.w.w.W W W W G             5 q q q q >.>.>.>.>.>.>.>.>.>.>.w.w.w.w.9.>.>.    q q ",
"C C C y q q q q W W W W &   + q q q q q q +.>.>.>.>.>.>.>.>.>.>.>.>.>.w.w.W W W W G             5 q q q q >.>.>.>.>.>.>.>.>.>.>.w.w.w.w.9.>.>.    q q ",
"C C C #                     + q q q q >.>.>.>.>.>.>.>.>.>.>.>.>.<.w.w.W W W W &   # C C C C     5 q q q q q q >.>.>.>.>.>.>.>.>.>.>.9.w.w.w.w.>.>.    ",
"C C C #                     + q q q q >.>.>.>.>.>.>.>.>.>.>.>.>.<.w.w.W W W W &   # C C C C     5 q q q q q q >.>.>.>.>.>.>.>.>.>.>.9.w.w.w.w.>.>.    ",
"C C C k j V o.o.o.o.        + q q q q >.>.>.>.>.>.>.>.>.>.>.8.9.5.' ' W W & & s j k C C #.#.o.o.< + $ q q q q l l @.>.>.>.>.>.>.>.>.9.w.7.' ' / /     ",
"C C C C C P >.>.>.>.        + q q q q >.>.>.>.>.>.>.>.>.>.>.9.w.6.W W W W     j C C C C >.>.>.>.>   + q q q q q q +.>.>.>.>.>.>.>.>.9.w.6.W W W W     ",
"F F F L P ! <.<.>.>.> > o   + q q q q +.+.;.>.>.>.>.>.>.>.>.4.6.1.W W G G # # k C D Q Q <.<.>.>.w > < 5 5 q q q q { +.@.>.>.>.>.<.<.5.6.1.W W G G # # ",
"] ] ] *.>.<.w.w.>.>.>.>.>   + q q q q q q +.>.>.>.>.>.>.>.>./ W W W W     C C C C Q w.w.w.w.>.>.>.>.o.    q q q q q q l >.>.>.>.w.w.' W W W W     C C ",
"] ] ] *.>.<.w.w.>.>.>.>.>   + q q q q q q +.>.>.>.>.>.>.>.>./ W W W W     C C C C Q w.w.w.w.>.>.>.>.o.    q q q q q q l >.>.>.>.w.w.' W W W W     C C ",
"]     o.>.>.>.>.w.w.>.>.>.>.o.    q q q q q q l >.>.>.>.W W W W G     C C C C #.>.>.>.>.w.w.w.w.<.>.>.>.>.    q q q q q q q q q W W W W G     C C >.>.",
"]     o.>.>.>.>.w.w.>.>.>.>.o.    q q q q q q l >.>.>.>.W W W W G     C C C C #.>.>.>.>.w.w.w.w.<.>.>.>.>.    q q q q q q q q q W W W W G     C C >.>.",
"  ] ] *.>.>.>.>.w.w.w.w.<.>.o.        q q q q q q q q q W W &   # C C C C >.>.>.>.>.>.>.>.>.w.w.w.w.9.>.>.>.>.                          # C C >.>.>.>.",
"  ] ] *.>.>.>.>.w.w.w.w.<.>.o.        q q q q q q q q q W W &   # C C C C >.>.>.>.>.>.>.>.>.w.w.w.w.9.>.>.>.>.                          # C C >.>.>.>.",
"E ] ] *.>.>.>.>.w.w.' ' ( / Y         + + + + + + + + + & & X   + y y C C >.>.>.>.>.>.>.>.>.<.<.9.w.q.9.9.9.9.        @ j j j j o.o.-   + y y >.>.>.>.",
"] ] ] *.>.>.>.>.w.w.W W W W G                                   + q q C C >.>.>.>.>.>.>.>.>.>.>.9.w.w.w.w.w.w.        # C C C C >.>.>   + q q >.>.>.>.",
"] E E %.>.,.<.<.6.6.W W J G v # # # # # # # # % > > > >         + q q m m >.>.>.>.>.>.>.>.>.>.>.9.w.0.6.6.6.6.    @ # ; C C C C <.<.e > < 5 5 +.+.>.>.",
"]     o.>.<.w.w.W W W W &   # C C C C C C C C P >.>.>.>.        + q q q q >.>.>.>.>.>.>.>.>.>.>.9.w.6.W W W W     j C C C C C C w.w.<.>.o.    q q >.>.",
"]     o.>.<.w.w.W W W W &   # C C C C C C C C P >.>.>.>.        + q q q q >.>.>.>.>.>.>.>.>.>.>.9.w.6.W W W W     j C C C C C C w.w.<.>.o.    q q >.>.",
"] ] ] *.>.%.W W W W     j C C C C >.>.>.>.>.>.<.w.w.>.>.>.>.>   + q q q q q q +.>.>.>.>.>.>.w.w.' W W W W     C C C C C C C >.>.w.w.w.w.9.>.>.    q q ",
"] ] ] *.>.%.W W W W     j C C C C >.>.>.>.>.>.<.w.w.>.>.>.>.>   + q q q q q q +.>.>.>.>.>.>.w.w.' W W W W     C C C C C C C >.>.w.w.w.w.9.>.>.    q q ",
"] ] ] ~ W W W W         j C C C C >.>.>.>.>.>.>.>.>.w.w.>.>.>.>.o.    q q q q q q l >.>.>.>.W W W W G     C C C C C C P >.>.>.>.>.>.9.w.w.w.w.>.>.    ",
"] ] ] ~ W W W W         j C C C C >.>.>.>.>.>.>.>.>.w.w.>.>.>.>.o.    q q q q q q l >.>.>.>.W W W W G     C C C C C C P >.>.>.>.>.>.9.w.w.w.w.>.>.    ",
"] ] ] 4 & & & &         j C C C C >.>.>.>.>.>.>.>.>.<.<.9.9.<.>.-.o.o.+ + q q q q a / / / / W W 1 & = 5 5 C C C C X.#.$.>.>.>.>.>.>.<.<.:.' ' / /     ",
"] ] ] =                 j C C C C >.>.>.>.>.>.>.>.>.>.>.w.w.<.>.>.>.>.    q q q q p W W W W W W &   + q q C C C C #.>.>.>.>.>.>.>.>.>.>.%.W W W W     ",
"] ] ] < # # # #         j C C C C >.>.>.>.>.>.>.>.>.>.>.9.9.3.<.<.<.<.> > 5 5 0 q i U U U U G G %   + q q m m C C #.>.>.>.>.>.>.>.>.&.%.+.W W G G # # ",
"] ] ] F C C C C         j C C C C >.>.>.>.>.>.>.>.>.>.>.>.>.9.w.w.w.w.>.>.    5 q q q q q q         + q q q q C C #.>.>.>.>.>.>.>.>./ W W W W     C C ",
"] ] ] F C C C C         j C C C C >.>.>.>.>.>.>.>.>.>.>.>.>.9.w.w.w.w.>.>.    5 q q q q q q         + q q q q C C #.>.>.>.>.>.>.>.>./ W W W W     C C ",
"] ] ] *.>.<.w.w.C C     5 q q q q >.>.>.>.>.>.>.>.>.>.>.>.>.9.w.6.W W W W         # C C >.>.>.>.>   + q q q q q q +.>.>.>.>.>.>.W W W W G     C C C C ",
"] ] ] *.>.<.w.w.C C     5 q q q q >.>.>.>.>.>.>.>.>.>.>.>.>.9.w.6.W W W W         # C C >.>.>.>.>   + q q q q q q +.>.>.>.>.>.>.W W W W G     C C C C ",
"] ] ] *.>.>.>.>.w.w.>.>.>   + q q q q >.>.>.>.>.>.>.>.>.w.w.' W W W W         j C C C C w.w.>.>.>.>.o.    q q q q q q l >.>.W W W W &   # C C C C >.>.",
"] ] ] *.>.>.>.>.w.w.>.>.>   + q q q q >.>.>.>.>.>.>.>.>.w.w.' W W W W         j C C C C w.w.>.>.>.>.o.    q q q q q q l >.>.W W W W &   # C C C C >.>.",
"] ] ] *.>.>.>.>.w.w./ / *   . + + q q l l l l c / / / / ' ' ~ W J & &     j j N C K #.#.<.<.9.9.<.>.-.o.o.+ + q q q q r l l W W & & s j k C C #.#.>.>.",
"] ] ] *.>.>.>.>.w.w.W W &         q q q q q q p W W W W W W W W G         C C C C P >.>.>.>.w.w.<.>.>.>.>.    q q q q q q q W W     j C C C C >.>.>.>.",
"/ ] ] *.>.,.<.<.6.6.G G %   o > > l l 5 5 0 q i U U U U U U J G x     # # C C K P W >.>.>.>.9.9.3.<.<.>.>.> > 5 5 5 5 5 5 5 G G + + g m B P P >.>.>.>.",
"C ] ] *.>.<.w.w.W W         > >.>.>.>.    5 q q q q q q q q +         C C C C #.>.>.>.>.>.>.>.>.9.w.9.>.>.>.>.                  q q q q l >.>.>.>.>.>.",
"C ] ] *.>.<.w.w.W W         > >.>.>.>.    5 q q q q q q q q +         C C C C #.>.>.>.>.>.>.>.>.9.w.9.>.>.>.>.                  q q q q l >.>.>.>.>.>.",
"]     o.>.%.W W     C C #.>.<.w.w.>.>.>.>.>                           q q q q +.>.>.>.>.>.>.>.>.>.>.<.w.w.w.w.w.w.6         q q q q +.>.>.>.>.>.>.w.w.",
"]     o.>.%.W W     C C #.>.<.w.w.>.>.>.>.>                           q q q q +.>.>.>.>.>.>.>.>.>.>.<.w.w.w.w.w.w.6         q q q q +.>.>.>.>.>.>.w.w.",
"] ] ] ~ W G     C C >.>.>.>.>.>.>.w.w.>.>.>.>.o.        C C #.>.o.    q q q q +.>.>.>.>.>.>.>.>.>.>.<.w.w.W W W W &   + q q q q >.>.>.>.>.>.>.w.w.W W ",
"] ] ] ~ W G     C C >.>.>.>.>.>.>.w.w.>.>.>.>.o.        C C #.>.o.    q q q q +.>.>.>.>.>.>.>.>.>.>.<.w.w.W W W W &   + q q q q >.>.>.>.>.>.>.w.w.W W ",
"e.e.e.A & = 5 5 C C P P P P P P P Q Q P P [ } ^     j j C C K P R o.o.+ + q q h l z P P P P P P P P I Q Q _ _ & & 3 5 8 q q q q P P P P P P P Q Q _ _ ",
"r.r.r.b   + q q C C C C C C C C C C C C C / ] E     C C C C C C P >.>.    q q q q y C C C C C C C C C C C ] ]     5 q q q q q q C C C C C C C C C ] ] ",
"r.r.r.n + $ q q C C C C C C C C C C C F F T E H # # C C C C C C K #.#.> > 5 5 0 q t m m m m m m m m M F F E E     5 q q q q q q C C C C C C C F F E E "
};
